<?xml version="1.0" encoding="UTF-8"?>
<svg version="1.1" xmlns="http://www.w3.org/2000/svg" width="1280" height="298">
<path d="M0 0 C0.99 0.495 0.99 0.495 2 1 C-11.68553446 13.78213541 -11.68553446 13.78213541 -15.9375 17.4375 C-25.08326365 25.35210316 -33.83385366 33.75313438 -42.4375 42.25 C-42.99912842 42.79865723 -43.56075684 43.34731445 -44.1394043 43.91259766 C-45.4661822 45.23622905 -46.73901048 46.61354946 -48 48 C-48 48.66 -48 49.32 -48 50 C-46.5896823 51.22427579 -45.11851069 52.37871813 -43.625 53.5 C-23.0536657 69.66111877 -9.94501154 92.1263363 -5.6875 117.9375 C-3.39839457 137.35087488 -5.12918263 158.25836527 -14 176 C-13.32630371 176.17813232 -12.65260742 176.35626465 -11.95849609 176.53979492 C-7.24360618 177.8035165 -2.55842418 179.10919315 2.0859375 180.61328125 C36.32565953 191.67808367 71.70182831 195.85122533 107.39846802 198.83908081 C111.02286035 199.14340622 114.64654667 199.45571905 118.27020264 199.76867676 C120.13262686 199.92649873 121.9954909 200.07919378 123.85870361 200.22741699 C126.63745899 200.44921533 129.41432984 200.68788405 132.19140625 200.9296875 C133.03509262 200.9927005 133.87877899 201.0557135 134.74803162 201.12063599 C138.95419004 201.5035506 141.2277706 201.78275846 144 205 C133.2302945 205.74412899 122.47295051 206.24139361 111.68332481 206.56998253 C109.01892671 206.65131783 106.35465148 206.73598706 103.69038391 206.82148743 C99.87078292 206.94399497 96.05115713 207.06566983 92.23150635 207.18661499 C60.18519544 208.20412995 28.15920936 209.37614914 -3.8581543 211.08544922 C-5.02248489 211.14701706 -6.18681549 211.2085849 -7.38642883 211.27201843 C-9.49978541 211.38466288 -11.61299743 211.5000796 -13.72599792 211.61921692 C-16.48364259 211.76788648 -19.24042431 211.89329328 -22 212 C-23.01177307 212.04009186 -24.02354614 212.08018372 -25.065979 212.12149048 C-26.05692566 212.14432098 -27.04787231 212.16715149 -28.06884766 212.19067383 C-28.96254059 212.21470779 -29.85623352 212.23874176 -30.77700806 212.26350403 C-33 212 -33 212 -35.1875 209.5 C-35.455625 208.675 -35.72375 207.85 -36 207 C-36.49886719 207.4846875 -36.99773437 207.969375 -37.51171875 208.46875 C-58.81206465 228.35417167 -84.77653404 235.10543217 -113.265625 234.37890625 C-132.83752007 233.50643077 -149.54347856 226.25415825 -166 216 C-166.268125 217.2375 -166.53625 218.475 -166.8125 219.75 C-167.40815169 222.46872452 -168.04289854 225.1595563 -168.765625 227.84765625 C-171.41568956 237.70745526 -173.76327546 248.12646009 -170 258 C-167.56295058 261.94970079 -165.52997001 263.9167463 -161 265 C-145.22980819 267.18538238 -129.48340337 256.33882862 -117.375 247.1875 C-115.57890393 245.79737085 -113.78666596 244.40222855 -112 243 C-110.66934164 241.99644328 -109.33709033 240.99497097 -108 240 C-107.34 240.33 -106.68 240.66 -106 241 C-121.24999968 262.40865339 -141.5917317 282.76068386 -168 289 C-184.14969803 290.53575707 -184.14969803 290.53575707 -190.4609375 285.53125 C-190.96882813 285.0259375 -191.47671875 284.520625 -192 284 C-192.48726562 283.5153125 -192.97453125 283.030625 -193.4765625 282.53125 C-200.17455244 274.54066551 -200.80266616 262.94608067 -200 253 C-198.44499869 236.69756696 -193.79842019 219.39003207 -186.36401367 204.78637695 C-184.81695398 202.15156507 -184.81695398 202.15156507 -185.01953125 199.55859375 C-186.37738563 196.0151889 -188.49047619 193.12090675 -190.6875 190.0625 C-206.09024289 167.73702201 -210.93635431 140.11731332 -206.28125 113.58203125 C-201.10638946 87.73414588 -185.82361311 64.39121714 -164.05200195 49.45629883 C-140.35054376 33.87155053 -112.48985362 28.53958608 -84.65234375 33.859375 C-78.64332457 35.19156928 -72.93295269 37.43000692 -67.27978516 39.83813477 C-62.86450969 41.71205629 -62.86450969 41.71205629 -58.1875 41.40625 C-55.97063034 39.9811195 -54.19523515 38.53076481 -52.3125 36.6875 C-38.97775219 24.49510291 -23.09251059 14.83826832 -8 5 C-6.84999512 4.23236328 -6.84999512 4.23236328 -5.67675781 3.44921875 C-4.96100586 2.98128906 -4.24525391 2.51335938 -3.5078125 2.03125 C-2.56252686 1.40573242 -2.56252686 1.40573242 -1.59814453 0.76757812 C-1.07075684 0.51427734 -0.54336914 0.26097656 0 0 Z M-174.65234375 77.05859375 C-189.60415794 95.79189838 -196.70796997 118.84373433 -194.4375 142.6875 C-192.74202013 157.34740673 -187.70934993 171.98518251 -179 184 C-178.01 184.33 -177.02 184.66 -176 185 C-175.73074707 184.5052417 -175.46149414 184.0104834 -175.18408203 183.50073242 C-160.57961045 156.8653045 -143.4731407 130.88610074 -123.52734375 107.9296875 C-121.03670312 105.04254613 -118.63817759 102.09713333 -116.25 99.125 C-113.22584562 95.40668918 -110.09291923 91.97211881 -106.6484375 88.64453125 C-104.99734869 86.99735498 -103.50357873 85.28216058 -102 83.5 C-94.24813443 74.51767958 -85.61001354 65.91649783 -76.515625 58.296875 C-74.91437055 56.92672944 -73.40425862 55.57344641 -72 54 C-72 53.34 -72 52.68 -72 52 C-108.57907869 36.73288453 -148.66884054 47.45140071 -174.65234375 77.05859375 Z M-62.015625 61.6875 C-66.83211708 66.6724009 -71.50172681 71.72707311 -76 77 C-76.90428762 78.04093857 -77.80929531 79.08125183 -78.71484375 80.12109375 C-85.21184909 87.60568647 -91.44955173 95.24752616 -97.51220703 103.08691406 C-99.09911222 105.12744394 -100.70255982 107.15418439 -102.30859375 109.1796875 C-122.71709514 135.00479931 -140.700568 162.49456986 -155.5625 191.875 C-155.89749512 192.5354834 -156.23249023 193.1959668 -156.57763672 193.87646484 C-158.06427865 196.87090808 -159.39421312 199.69721673 -160 203 C-141.06146239 219.05658624 -118.03077462 222.44085014 -94 221 C-88.45073981 220.30727786 -83.28488244 218.83193188 -78 217 C-76.96230469 216.649375 -75.92460937 216.29875 -74.85546875 215.9375 C-62.27273932 211.1880556 -51.56749091 203.3249969 -42 194 C-47.85699685 181.97593 -54.17504766 170.23509208 -60.61962891 158.51708984 C-62.51411175 155.06252349 -64.38609807 151.59614026 -66.25 148.125 C-66.79140625 147.11695313 -67.3328125 146.10890625 -67.890625 145.0703125 C-68.25671875 144.38710937 -68.6228125 143.70390625 -69 143 C-68.16339844 143.67804688 -67.32679688 144.35609375 -66.46484375 145.0546875 C-47.94549279 161.40531013 -47.94549279 161.40531013 -26 170 C-20.6450584 156.64439467 -16.84987338 142.5125068 -18 128 C-18.08121094 126.96101563 -18.16242188 125.92203125 -18.24609375 124.8515625 C-21.0480747 99.60484759 -33.24001314 79.57524305 -52.34375 63.3046875 C-57.00332556 59.48231028 -57.00332556 59.48231028 -62.015625 61.6875 Z " fill="#0032A1" transform="translate(216,4)"/>
<path d="M0 0 C0.86439099 -0.0015081 1.72878199 -0.0030162 2.61936665 -0.00457001 C4.11013721 -0.02148895 4.11013721 -0.02148895 5.63102436 -0.03874969 C6.72040806 -0.03065277 7.80979176 -0.02255585 8.93218708 -0.01421356 C10.08044971 -0.02122284 11.22871235 -0.02823212 12.41177082 -0.0354538 C16.22065909 -0.05310657 20.02880835 -0.0413806 23.83770466 -0.02788544 C26.48226279 -0.03057916 29.12681996 -0.03446058 31.7713747 -0.03948212 C37.32229356 -0.04676349 42.87299973 -0.03716355 48.4238863 -0.01811981 C54.8274478 0.0035966 61.23049881 -0.0033618 67.63404769 -0.02542543 C73.13911508 -0.04362984 78.64402949 -0.04611169 84.14911729 -0.03567076 C87.43360262 -0.0294564 90.71779789 -0.03012783 94.00227642 -0.04181671 C97.67196892 -0.05200535 101.34069155 -0.0364442 105.01031208 -0.01421356 C106.62920589 -0.02635895 106.62920589 -0.02635895 108.28080463 -0.03874969 C114.89118634 0.03522296 119.15607238 0.98448425 124.79473591 4.50336456 C127.88199369 8.18815611 128.63310983 11.73539516 128.79473591 16.50336456 C126.80850714 23.27821032 123.48183326 28.08483345 119.10723591 33.56586456 C118.52006794 34.32963409 117.93289997 35.09340363 117.32793903 35.88031769 C111.71925933 43.01475357 105.74939201 48.98421009 97.48223591 52.94086456 C96.4754781 53.4345755 95.46872028 53.92828644 94.43145466 54.43695831 C91.79473591 55.50336456 91.79473591 55.50336456 88.79473591 55.50336456 C89.31036091 56.30773956 89.82598591 57.11211456 90.35723591 57.94086456 C92.2181223 62.5526265 92.09069593 65.7291968 90.79473591 70.50336456 C88.98982045 73.94717312 86.74596462 76.94357147 84.35723591 80.00336456 C83.7205196 80.83634064 83.08380329 81.66931671 82.42779255 82.52753448 C73.56233909 93.90842214 63.62756993 103.05210567 48.79473591 105.50336456 C46.96343056 105.58904838 45.12943235 105.62540419 43.29612446 105.62361908 C42.20382526 105.62499374 41.11152607 105.62636841 39.9861269 105.62778473 C38.79785801 105.62418945 37.60958912 105.62059418 36.38531208 105.61688995 C34.49690098 105.61710899 34.49690098 105.61710899 32.57034016 105.61733246 C29.12651685 105.61761892 25.6827285 105.61174657 22.2389133 105.6047585 C18.63677985 105.59849986 15.03464556 105.59791918 11.43250751 105.59673309 C4.61509261 105.59362718 -2.20230622 105.58542377 -9.01971406 105.5753836 C-16.78267887 105.56419949 -24.54564446 105.55870622 -32.30861533 105.55368817 C-48.27417422 105.54324054 -64.23971708 105.52565543 -80.20526409 105.50336456 C-78.80479752 102.63730264 -77.30349774 100.121212 -75.40448284 97.55414581 C-74.56747845 96.41936798 -74.56747845 96.41936798 -73.71356487 95.26166534 C-73.11270061 94.45455109 -72.51183636 93.64743683 -71.89276409 92.81586456 C-71.26611858 91.97007843 -70.63947308 91.1242923 -69.99383831 90.25287628 C-64.38643233 82.7043909 -58.68266763 75.23174803 -52.95184612 67.77680206 C-44.03074602 56.16465723 -35.17185548 44.51435521 -26.51874065 32.70087433 C-20.06141383 23.90558169 -13.42919896 15.24392867 -6.79242229 6.58368683 C-5.1852377 4.54736413 -5.1852377 4.54736413 -3.90760612 2.40509033 C-2.20526409 0.50336456 -2.20526409 0.50336456 0 0 Z M28.57598591 35.80805206 C27.11867368 38.51258776 27.11867368 38.51258776 26.79473591 41.50336456 C30.69042726 41.59069182 34.58586573 41.64386642 38.48223591 41.69086456 C40.13642536 41.72856964 40.13642536 41.72856964 41.82403278 41.76703644 C43.42408161 41.78153839 43.42408161 41.78153839 45.05645466 41.79633331 C46.03573933 41.81204376 47.01502399 41.82775421 48.02398396 41.84394073 C53.4269603 41.17981597 56.58423762 37.96576718 60.04473591 34.00336456 C60.73051716 33.22992706 61.41629841 32.45648956 62.12286091 31.65961456 C63.9738805 29.51826223 63.9738805 29.51826223 64.79473591 26.50336456 C63.16131583 23.33617514 63.16131583 23.33617514 60.55498981 22.90888214 C45.30113405 21.47874955 36.64509719 21.98305759 28.57598591 35.80805206 Z M-3.20526409 78.46820831 C-4.62706241 80.86306983 -4.62706241 80.86306983 -5.20526409 83.50336456 C-1.33040774 83.59087869 2.54419234 83.64392891 6.41973591 83.69086456 C7.51414997 83.71600128 8.60856403 83.741138 9.73614216 83.76703644 C17.73698749 83.92063376 17.73698749 83.92063376 24.79473591 80.50336456 C26.59084293 78.45184783 28.13217073 76.5359204 29.66973591 74.31586456 C30.07192341 73.75705597 30.47411091 73.19824738 30.88848591 72.62250519 C31.86850487 71.25747877 32.83324364 69.88150349 33.79473591 68.50336456 C33.13473591 67.18336456 32.47473591 65.86336456 31.79473591 64.50336456 C14.70818424 62.05914578 5.69411342 62.92019042 -3.20526409 78.46820831 Z " fill="#0032A1" transform="translate(386.2052640914917,64.49663543701172)"/>
<path d="M0 0 C2.13798624 -0.00202513 4.27597179 -0.00494021 6.41395569 -0.00869751 C10.86759092 -0.01309348 15.32104428 -0.00677381 19.7746582 0.00732422 C25.47289058 0.02448757 31.17070117 0.01451243 36.86891842 -0.00339317 C41.27247794 -0.01424277 45.67593765 -0.01078049 50.0795002 -0.0030098 C52.18098565 -0.00101483 54.28248028 -0.00344224 56.383955 -0.01044846 C59.3173308 -0.01809035 62.25002448 -0.00642342 65.18334961 0.01025391 C66.04320969 0.00418121 66.90306976 -0.00189148 67.78898621 -0.00814819 C74.6087655 0.06346844 79.27918678 1.37208051 84.59765625 5.8984375 C87.27219981 9.521147 87.49426541 13.09199852 87.24609375 17.5 C86.12397416 23.05075159 83.05122278 26.95892528 79.66015625 31.3984375 C78.94351807 32.33937256 78.94351807 32.33937256 78.21240234 33.29931641 C75.35116223 37.04230557 72.45454238 40.75617542 69.5390625 44.45703125 C65.53206611 49.54749502 61.58759507 54.68393609 57.66015625 59.8359375 C56.99234131 60.70943848 56.32452637 61.58293945 55.63647461 62.48291016 C52.32758437 66.82715636 49.06646076 71.19690611 45.88671875 75.63671875 C35.57574554 90.02534517 25.71901388 102.23332662 7.27197266 105.45410156 C-2.4080397 106.88718411 -12.125164 106.70691679 -21.890625 106.69921875 C-23.96038396 106.7031136 -26.03014213 106.70744987 -28.09989929 106.71220398 C-32.41403816 106.71962318 -36.7280951 106.71940443 -41.04223633 106.71411133 C-46.55765928 106.70829456 -52.07274884 106.72532179 -57.58811665 106.748456 C-61.85273685 106.76320875 -66.11727676 106.76406341 -70.38191795 106.76094627 C-72.41559705 106.76145779 -74.44928084 106.76666349 -76.48293495 106.77675819 C-79.32518769 106.78914781 -82.16679024 106.78231791 -85.0090332 106.77075195 C-85.83881683 106.77839569 -86.66860046 106.78603943 -87.52352905 106.79391479 C-93.09846327 106.74398209 -97.25411253 105.73084804 -102.33984375 103.3984375 C-105.8828334 99.67375607 -107.51416807 96.93197571 -107.77734375 91.8359375 C-107.83792969 91.03027344 -107.89851563 90.22460938 -107.9609375 89.39453125 C-106.2703092 81.23911044 -98.83129428 73.98497278 -93.83984375 67.5234375 C-88.6019507 60.6987426 -83.42188399 53.83995747 -78.33984375 46.8984375 C-76.00971832 43.72939992 -73.67549231 40.56340604 -71.33984375 37.3984375 C-70.67388184 36.49432129 -70.00791992 35.59020508 -69.32177734 34.65869141 C-67.23428717 31.83466893 -65.13251999 29.02179254 -63.02734375 26.2109375 C-62.07698242 24.91929688 -62.07698242 24.91929688 -61.10742188 23.6015625 C-51.377489 10.68894131 -40.64204269 3.2991238 -24.56946945 0.6765976 C-16.44972798 -0.33639219 -8.1663273 -0.0274396 0 0 Z M-10.18432617 33.23510742 C-10.75127197 33.99025635 -11.31821777 34.74540527 -11.90234375 35.5234375 C-12.50731689 36.31532471 -13.11229004 37.10721191 -13.7355957 37.9230957 C-19.01563115 44.87275099 -24.14053209 51.93389563 -29.203125 59.04296875 C-31.29760748 61.97603039 -33.43992374 64.86245157 -35.6328125 67.72265625 C-36.15206299 68.40626221 -36.67131348 69.08986816 -37.20629883 69.79418945 C-38.18675047 71.08056612 -39.17699964 72.35955447 -40.1784668 73.62963867 C-42.71133717 76.83673224 -42.71133717 76.83673224 -43.19140625 80.75 C-42.45032559 82.38918739 -42.45032559 82.38918739 -41.33984375 83.3984375 C-38.286309 83.67760815 -35.2171167 83.63028933 -32.15234375 83.6484375 C-31.30091797 83.6690625 -30.44949219 83.6896875 -29.57226562 83.7109375 C-23.28560108 83.74983411 -18.93168358 82.95100703 -14.27734375 78.3671875 C-13.63796875 77.5525 -12.99859375 76.7378125 -12.33984375 75.8984375 C-11.57027344 74.91875 -10.80070313 73.9390625 -10.0078125 72.9296875 C-4.99736985 66.33830778 -0.10485807 59.65958002 4.77685547 52.97265625 C8.5716457 47.78568863 12.3974867 42.62150899 16.2175293 37.453125 C16.77093994 36.70289063 17.32435059 35.95265625 17.89453125 35.1796875 C18.38147461 34.52033203 18.86841797 33.86097656 19.37011719 33.18164062 C22.23535464 29.27191102 22.23535464 29.27191102 22.66015625 24.3984375 C19.05519495 22.59595685 14.88017277 23.1281119 10.91015625 23.0859375 C10.01554688 23.05693359 9.1209375 23.02792969 8.19921875 22.99804688 C-0.73025658 22.91243981 -4.86700026 26.3471639 -10.18432617 33.23510742 Z " fill="#0032A1" transform="translate(601.33984375,64.6015625)"/>
<path d="M0 0 C0.95684189 -0.0049649 1.91368378 -0.00992981 2.89952087 -0.01504517 C6.05216195 -0.02960323 9.20475277 -0.03645666 12.35742188 -0.04199219 C14.55407716 -0.04774699 16.75073243 -0.05350469 18.9473877 -0.05926514 C23.54712151 -0.06975571 28.14683794 -0.07561171 32.74658203 -0.07910156 C38.63791053 -0.08459521 44.52900897 -0.10865013 50.4202652 -0.13707352 C54.95502394 -0.15569881 59.48972711 -0.16090535 64.02452087 -0.16243744 C66.19662235 -0.16546257 68.36872288 -0.17348635 70.54078674 -0.18662262 C73.57815112 -0.20368745 76.61495082 -0.20180214 79.65234375 -0.1953125 C80.99443153 -0.20913467 80.99443153 -0.20913467 82.3636322 -0.22323608 C87.43682949 -0.18930124 90.93769993 0.33120431 95.32617188 3.16113281 C99.27908345 7.54138618 100.86094782 10.49932259 100.80273438 16.52441406 C99.84868725 21.8029535 96.52556445 25.97004659 93.32617188 30.16113281 C92.97880981 30.74789291 92.63144775 31.33465302 92.27355957 31.93919373 C90.08251329 35.18610244 88.44912825 36.91271852 84.54666138 37.77600098 C81.02892214 37.97207987 77.5745165 37.94752795 74.05273438 37.84472656 C72.77385345 37.83482193 71.49497253 37.8249173 70.17733765 37.81471252 C66.79265758 37.78223091 63.4113368 37.71946972 60.02758789 37.64178467 C56.56881603 37.56990484 53.10969564 37.53814898 49.65039062 37.50292969 C42.87472882 37.42583517 36.10064411 37.30876158 29.32617188 37.16113281 C33.07617188 30.41113281 33.07617188 30.41113281 35.32617188 28.16113281 C35.96869538 26.09239247 35.96869538 26.09239247 36.32617188 24.16113281 C32.76382759 24.07372157 29.2017608 24.02060385 25.63867188 23.97363281 C24.63126953 23.94849609 23.62386719 23.92335938 22.5859375 23.89746094 C15.37526202 23.68565908 15.37526202 23.68565908 9.32617188 27.16113281 C7.03507578 29.72434701 4.95479814 32.41474643 2.88867188 35.16113281 C2.28249023 35.95350342 1.67630859 36.74587402 1.05175781 37.56225586 C-3.93386765 44.10669278 -8.82840877 50.72089363 -13.66992188 57.37255859 C-16.3141641 61.00009066 -18.98091922 64.58569819 -21.81054688 68.07128906 C-22.52452637 68.95820435 -22.52452637 68.95820435 -23.25292969 69.86303711 C-24.51516049 71.41768623 -25.79497698 72.95801211 -27.07617188 74.49707031 C-28.96368392 77.05441662 -28.96368392 77.05441662 -28.42773438 80.01269531 C-28.17894531 80.72167969 -27.93015625 81.43066406 -27.67382812 82.16113281 C-24.81907506 82.24269719 -21.96669248 82.30189653 -19.11132812 82.34863281 C-18.31146484 82.37376953 -17.51160156 82.39890625 -16.6875 82.42480469 C-11.33944182 82.49029111 -7.38827852 81.96051375 -2.67382812 79.16113281 C-0.46947769 76.9321972 1.29460114 74.48451276 3.07617188 71.91113281 C3.52476563 71.28722656 3.97335937 70.66332031 4.43554688 70.02050781 C4.90992188 69.36050781 5.38429688 68.70050781 5.87304688 68.02050781 C6.42629639 67.3032251 6.9795459 66.58594238 7.54956055 65.84692383 C9.0404622 63.59305423 9.90644828 61.77733975 10.87817383 59.30151367 C13.1125075 54.40360333 15.49441701 50.76382121 20.32617188 48.16113281 C31.4259379 45.70794942 43.17905649 46.6799439 54.45794678 47.13116455 C58.72736772 47.28563576 62.99811155 47.35332963 67.26953125 47.42871094 C75.62540504 47.58878281 83.9747839 47.84415527 92.32617188 48.16113281 C81.84957082 66.649746 81.84957082 66.649746 75.32617188 72.16113281 C71.48892843 73.11017268 68.4740845 72.99566563 64.54882812 72.77832031 C61.15477868 72.86640847 61.15477868 72.86640847 58.75976562 75.48144531 C56.48550196 78.63772776 54.40630345 81.87444658 52.32617188 85.16113281 C43.27717716 96.55557625 32.98769171 103.98983716 18.2154541 105.69866943 C13.43836517 106.20473271 8.71073117 106.3157461 3.91015625 106.32226562 C2.56924675 106.32971298 2.56924675 106.32971298 1.20124817 106.33731079 C-1.72586869 106.35179455 -4.65293148 106.35870916 -7.58007812 106.36425781 C-8.58661942 106.36708519 -9.59316071 106.36991257 -10.63020325 106.37282562 C-15.95089984 106.3877578 -21.27156971 106.3970265 -26.59228516 106.40136719 C-32.06958928 106.40686067 -37.54664595 106.43092439 -43.02387238 106.45933914 C-47.25507313 106.47800678 -51.48621455 106.4831732 -55.717453 106.48470306 C-57.73635723 106.48771789 -59.7552607 106.49570662 -61.77412415 106.50888824 C-64.60221033 106.52604462 -67.42969464 106.52404582 -70.2578125 106.51757812 C-71.0809343 106.52679291 -71.90405609 106.53600769 -72.75212097 106.54550171 C-78.40736573 106.50522079 -83.52787261 105.60568022 -88.67382812 103.16113281 C-92.25988984 99.48541955 -93.84887498 96.68068013 -94.11132812 91.59863281 C-94.17191406 90.79296875 -94.2325 89.98730469 -94.29492188 89.15722656 C-92.60431569 81.00191247 -85.16533636 73.74749184 -80.17382812 67.28613281 C-74.88899832 60.40244388 -69.66996192 53.47992704 -64.54882812 46.47363281 C-59.86055979 40.07506062 -55.0975778 33.74194927 -50.23632812 27.47363281 C-49.68122559 26.7553833 -49.12612305 26.03713379 -48.55419922 25.29711914 C-35.23166847 8.21700279 -22.20952302 0.02774831 0 0 Z " fill="#0032A1" transform="translate(1170.673828125,64.8388671875)"/>
<path d="M0 0 C0.99033234 0.01131958 1.98066467 0.02263916 3.00100708 0.03430176 C6.15111215 0.0789378 9.29659374 0.179275 12.4453125 0.28125 C14.58587156 0.32139358 16.72650228 0.35789281 18.8671875 0.390625 C24.10312874 0.47862836 29.33639038 0.6123304 34.5703125 0.78125 C36.69590006 6.81861902 38.40081367 12.84187789 39.796875 19.0859375 C39.99002289 19.9317337 40.18317078 20.77752991 40.38217163 21.6489563 C40.99077376 24.31711518 41.5933575 26.98658442 42.1953125 29.65625 C42.80546608 32.34708502 43.41689809 35.03762085 44.02987671 37.72781372 C44.40905352 39.39346402 44.78642525 41.05952652 45.16177368 42.7260437 C45.85795735 45.79599032 46.57413672 48.79272266 47.5703125 51.78125 C47.92109863 51.29994629 48.27188477 50.81864258 48.63330078 50.32275391 C55.74632789 40.57834456 62.92274429 30.90137558 70.42236328 21.44970703 C70.95071777 20.7792334 71.47907227 20.10875977 72.0234375 19.41796875 C72.58885254 18.72380859 73.15426758 18.02964844 73.73681641 17.31445312 C75.21758467 15.26858741 76.34549933 13.37480106 77.50927734 11.15429688 C82.73181117 1.75410758 82.73181117 1.75410758 87.68530273 0.05636597 C93.67792746 -0.9588947 99.66372441 -0.49723344 105.6953125 -0.09375 C107.52840705 -0.02342088 109.36176183 0.04043953 111.1953125 0.09765625 C115.66013834 0.25096893 120.11232888 0.49177054 124.5703125 0.78125 C123.34848961 4.12719827 122.0317208 6.76300875 119.8046875 9.5390625 C119.25167969 10.23708984 118.69867187 10.93511719 118.12890625 11.65429688 C117.23365234 12.76901367 117.23365234 12.76901367 116.3203125 13.90625 C111.27866089 20.27877237 106.35785683 26.71566867 101.5703125 33.28125 C97.00422841 39.53058309 92.34768601 45.6919311 87.5703125 51.78125 C82.2434667 58.57360848 77.07991972 65.46802362 71.98291016 72.43408203 C67.37030893 78.72611001 62.67585099 84.9524682 57.9453125 91.15625 C57.27000488 92.04223877 56.59469727 92.92822754 55.89892578 93.84106445 C54.12802464 96.15873636 52.35735576 98.47600011 50.5703125 100.78125 C50.06032715 101.68721924 49.5503418 102.59318848 49.02490234 103.52661133 C45.10736373 107.12502679 41.02575141 106.40143225 35.8984375 106.26953125 C34.97853027 106.26449585 34.05862305 106.25946045 33.11083984 106.25427246 C29.68034624 106.22814693 26.25029751 106.15833944 22.8203125 106.09375 C15.1478125 105.990625 7.4753125 105.8875 -0.4296875 105.78125 C-5.8746875 82.02125 -5.8746875 82.02125 -11.4296875 57.78125 C-12.0896875 57.78125 -12.7496875 57.78125 -13.4296875 57.78125 C-15.00548686 59.47051444 -15.00548686 59.47051444 -16.6328125 61.70703125 C-17.27686035 62.5575708 -17.9209082 63.40811035 -18.58447266 64.28442383 C-19.27589355 65.21150146 -19.96731445 66.1385791 -20.6796875 67.09375 C-21.74582275 68.50853638 -21.74582275 68.50853638 -22.83349609 69.9519043 C-29.19142123 78.40818487 -35.47626039 86.91929796 -41.71728516 95.4621582 C-42.28237793 96.2274585 -42.8474707 96.99275879 -43.4296875 97.78125 C-43.82562103 98.44623505 -44.22155457 99.11122009 -44.62948608 99.7963562 C-48.20188421 105.36822685 -48.20188421 105.36822685 -51.50668335 106.47993469 C-53.96416315 106.70615622 -56.30078167 106.68308777 -58.765625 106.5625 C-59.64497711 106.55118042 -60.52432922 106.53986084 -61.43032837 106.52819824 C-64.22404986 106.48360453 -67.012533 106.38329047 -69.8046875 106.28125 C-71.70435265 106.24110027 -73.60409872 106.20460209 -75.50390625 106.171875 C-80.14783489 106.08392671 -84.78787499 105.94601058 -89.4296875 105.78125 C-86.29268534 100.96987294 -83.17603125 96.27194896 -79.4296875 91.90625 C-75.38075737 87.03942246 -71.6021377 82.0172894 -67.8671875 76.90625 C-62.79829678 69.97038236 -57.6535422 63.10119497 -52.4296875 56.28125 C-47.3160815 49.60291864 -42.27055843 42.88263302 -37.3046875 36.09375 C-31.09552397 27.60937154 -24.68141318 19.29740055 -18.17382812 11.0402832 C-16.43235242 8.8864189 -16.43235242 8.8864189 -15.2638855 6.77511597 C-11.09572935 0.13374504 -7.56356945 -0.3275829 0 0 Z " fill="#0032A1" transform="translate(984.4296875,64.21875)"/>
<path d="M0 0 C2.55677659 0.03736686 5.11369774 0.06580578 7.67066956 0.08575439 C13.677331 0.15391869 19.67508132 0.31088423 25.67819029 0.51274419 C32.52136208 0.73776183 39.36492604 0.84660767 46.21088684 0.94665289 C60.27098643 1.15467902 74.32453635 1.50550756 88.37890625 1.953125 C87.03884318 5.43173444 85.66546279 8.17547412 83.375 11.125 C82.51165039 12.24455078 82.51165039 12.24455078 81.63085938 13.38671875 C81.03208984 14.15113281 80.43332031 14.91554688 79.81640625 15.703125 C78.91245117 16.87294922 78.91245117 16.87294922 77.99023438 18.06640625 C73.60269365 23.7293376 73.60269365 23.7293376 72.37890625 24.953125 C70.568356 25.04688553 68.75413424 25.0705661 66.94116211 25.06665039 C65.78003403 25.06657486 64.61890594 25.06649933 63.42259216 25.06642151 C61.52731529 25.05867958 61.52731529 25.05867958 59.59375 25.05078125 C58.30779434 25.0493663 57.02183868 25.04795135 55.69691467 25.04649353 C52.27247182 25.04266918 48.84807116 25.03283962 45.42364502 25.02178955 C41.93152436 25.01157364 38.43939691 25.00699553 34.94726562 25.00195312 C28.09112847 24.99121727 21.23501938 24.97414184 14.37890625 24.953125 C13.71890625 26.273125 13.05890625 27.593125 12.37890625 28.953125 C9.07890625 33.573125 5.77890625 38.193125 2.37890625 42.953125 C20.85890625 42.953125 39.33890625 42.953125 58.37890625 42.953125 C54.71358104 48.45111281 51.1173848 53.77034634 47.06640625 58.953125 C46.40415039 59.80970703 46.40415039 59.80970703 45.72851562 60.68359375 C42.55016121 64.78187004 42.55016121 64.78187004 41.37890625 65.953125 C39.568356 66.04688553 37.75413424 66.0705661 35.94116211 66.06665039 C34.78003403 66.06657486 33.61890594 66.06649933 32.42259216 66.06642151 C30.52731529 66.05867958 30.52731529 66.05867958 28.59375 66.05078125 C27.30779434 66.0493663 26.02183868 66.04795135 24.69691467 66.04649353 C21.27247182 66.04266918 17.84807116 66.03283962 14.42364502 66.02178955 C10.93152436 66.01157364 7.43939691 66.00699553 3.94726562 66.00195312 C-2.90887153 65.99121727 -9.76498062 65.97414184 -16.62109375 65.953125 C-17.61109375 67.933125 -17.61109375 67.933125 -18.62109375 69.953125 C-21.92109375 74.573125 -25.22109375 79.193125 -28.62109375 83.953125 C-10.47109375 84.283125 7.67890625 84.613125 26.37890625 84.953125 C25.38890625 86.933125 25.38890625 86.933125 24.37890625 88.953125 C24.04970342 89.63904661 23.72050058 90.32496822 23.38132191 91.03167534 C19.99588933 97.73593192 16.03423122 105.20079898 8.67528915 107.97080231 C0.76709171 109.51212286 -7.25903166 109.01817016 -15.265625 108.7109375 C-17.84770289 108.6773192 -20.42989646 108.65171857 -23.01213074 108.63375854 C-29.08512818 108.57234147 -35.1512867 108.43095105 -41.2217223 108.24946773 C-48.14003141 108.04719563 -55.05864795 107.94904773 -61.97918475 107.8589499 C-76.19632427 107.67156006 -90.40849747 107.35565028 -104.62109375 106.953125 C-100.27268034 99.27073526 -100.27268034 99.27073526 -97.66015625 96 C-97.11375488 95.30865967 -96.56735352 94.61731934 -96.00439453 93.9050293 C-95.42415527 93.17840088 -94.84391602 92.45177246 -94.24609375 91.703125 C-89.29885878 85.42802988 -84.46034588 79.09259516 -79.74609375 72.640625 C-74.79711549 65.87592982 -69.77457134 59.17414439 -64.68359375 52.515625 C-59.44466543 45.66321521 -54.22918406 38.7947776 -49.05859375 31.890625 C-48.52721644 31.20482298 -47.99583914 30.51902096 -47.44835949 29.81243706 C-44.19105844 25.56050243 -41.19411688 21.33779737 -38.54942322 16.67633057 C-28.52996823 -0.11954533 -18.57045685 -0.80229991 0 0 Z " fill="#0032A1" transform="translate(760.62109375,63.046875)"/>
<path d="M0 0 C1.02148132 0.01110306 2.04296265 0.02220612 3.09539795 0.03364563 C4.83675018 0.03421211 4.83675018 0.03421211 6.61328125 0.03479004 C8.48533234 0.07349968 8.48533234 0.07349968 10.39520264 0.11299133 C11.67691345 0.12006607 12.95862427 0.12714081 14.2791748 0.13442993 C17.67939379 0.15348024 21.07853721 0.20256069 24.47833252 0.25794983 C27.95047455 0.3091868 31.42279117 0.33195325 34.89520264 0.35713196 C41.7029349 0.41068384 48.50995457 0.49597087 55.31707764 0.60127258 C53.17568929 4.43929496 51.10426141 8.11390217 48.35614014 11.55439758 C47.80925537 12.24638245 47.26237061 12.93836731 46.69891357 13.65132141 C45.82927979 14.74029724 45.82927979 14.74029724 44.94207764 15.85127258 C39.8647513 22.28902765 34.90755857 28.79605237 30.06707764 35.41377258 C25.05631521 42.25623485 19.96178135 49.01450912 14.76922607 55.72041321 C4.68509552 68.78163409 -5.23654147 81.95808395 -14.97052002 95.28218079 C-15.53561279 96.04748108 -16.10070557 96.81278137 -16.68292236 97.60127258 C-17.0306369 98.26625763 -17.37835144 98.93124268 -17.73660278 99.61637878 C-19.19276178 102.08672261 -20.45734026 103.77858934 -22.68292236 105.60127258 C-27.18570166 106.71904591 -31.56002649 106.53380897 -36.17510986 106.38252258 C-37.47618683 106.371203 -38.77726379 106.35988342 -40.11776733 106.34822083 C-43.56147297 106.31780904 -47.00243865 106.23935624 -50.44506836 106.15058899 C-53.96408013 106.06845127 -57.48353891 106.0321508 -61.00323486 105.99189758 C-67.89758308 105.90633963 -74.79012089 105.76997517 -81.68292236 105.60127258 C-80.75042747 104.1865434 -79.81574928 102.77325318 -78.88018799 101.36054993 C-78.35993042 100.57336578 -77.83967285 99.78618164 -77.3036499 98.97514343 C-74.76560653 95.25768505 -71.98019833 91.75026436 -69.18292236 88.22627258 C-64.28192826 81.99024299 -59.48921565 75.69133625 -54.80792236 69.28877258 C-48.4132867 60.54704897 -41.86637574 51.92818912 -35.28839111 43.32392883 C-32.56693161 39.76391657 -29.86419341 36.1916222 -27.18292236 32.60127258 C-22.94446123 26.93078769 -18.65903168 21.29640142 -14.37042236 15.66377258 C-13.67561768 14.7504718 -12.98081299 13.83717102 -12.26495361 12.89619446 C-11.60237549 12.0267218 -10.93979736 11.15724915 -10.25714111 10.26142883 C-9.66505859 9.48420471 -9.07297607 8.70698059 -8.46295166 7.90620422 C-7.87554199 7.14557678 -7.28813232 6.38494934 -6.68292236 5.60127258 C-6.10538712 4.74044067 -5.52785187 3.87960876 -4.93281555 2.99269104 C-2.68292236 0.60127258 -2.68292236 0.60127258 0 0 Z " fill="#0032A1" transform="translate(883.6829223632813,64.39872741699219)"/>
</svg>
