<?xml version="1.0" encoding="UTF-8"?>
<svg version="1.1" xmlns="http://www.w3.org/2000/svg" width="512" height="512">
<path d="M0 0 C0.66 0.33 1.32 0.66 2 1 C-3.46401753 6.06240696 -8.94406193 11.01698116 -14.75 15.6875 C-18.50787874 18.72045462 -21.97285775 21.84897438 -25.32421875 25.3203125 C-27.14344456 27.14377893 -29.04767911 28.82018279 -31 30.5 C-34.20112937 33.25789607 -37.18222565 36.15572095 -40.13867188 39.17163086 C-41.86882701 40.87114973 -43.64899446 42.43838042 -45.5 44.00390625 C-51.10157315 48.87366097 -56.27769827 54.17006096 -61.5 59.4375 C-62.52320139 60.4657298 -63.54663733 61.49372626 -64.5703125 62.52148438 C-67.04957999 65.01164338 -69.52567538 67.50492833 -72 70 C-69.03346498 72.99806134 -66.13084537 75.78938762 -62.75 78.3125 C-55.06107448 84.2133033 -48.12039039 90.47409198 -42 98 C-40.84177734 99.40185547 -40.84177734 99.40185547 -39.66015625 100.83203125 C-14.57370297 131.85280921 -4.23295606 171.23964569 -7.96679688 210.63427734 C-9.66956364 226.30026039 -14.28246099 240.36888192 -20 255 C35.86102275 280.98822455 102.96538471 286.33771802 163.66796875 290.80859375 C164.54020584 290.87324829 165.41244293 290.93790283 166.31111145 291.0045166 C170.44785019 291.30906712 174.58481964 291.6022906 178.72387695 291.87353516 C188.97155055 292.57660639 198.92135842 294.02174765 209 296 C209 296.99 209 297.98 209 299 C181.65965662 300.46637978 154.31404132 301.70538752 126.9571681 302.81822062 C123.78397366 302.94742839 120.61080385 303.07722585 117.43764114 303.20721054 C106.30649314 303.66316762 95.17526254 304.11704109 84.04394531 304.56884766 C73.7556656 304.98649313 63.46758823 305.40889206 53.17959058 305.83342373 C44.24958686 306.20170501 35.31945081 306.56665275 26.38920748 306.92907703 C21.09668195 307.14392305 15.80421632 307.36003413 10.51188278 307.57956314 C5.5490394 307.78531346 0.58604154 307.98685565 -4.37709618 308.18537521 C-6.1776582 308.25807069 -7.97816439 308.33216771 -9.77860069 308.40791321 C-14.67351004 308.61337653 -19.56732545 308.78003884 -24.4647603 308.91162729 C-27.22120407 309.00771067 -29.97106284 309.16678172 -32.72465134 309.32409286 C-34.6257246 309.39906756 -36.52686417 309.47238222 -38.42807007 309.54391479 C-39.31125243 309.60830753 -40.19443479 309.67270027 -41.10438025 309.73904431 C-43.64511607 309.80673338 -45.58009465 309.78821387 -48 309 C-50.26219839 306.58486558 -51.67895221 304.01962667 -53 301 C-53.43908691 301.49081055 -53.87817383 301.98162109 -54.33056641 302.48730469 C-76.78417191 327.11736117 -113.97521668 340.55444561 -146.60644531 342.12548828 C-178.73762515 343.25002307 -208.60055424 336.00501208 -235.890625 318.91796875 C-238.238916 317.46946262 -240.52857248 316.20463713 -243 315 C-253.53408593 345.57005697 -253.53408593 345.57005697 -249.33203125 376.79296875 C-246.54198786 381.41576792 -243.01495919 383.99252041 -238.25 386.375 C-217.95089901 390.27867327 -197.56033806 378.54241329 -181.25390625 367.51171875 C-174.70807365 362.95701731 -168.48132748 358.07120407 -162.40234375 352.91015625 C-160.03580914 351.02847263 -157.62543883 349.49289659 -155 348 C-157.36570407 354.95644871 -162.44970023 360.3522195 -167 366 C-167.44053711 366.54785156 -167.88107422 367.09570312 -168.33496094 367.66015625 C-189.85075154 394.21496101 -218.40177613 418.43151653 -253.5 422.8125 C-260.67488479 423.3109001 -267.73037072 422.57193716 -274.25 419.4375 C-284.09548493 410.71082018 -290.27900333 400.59043711 -291.19287109 387.16699219 C-292.01464035 355.34210993 -285.32998321 326.08576073 -271.94384766 297.109375 C-270.74609247 294.42662978 -269.99071854 292.34496103 -270.0703125 289.38671875 C-271.25932219 286.3342611 -272.93026763 284.22795275 -275 281.6875 C-285.97965833 267.66667345 -293.27900727 251.45423267 -298.25 234.4375 C-298.49645264 233.59936768 -298.74290527 232.76123535 -298.99682617 231.89770508 C-302.47697017 219.44834103 -303.38222434 207.16988119 -303.3125 194.3125 C-303.30968018 193.5609967 -303.30686035 192.80949341 -303.30395508 192.03521729 C-303.0908149 154.20786168 -289.32871228 119.40423158 -263 92 C-262.10796875 91.04480469 -261.2159375 90.08960938 -260.296875 89.10546875 C-239.4078445 67.12691525 -211.67868601 53.48442989 -182 48 C-180.81921875 47.77570313 -179.6384375 47.55140625 -178.421875 47.3203125 C-149.11487687 42.60795377 -118.37535002 47.03708797 -91.75 60.09375 C-89.11562212 61.28872983 -89.11562212 61.28872983 -87.04980469 60.22021484 C-85.0698697 59.04159228 -83.27223685 57.79563283 -81.453125 56.3828125 C-80.78144287 55.86444824 -80.10976074 55.34608398 -79.41772461 54.81201172 C-78.70237549 54.25529785 -77.98702637 53.69858398 -77.25 53.125 C-75.715244 51.9421888 -74.18007831 50.75990904 -72.64453125 49.578125 C-71.86803223 48.97935547 -71.0915332 48.38058594 -70.29150391 47.76367188 C-51.81092712 33.53996777 -32.60495224 20.62312118 -13 8 C-12.25331055 7.51708496 -11.50662109 7.03416992 -10.73730469 6.53662109 C-8.89330868 5.34802126 -7.04276302 4.17090709 -5.1875 3 C-4.21167969 2.38125 -3.23585938 1.7625 -2.23046875 1.125 C-1.49441406 0.75375 -0.75835937 0.3825 0 0 Z M-240.84765625 97.9375 C-242.8050107 99.81315 -244.82758905 101.48938253 -246.9375 103.1875 C-266.84169834 120.59864724 -280.14420104 149.08544419 -284 175 C-284.16628906 176.08667969 -284.16628906 176.08667969 -284.3359375 177.1953125 C-288.4606352 210.08141581 -279.33606573 241.28268156 -261.19140625 268.62890625 C-260.79824219 269.08136719 -260.40507812 269.53382813 -260 270 C-259.34 270 -258.68 270 -258 270 C-257.44054687 268.89527344 -256.88109375 267.79054688 -256.3046875 266.65234375 C-242.25563635 239.25101219 -225.5079553 213.00485235 -206.43457031 188.82714844 C-204.66730594 186.57626236 -202.93597742 184.29938718 -201.20507812 182.02050781 C-191.72302403 169.56474631 -181.71278207 157.54337598 -171.47070312 145.70898438 C-170.00635112 144.00738012 -168.55596205 142.29484604 -167.109375 140.578125 C-154.95778674 126.18351263 -141.85956191 112.76767555 -128.5625 99.4375 C-127.95245117 98.82477234 -127.34240234 98.21204468 -126.71386719 97.58074951 C-114.57612113 85.40260416 -114.57612113 85.40260416 -108.46850586 80.35180664 C-106.74240508 78.86980333 -106.74240508 78.86980333 -105 76 C-149.99891253 58.59946964 -204.77290297 63.36336042 -240.84765625 97.9375 Z M-90.8359375 88.7890625 C-92.02200146 90.0617958 -93.20122011 91.34092892 -94.375 92.625 C-95.31557251 93.64400391 -95.31557251 93.64400391 -96.27514648 94.68359375 C-101.82460341 100.73168127 -107.17046508 106.94033554 -112.47167969 113.20556641 C-114.63034767 115.74010469 -116.8184627 118.2485269 -119.00610352 120.75805664 C-128.15438875 131.25593645 -136.89018617 142.04913466 -145.45507812 153.02539062 C-147.09435043 155.12059201 -148.74219937 157.2088692 -150.390625 159.296875 C-157.74056065 168.63633586 -164.76154852 178.14095357 -171.53662109 187.90429688 C-172.99564051 189.99375678 -174.47277846 192.06902869 -175.95703125 194.140625 C-183.64228497 204.88080806 -190.91348806 215.85650225 -198 227 C-198.79857422 228.25272705 -198.79857422 228.25272705 -199.61328125 229.53076172 C-210.91069032 247.31868349 -221.3553263 265.6056693 -230.9375 284.375 C-231.36893311 285.20717041 -231.80036621 286.03934082 -232.24487305 286.89672852 C-232.62683838 287.66041748 -233.00880371 288.42410645 -233.40234375 289.2109375 C-233.90495728 290.20552979 -233.90495728 290.20552979 -234.41772461 291.22021484 C-235.26257657 293.20483376 -235.26257657 293.20483376 -234 296 C-232.06797756 297.50806767 -230.19105918 298.8243057 -228.125 300.125 C-227.20037964 300.70942871 -227.20037964 300.70942871 -226.25708008 301.30566406 C-195.37877728 320.29949491 -160.14007158 326.5334421 -124.71240234 318.47998047 C-103.3274525 313.17051544 -83.91989364 303.31686737 -68 288 C-66.02655865 286.29711109 -64.01987315 284.64779125 -62 283 C-63.51078999 279.02269928 -65.32541766 275.28508754 -67.2734375 271.50390625 C-67.5932962 270.88233139 -67.91315491 270.26075653 -68.2427063 269.62034607 C-69.28403526 267.59962085 -70.329214 265.58092177 -71.375 263.5625 C-71.73215088 262.87148193 -72.08930176 262.18046387 -72.45727539 261.46850586 C-78.38003824 250.01376859 -84.47668723 238.66388736 -90.70117188 227.37011719 C-93.85737608 221.61063779 -96.92632449 215.80382258 -100 210 C-99.67 209.67 -99.34 209.34 -99 209 C-98.41476563 209.57105469 -97.82953125 210.14210938 -97.2265625 210.73046875 C-81.67830767 225.41493165 -63.82836364 236.01854142 -45 246 C-44.29407715 246.38776611 -43.5881543 246.77553223 -42.86083984 247.17504883 C-40.88215438 248.20264069 -40.88215438 248.20264069 -38 248 C-24.45507458 217.19084587 -21.18602535 183.16424212 -33.13671875 151.18847656 C-38.86873909 136.65741595 -45.93307343 123.94843947 -56 112 C-56.45487793 111.45021484 -56.90975586 110.90042969 -57.37841797 110.33398438 C-65.32545171 100.82193376 -75.02578756 91.91366571 -86 86 C-88.42527743 85.76627004 -88.42527743 85.76627004 -90.8359375 88.7890625 Z " fill="#105EAB" transform="translate(303,45)"/>
<path d="" fill="#0000FF" transform="translate(0,0)"/>
</svg>
