<?xml version="1.0" encoding="UTF-8"?>
<svg version="1.1" xmlns="http://www.w3.org/2000/svg" width="900" height="427">
<path d="M0 0 C297 0 594 0 900 0 C900 140.91 900 281.82 900 427 C603 427 306 427 0 427 C0 286.09 0 145.18 0 0 Z " fill="#FEFEFE" transform="translate(0,0)"/>
<path d="M0 0 C2.41317632 0.01605864 4.82466732 0.00005829 7.23779297 -0.01904297 C21.63261164 -0.03941696 35.77635265 1.75088829 49.54638672 6.07861328 C50.78146973 6.46098145 50.78146973 6.46098145 52.04150391 6.85107422 C71.63625268 13.12769294 89.06940404 22.81270456 104.54638672 36.39111328 C105.39716797 37.10912109 106.24794922 37.82712891 107.12451172 38.56689453 C126.73436551 55.49994313 139.94961903 78.87193498 147.54638672 103.39111328 C147.86349609 104.41076172 148.18060547 105.43041016 148.50732422 106.48095703 C151.9671531 118.41907944 152.83618796 130.07178764 152.7734375 142.44091797 C152.77287209 144.01902255 152.77319248 145.59712766 152.77432251 147.17523193 C152.77489196 151.42236689 152.76320434 155.66938688 152.74917459 159.91649532 C152.73659862 164.36874228 152.73549136 168.82099241 152.73312378 173.27325439 C152.72692907 181.68771377 152.71054567 190.10212063 152.6904248 198.51655698 C152.66800298 208.10310254 152.65705662 217.68965073 152.64703393 227.27621603 C152.62617748 246.98121099 152.59104091 266.68615881 152.54638672 286.39111328 C138.46898196 290.52651094 124.37870377 294.59660218 110.22998047 298.48095703 C108.55226288 298.94305124 106.87459109 299.40531176 105.19696045 299.86772156 C101.64008412 300.84776239 98.08291067 301.82671391 94.52548218 302.80474854 C88.84938319 304.36530073 83.17403391 305.92856779 77.4987793 307.4921875 C69.53247992 309.68679336 61.56591067 311.8804165 53.59912109 314.07324219 C35.23569326 319.12783589 16.87358166 324.18720448 -1.48759079 329.24998474 C-3.34180373 329.76125124 -5.19602382 330.27249183 -7.05025101 330.78370667 C-31.88120785 337.62980944 -56.70029721 344.51531867 -81.49897766 351.47756958 C-93.9120282 354.96231652 -106.32957879 358.43061116 -118.75317383 361.87759399 C-120.86557382 362.46404725 -122.9777214 363.05141051 -125.08959961 363.63973999 C-127.97067287 364.44215638 -130.85262971 365.24131383 -133.73486328 366.03955078 C-134.59354004 366.2793718 -135.4522168 366.51919281 -136.33691406 366.76628113 C-142.22495349 368.39111328 -142.22495349 368.39111328 -144.45361328 368.39111328 C-144.52219105 337.97852403 -144.57521432 307.56594536 -144.60680927 277.15329674 C-144.61056096 273.55507856 -144.61444397 269.95686053 -144.6184082 266.35864258 C-144.61919513 265.6423637 -144.61998207 264.92608481 -144.62079284 264.18810051 C-144.63381308 252.62124554 -144.65744808 241.05443574 -144.68507167 229.48760749 C-144.71322036 217.60092777 -144.72980944 205.71427156 -144.73587877 193.82755989 C-144.73960995 187.15858397 -144.74889072 180.48969009 -144.77080345 173.82074165 C-144.79129557 167.53268731 -144.7974215 161.24477631 -144.79293633 154.95669174 C-144.79375586 152.6594801 -144.79964508 150.36226323 -144.81122971 148.06508064 C-144.8913133 131.35300503 -143.8132488 115.73319036 -138.26611328 99.82861328 C-137.96640625 98.95221191 -137.66669922 98.07581055 -137.35791016 97.17285156 C-124.48990258 60.71128577 -96.86404868 30.9270919 -62.20361328 14.14111328 C-55.48567561 10.98885022 -48.70684482 8.22484594 -41.64111328 5.95361328 C-40.95049805 5.73092773 -40.25988281 5.50824219 -39.54833984 5.27880859 C-26.4428956 1.35020198 -13.63057269 -0.10732734 0 0 Z " fill="#1160BA" transform="translate(178.45361328125,27.60888671875)"/>
<path d="M0 0 C5.5122786 3.42986224 8.96722885 8.90168654 11 15 C11.73558926 22.92265808 11.32208053 30.14904257 7 37 C3.03830408 41.40516934 -1.17679184 45.42341089 -7 47 C-8.82555343 46.81017475 -10.65138201 46.61596647 -12.46899414 46.36108398 C-17.024837 45.83151312 -21.08232994 45.5695138 -24.89892578 48.41650391 C-28.65799874 52.23701636 -31.67600038 56.57891712 -34.64599609 61.02539062 C-36.38644286 63.56356832 -38.36677298 65.85843198 -40.375 68.1875 C-42.06186018 70.00021529 -42.06186018 70.00021529 -43 72 C-42.70225238 75.19224496 -41.95470425 77.085156 -40.4375 79.9375 C-37.61605522 86.18596795 -38.16530667 94.64046318 -39.78515625 101.16015625 C-40.32428996 104.0985464 -40.32428996 104.0985464 -38.26171875 106.2734375 C-37.41222656 106.96695313 -36.56273438 107.66046875 -35.6875 108.375 C-34.76324219 109.13167969 -33.83898437 109.88835937 -32.88671875 110.66796875 C-31.93410156 111.43753906 -30.98148437 112.20710938 -30 113 C-29.16082031 113.80050781 -28.32164062 114.60101563 -27.45703125 115.42578125 C-23.11610719 119.62767465 -23.11610719 119.62767465 -17.5 121.05078125 C-15.02373192 120.56020722 -15.02373192 120.56020722 -12.8125 119.71875 C-10 119 -10 119 -7.97207642 119.29139709 C-3.60238297 119.85511354 -0.88999533 119.55302453 2.90142822 117.19711304 C6.18633685 114.48966856 9.28684861 111.66614144 12.3515625 108.71484375 C12.91608501 108.17984316 13.48060753 107.64484257 14.06223679 107.09362984 C17.05948121 104.25184279 20.02653021 101.38228981 22.97119141 98.48608398 C25.38141106 96.12393945 27.83018874 93.81970405 30.33251953 91.55541992 C46.34725121 77.75643131 46.34725121 77.75643131 53.44042969 58.72314453 C53.65291889 53.37426802 53.13697926 48.18693298 52.50146484 42.87329102 C51.60830933 35.19144883 53.13505523 29.00305721 57.65292358 22.69044495 C59.32896896 20.65405286 61.10080543 18.82928557 63 17 C63.62003906 16.38253906 64.24007812 15.76507813 64.87890625 15.12890625 C71.11886198 9.26712965 79.35580153 3.88087252 88.16015625 3.8671875 C89.3502832 3.86525391 89.3502832 3.86525391 90.56445312 3.86328125 C91.80098633 3.86908203 91.80098633 3.86908203 93.0625 3.875 C93.89072266 3.87113281 94.71894531 3.86726563 95.57226562 3.86328125 C96.76045898 3.86521484 96.76045898 3.86521484 97.97265625 3.8671875 C99.05945679 3.86887939 99.05945679 3.86887939 100.16821289 3.87060547 C102 4 102 4 104 5 C103.41236963 8.42768661 102.2684111 10.12590397 99.8671875 12.609375 C99.22523438 13.28226563 98.58328125 13.95515625 97.921875 14.6484375 C97.24640625 15.34195313 96.5709375 16.03546875 95.875 16.75 C91.8843366 20.89839713 87.89400372 25.04712222 84.01953125 29.3046875 C83.15485229 30.24803955 83.15485229 30.24803955 82.27270508 31.21044922 C80.69379381 33.09367185 80.69379381 33.09367185 80.8125 36.375 C82.08501567 40.25952151 83.5256011 44.01952708 85.16015625 47.765625 C86 50 86 50 86 53 C88.55951745 53.70078445 91.12159702 54.38585196 93.6875 55.0625 C94.40873047 55.26166016 95.12996094 55.46082031 95.87304688 55.66601562 C101.46341011 57.16558582 101.46341011 57.16558582 107 56 C109.5934198 54.10335406 111.94428334 51.9802925 114.3125 49.8125 C115.64568205 48.62726943 116.98030348 47.44365582 118.31640625 46.26171875 C118.9520752 45.69630371 119.58774414 45.13088867 120.24267578 44.54833984 C123.37698298 41.78677048 126.50250429 39.28682412 130 37 C130.99 37.33 131.98 37.66 133 38 C135.72927406 46.18782218 134.61176198 55.61715822 131.32421875 63.47265625 C126.26103068 73.13602699 117.57012206 82.48690142 107 86 C103.21935031 86.33742606 99.47785144 86.1696368 95.6875 86.0625 C87.53548507 85.95230895 87.53548507 85.95230895 80.3359375 89.25390625 C77.55678201 92.02649487 77.55678201 92.02649487 75.37890625 94.9453125 C73.42804694 97.45035681 71.76032434 99.16221261 69.37358093 101.1787262 C64.94164269 105.00488366 60.78579888 109.05940976 56.64379883 113.19506836 C55.85086929 113.98303299 55.05793976 114.77099762 54.24098206 115.58283997 C51.64357404 118.16575471 49.04997475 120.75244763 46.45703125 123.33984375 C45.56593847 124.22810915 44.6748457 125.11637455 43.75675011 126.03155708 C39.53063188 130.24427248 35.30626126 134.4587263 31.08489877 138.67620653 C26.23566164 143.52095699 21.3799397 148.35908207 16.51850873 153.19159597 C12.2864068 157.39940592 8.06264083 161.61551709 3.8418026 165.83462715 C2.05378364 167.61962677 0.26327254 169.40213376 -1.52980614 171.1820507 C-4.03769222 173.67282691 -6.53588172 176.17295788 -9.03198242 178.67553711 C-9.76819824 179.40253815 -10.50441406 180.12953918 -11.26293945 180.87857056 C-15.09238696 184.73913966 -18.21393279 188.50660828 -20.89340687 193.24968815 C-23.10441737 196.74687043 -24.60365933 197.87301707 -28.62109375 199.16015625 C-34.29155463 201.15591956 -37.94045991 205.20894725 -42.0625 209.4375 C-42.84560547 210.20126953 -43.62871094 210.96503906 -44.43554688 211.75195312 C-45.53672852 212.86280273 -45.53672852 212.86280273 -46.66015625 213.99609375 C-47.32668213 214.66825928 -47.99320801 215.3404248 -48.67993164 216.03295898 C-50.24558244 217.89564523 -50.24558244 217.89564523 -49.72143555 220.05419922 C-49.48336182 220.69631348 -49.24528809 221.33842773 -49 222 C-48.33381294 232.28746563 -48.5265763 240.95677606 -55.0625 249.25 C-60.85758004 255.34944349 -68.08744341 258.69417811 -76.4921875 259.12890625 C-84.42692611 258.72104585 -91.44883981 255.71152704 -97 250 C-101.35911187 243.85170042 -103.11943403 238.20592402 -103.25 230.6875 C-103.27578125 229.80449219 -103.3015625 228.92148437 -103.328125 228.01171875 C-102.44775336 219.93116478 -99.03083383 215.32068786 -93.32543945 209.93237305 C-92.652005 209.27587769 -91.97857056 208.61938232 -91.284729 207.94299316 C-89.82991456 206.52711619 -88.36956883 205.11690466 -86.90429115 203.71185875 C-84.58374857 201.48335744 -82.28220778 199.23677498 -79.9851532 196.98408508 C-73.45521406 190.58516675 -66.89926712 184.21355794 -60.31518555 177.87036133 C-56.28118721 173.98140217 -52.27463516 170.0658593 -48.2837429 166.13269997 C-46.76175648 164.64352113 -45.22948743 163.16477459 -43.68682289 161.69702721 C-35.26097861 154.29604434 -35.26097861 154.29604434 -30.11532593 144.71646118 C-30.12491989 141.99895157 -30.49455735 139.65707281 -31 137 C-30.57079013 134.51569406 -29.84712963 132.38255209 -29 130 C-31.39254381 128.07697418 -33.78874648 126.15938841 -36.1953125 124.25390625 C-37.98683673 122.81419945 -39.75545543 121.34519302 -41.4921875 119.83984375 C-42.25789063 119.19144531 -43.02359375 118.54304688 -43.8125 117.875 C-44.49957031 117.27429688 -45.18664062 116.67359375 -45.89453125 116.0546875 C-48.01404053 114.69650361 -48.01404053 114.69650361 -50.52734375 115.71875 C-51.34332031 116.1415625 -52.15929687 116.564375 -53 117 C-61.20968083 120.63762281 -68.27203858 121.2352953 -76.80078125 118.03515625 C-85.14669833 114.10679386 -89.42794841 108.38906048 -93.3125 100.25 C-95.27743065 90.96123693 -94.35282028 83.88648171 -89.69921875 75.56640625 C-85.72268677 69.56047175 -79.94966743 65.86062008 -73 64 C-65.92173923 63.35652175 -59.68827402 63.46271851 -53 66 C-52.72454346 65.41589355 -52.44908691 64.83178711 -52.1652832 64.22998047 C-51.04220075 62.08075879 -49.81263838 60.25453627 -48.35546875 58.3203125 C-47.84306641 57.63839844 -47.33066406 56.95648438 -46.80273438 56.25390625 C-46.26970703 55.55136719 -45.73667969 54.84882812 -45.1875 54.125 C-44.40536133 53.08279297 -44.40536133 53.08279297 -43.60742188 52.01953125 C-40.51187162 47.91531855 -37.32471078 43.92082344 -34 40 C-34.99687954 37.99276958 -36.00141281 35.99739611 -37.0703125 34.02734375 C-40.47899099 27.27311045 -41.32361653 20.91852771 -39.33984375 13.546875 C-36.48519245 6.28048988 -31.64481448 1.07803346 -24.6875 -2.4375 C-15.90161448 -5.87739755 -8.19391072 -4.21401123 0 0 Z " fill="#FCFDFE" transform="translate(158,70)"/>
<path d="M0 0 C7.26 0 14.52 0 22 0 C22.309375 3.526875 22.309375 3.526875 22.625 7.125 C23.34271475 11.98089456 24.13039341 14.35180616 28.17578125 17.3671875 C32.25407363 19.31523781 36.57550709 21.23674976 41.16015625 20.7890625 C44.215572 19.47867188 46.96103151 17.70908663 49.78125 15.9609375 C52 15 52 15 53.9921875 15.01171875 C57.02568338 16.50485972 58.56416625 18.78736429 60.625 21.4375 C63.66283872 25.35173724 63.66283872 25.35173724 67 29 C67 32.94938055 65.29376605 34.97248074 62.875 37.875 C60.27897202 41.18979575 60.27897202 41.18979575 60 45.4375 C60.495 47.2009375 60.495 47.2009375 61 49 C61.36101785 50.64434409 61.71503102 52.29023964 62.0625 53.9375 C62.5265625 55.9484375 62.5265625 55.9484375 63 58 C69.93 59.485 69.93 59.485 77 61 C77 67.93 77 74.86 77 82 C74.793125 82.33 72.58625 82.66 70.3125 83 C65.23148089 84.01639557 65.23148089 84.01639557 60.9921875 86.76953125 C58.52382694 90.63465871 57.25915559 94.39409838 57 99 C58.62025767 101.79862688 60.55807221 104.05720172 62.62890625 106.53515625 C64 109 64 109 63.56640625 111.4453125 C61.57949331 114.6858139 59.11033663 117.2125417 56.375 119.8125 C55.6015625 120.56563477 55.6015625 120.56563477 54.8125 121.33398438 C53.54840846 122.56296227 52.27511194 123.78246001 51 125 C49.58235006 124.06398754 48.16592432 123.1261208 46.75 122.1875 C45.96109375 121.66542969 45.1721875 121.14335937 44.359375 120.60546875 C42 119 42 119 39.875 117.296875 C38.00282089 115.73057474 38.00282089 115.73057474 35.25 116.0625 C33.64125 116.5265625 33.64125 116.5265625 32 117 C31.33226562 117.1340625 30.66453125 117.268125 29.9765625 117.40625 C27.28114596 118.24794141 25.97403991 118.9377583 24 121 C21.83121934 126.1092834 21.05036258 131.57312666 20 137 C13.73 137 7.46 137 1 137 C0.566875 134.463125 0.13375 131.92625 -0.3125 129.3125 C-1.26757825 124.86583338 -2.03774039 121.83790606 -5.5390625 118.7890625 C-10.27985867 116.57839474 -13.89467772 115.33143126 -19 117 C-21.11612527 118.48289082 -22.99404757 120.11979162 -24.9375 121.8203125 C-27 123 -27 123 -29.35546875 122.99609375 C-32.9221174 121.65267365 -35.49524325 119.42613384 -38.3125 116.9375 C-38.86228516 116.46505859 -39.41207031 115.99261719 -39.97851562 115.50585938 C-41.3262696 114.345619 -42.66415117 113.17392776 -44 112 C-43.47836283 107.67347996 -42.02919425 105.54625365 -39.25 102.25 C-36.56256998 98.72586498 -36.56256998 98.72586498 -36.171875 94.4921875 C-36.96668234 92.22023822 -37.92814638 90.1520811 -39 88 C-39.36665924 86.67544351 -39.71079552 85.34359579 -40 84 C-40.98742187 83.93941406 -41.97484375 83.87882812 -42.9921875 83.81640625 C-44.91417969 83.69072266 -44.91417969 83.69072266 -46.875 83.5625 C-48.78925781 83.44068359 -48.78925781 83.44068359 -50.7421875 83.31640625 C-54 83 -54 83 -56 82 C-57.49094733 75.43983174 -57.09054456 68.69023716 -57 62 C-56.03578125 61.83886719 -55.0715625 61.67773438 -54.078125 61.51171875 C-46.71379165 60.1278177 -46.71379165 60.1278177 -41.109375 55.53125 C-39.31024026 50.91938347 -38.54506519 48.21315948 -40.3125 43.5 C-41 40 -41 40 -39.4609375 37.48046875 C-37.07302957 34.54687052 -34.57870038 31.76720187 -32 29 C-30.3119113 27.10469083 -28.62437408 25.20889029 -26.9375 23.3125 C-25.62755063 21.87267531 -24.31603701 20.43426256 -23 19 C-22.01 19.66 -21.02 20.32 -20 21 C-17.29889553 21.03024767 -17.29889553 21.03024767 -14 20 C-13.08734375 19.75894531 -12.1746875 19.51789063 -11.234375 19.26953125 C-7.99621333 18.16330063 -5.65815621 17.17126621 -3 15 C-1.468725 10.67923452 -1.23579361 6.54833461 -1 2 C-0.67 1.34 -0.34 0.68 0 0 Z " fill="#FBFCFD" transform="translate(236,174)"/>
<path d="M0 0 C11.01040452 8.07564596 17.90131057 18.90630757 20.25 32.375 C21.66806387 48.93523429 20.7062101 64.74458326 10.25 78.375 C1.61956541 87.94938837 -9.70542011 92.83959147 -22.4453125 93.59375 C-37.25937374 94.06454718 -50.87973231 91.16928662 -62 80.8125 C-73.71682546 68.41403532 -75.33703191 54.51178775 -74.99609375 38.23046875 C-74.47142276 24.68560416 -69.34921997 12.8228983 -59.45703125 3.453125 C-42.58662004 -9.49789775 -18.32243892 -11.04366181 0 0 Z " fill="#09315D" transform="translate(727.75,136.625)"/>
<path d="M0 0 C6.99294291 4.43782915 10.97581525 11.97291041 13.375 19.8125 C15.69273987 31.49677627 14.62909115 44.65822032 8.25 54.875 C3.56864674 61.23979557 -1.99259503 66.51308462 -10 68 C-24.8235618 69.37680141 -24.8235618 69.37680141 -30.9375 65.5625 C-34 63 -34 63 -35 62 C-35.33 70.91 -35.66 79.82 -36 89 C-42.27 89 -48.54 89 -55 89 C-55 58.64 -55 28.28 -55 -3 C-48.73 -3 -42.46 -3 -36 -3 C-35.67 -1.35 -35.34 0.3 -35 2 C-34.13375 1.38125 -33.2675 0.7625 -32.375 0.125 C-22.27941217 -6.23148122 -10.28755977 -5.65909481 0 0 Z " fill="#0A315C" transform="translate(815,161)"/>
<path d="M0 0 C6.27 0 12.54 0 19 0 C19.33 10.56 19.66 21.12 20 32 C22.64 30.35 25.28 28.7 28 27 C36.669352 24.832662 45.8813541 25.06832872 54 29 C58.83621194 31.90172717 61.04039815 35.84163631 63 41 C63.81912904 44.47603016 64.12237672 47.68218312 64.11352539 51.24926758 C64.11341209 52.78028862 64.11341209 52.78028862 64.11329651 54.34223938 C64.10813522 55.4319957 64.10297394 56.52175201 64.09765625 57.64453125 C64.0962413 58.7694548 64.09482635 59.89437836 64.09336853 61.0533905 C64.08777931 64.63978759 64.07522872 68.22612184 64.0625 71.8125 C64.05748361 74.24674389 64.05292094 76.68098876 64.04882812 79.11523438 C64.03781339 85.07684706 64.02055611 91.03841288 64 97 C57.73 97 51.46 97 45 97 C44.98541748 95.67347412 44.97083496 94.34694824 44.95581055 92.98022461 C44.89765878 88.0393636 44.82042666 83.09895028 44.73754883 78.15844727 C44.70437883 76.02375578 44.67632242 73.88897827 44.65356445 71.75415039 C44.61987283 68.67817669 44.56754897 65.60298574 44.51171875 62.52734375 C44.50532883 61.57915268 44.4989389 60.63096161 44.49235535 59.65403748 C44.36896396 54.04115753 43.75437205 49.93642287 41 45 C36.11109213 41.74072809 30.72307445 42.59443572 25.0625 43.4375 C21.63450346 46.03446708 20.99022948 49.927337 20 54 C19.58418111 57.43255418 19.5129751 60.8298273 19.48828125 64.28515625 C19.47033005 65.22685165 19.45237885 66.16854706 19.43388367 67.13877869 C19.38018901 70.11330842 19.34601704 73.08768153 19.3125 76.0625 C19.27929081 78.09312057 19.24479787 80.12372057 19.20898438 82.15429688 C19.12209619 87.10288203 19.06167913 92.05078133 19 97 C12.73 97 6.46 97 0 97 C0 64.99 0 32.98 0 0 Z " fill="#09315D" transform="translate(578,131)"/>
<path d="M0 0 C6.41439505 4.97815479 10.37589824 12.40556343 12.34375 20.21875 C12.85688039 25.32056369 12.68359375 30.47010267 12.68359375 35.59765625 C-3.15640625 35.59765625 -18.99640625 35.59765625 -35.31640625 35.59765625 C-32.87449833 44.16315688 -32.87449833 44.16315688 -27.31640625 49.59765625 C-21.99569112 51.84872804 -16.85539672 52.24690622 -11.31640625 50.59765625 C-8.31307358 48.26428959 -8.31307358 48.26428959 -6.31640625 45.59765625 C-5.98640625 45.26765625 -5.65640625 44.93765625 -5.31640625 44.59765625 C-3.37595265 44.66224018 -1.43770809 44.79961957 0.49609375 44.97265625 C2.08357422 45.10800781 2.08357422 45.10800781 3.703125 45.24609375 C6.12730038 45.53203842 8.34306382 45.92893341 10.68359375 46.59765625 C9.89193718 53.32673705 5.90627567 58.06655172 0.78515625 62.20703125 C-6.89304994 67.28777735 -15.27658392 68.70780987 -24.31640625 67.59765625 C-35.30421877 65.3287112 -43.62238035 61.10507254 -50.0625 51.76953125 C-55.70256801 42.00044148 -56.01709065 28.94148782 -53.19140625 18.16015625 C-49.999917 9.28662306 -44.32427851 1.6932052 -35.8828125 -2.65625 C-23.98781458 -7.61106045 -11.05676335 -6.69372351 0 0 Z " fill="#092F5B" transform="translate(480.31640625,162.40234375)"/>
<path d="M0 0 C7.46287589 5.0449971 11.93416023 11.36265675 14.60546875 19.9453125 C16.23878537 28.4514961 15.31172384 36.47984635 11 44 C4.79883791 52.73381492 -2.47791726 57.88908834 -13 60 C-21.44783644 61.21958202 -29.88843812 58.87076131 -36.84765625 54.01171875 C-43.10080152 48.67950798 -47.40727465 43.22425455 -49 35 C-49.7992898 23.74442729 -48.99078008 15.68084774 -41.75 6.75 C-30.71514263 -5.11188094 -14.35217852 -7.7213848 0 0 Z " fill="#1160BA" transform="translate(264,213)"/>
<path d="M0 0 C23.43 0 46.86 0 71 0 C71 5.94 71 11.88 71 18 C62.42 18 53.84 18 45 18 C45 44.07 45 70.14 45 97 C38.4 97 31.8 97 25 97 C25 70.93 25 44.86 25 18 C16.75 18 8.5 18 0 18 C0 12.06 0 6.12 0 0 Z " fill="#093461" transform="translate(361,131)"/>
<path d="M0 0 C6.72093717 4.93333039 10.44061145 10.82056572 12 19 C13.12002245 30.01670276 12.64214878 40.8209693 6.4375 50.3125 C1.70179583 55.99304052 -3.53583772 58.5713714 -10.8515625 59.4765625 C-20.12121131 59.98628309 -27.54326878 58.56704679 -34.796875 52.49609375 C-41.25630443 45.86078877 -43.22807662 37.46091617 -43.4375 28.4375 C-43.15348478 18.80056974 -41.33331897 10.53740005 -34.46875 3.41015625 C-24.67773716 -5.69103523 -11.56919417 -6.77267917 0 0 Z " fill="#FDFDFD" transform="translate(716,152)"/>
<path d="M0 0 C5.81805513 4.73090315 8.62798434 9.8615892 9.625 17.25 C6.70610852 17.41216064 3.79620775 17.53091202 0.875 17.625 C0.05 17.67527344 -0.775 17.72554687 -1.625 17.77734375 C-4.01402727 17.8351428 -6.05106981 17.81657802 -8.375 17.25 C-10.8125 14.3125 -10.8125 14.3125 -12.375 11.25 C-16.35227125 8.81944535 -20.81825886 8.52628229 -25.375 9.25 C-29.79983445 11.50416094 -32.24582141 13.76751875 -34.375 18.25 C-36.5793436 25.09425566 -36.47672488 34.10100985 -34.125 40.875 C-31.83859579 45.28449384 -30.1240808 47.66697307 -25.375 49.25 C-19.82340561 49.61403898 -16.09684853 49.54431293 -11.375 46.25 C-9.47293151 43.19960779 -9.47293151 43.19960779 -8.375 40.25 C-2.1695858 40.73320848 3.62445246 41.58318124 9.625 43.25 C8.6245399 49.71888405 5.48470383 54.76586703 0.54296875 59.05859375 C-8.96989326 65.73925516 -18.58507415 67.77206508 -30.08203125 65.78125 C-39.06116585 63.46405397 -46.1638933 57.87336974 -51.375 50.25 C-56.57693564 40.59401084 -58.20438818 29.88982836 -55.62109375 19.1015625 C-52.20234381 9.31455287 -46.51744383 1.39630934 -37.41015625 -3.890625 C-24.95196158 -9.45183225 -11.09758752 -7.60621167 0 0 Z " fill="#092F5B" transform="translate(558.375,163.75)"/>
<path d="M0 0 C4.72252984 2.48082264 8.47830002 5.57708509 10.3828125 10.7578125 C11.96214091 18.22013924 12.13738507 27.3709857 7.8515625 33.97265625 C3.59997629 38.66514769 -0.82245799 41.56808768 -7.19921875 42.34375 C-14.55863223 42.49358237 -19.57286181 41.9975578 -25.1484375 36.97265625 C-31.09756579 30.71041594 -31.59642674 24.80713763 -31.46484375 16.4296875 C-30.92121218 10.49000927 -29.00635226 6.83057101 -24.8359375 2.66015625 C-16.6019803 -2.51000292 -9.02581944 -3.8656398 0 0 Z " fill="#0A2A57" transform="translate(503.1484375,261.02734375)"/>
<path d="M0 0 C21 0 21 0 29 3 C34.22336876 8.22336876 36.28557624 12.85047582 36.4375 20.1875 C36.32590021 26.74956753 34.91522032 31.69813915 31 37 C26.84731457 40.90352431 22.48847453 42.12999118 16.89453125 42.09765625 C16.00870361 42.09515869 15.12287598 42.09266113 14.21020508 42.09008789 C13.0889624 42.08098389 11.96771973 42.07187988 10.8125 42.0625 C7.244375 42.041875 3.67625 42.02125 0 42 C0 28.14 0 14.28 0 0 Z " fill="#16355E" transform="translate(669,260)"/>
<path d="M0 0 C2.64 0 5.28 0 8 0 C8.96058762 3.33268782 9.91805338 6.66626505 10.875 10 C11.14441406 10.93457031 11.41382813 11.86914062 11.69140625 12.83203125 C13.23046082 18.19995328 14.68177884 23.5735362 16 29 C18.71292678 22.03898728 20.84227681 14.97694494 22.92578125 7.80664062 C23.30669922 6.51209961 23.30669922 6.51209961 23.6953125 5.19140625 C24.0358667 4.01880249 24.0358667 4.01880249 24.38330078 2.82250977 C25 1 25 1 26 0 C28.33297433 -0.04092937 30.66705225 -0.04241723 33 0 C33.23710693 0.83772949 33.47421387 1.67545898 33.71850586 2.53857422 C34.59842624 5.64384579 35.48012461 8.74860531 36.36303711 11.85302734 C36.74493736 13.19722535 37.12612641 14.54162563 37.5065918 15.88623047 C38.05330771 17.8179125 38.60278682 19.74881181 39.15234375 21.6796875 C39.48226318 22.84226074 39.81218262 24.00483398 40.15209961 25.20263672 C40.89023372 27.92091292 40.89023372 27.92091292 42 30 C44.64 20.1 47.28 10.2 50 0 C52.31 0 54.62 0 57 0 C55.6767289 8.33869095 53.68595012 16.45129741 51.48608398 24.59228516 C50.92939782 26.6550217 50.38129531 28.71991454 49.83398438 30.78515625 C49.48226892 32.09909176 49.13007387 33.41289901 48.77734375 34.7265625 C48.46015381 35.90814941 48.14296387 37.08973633 47.81616211 38.30712891 C47 41 47 41 46 42 C43.32941149 42.14115161 40.67567762 42.04247107 38 42 C35.54853476 35.75722965 33.61623544 29.45665116 31.8125 23 C30.884375 19.7 29.95625 16.4 29 13 C26.03 22.57 23.06 32.14 20 42 C17.03 42 14.06 42 11 42 C4.09484439 18.56846649 4.09484439 18.56846649 1.5625 9.1875 C1.10037109 7.47626953 1.10037109 7.47626953 0.62890625 5.73046875 C0 3 0 3 0 0 Z " fill="#0A2955" transform="translate(522,260)"/>
<path d="M0 0 C5.8040958 2.08947449 9.42963164 5.7549381 12.1171875 11.30859375 C14.67184877 19.09691948 13.57544898 27.61932066 10.2109375 34.96875 C7.88406368 38.87189319 5.22458545 40.59180485 1 42 C-5.12455118 42.50201239 -8.12517646 42.09928344 -13 38 C-19.28318236 31.03755469 -18.6731448 22.99076744 -18.2265625 14.07958984 C-17.58458293 8.18693682 -14.39047967 5.20911276 -10.125 1.5 C-6.36290484 -0.30580568 -4.13153003 -0.51644125 0 0 Z " fill="#FCFDFD" transform="translate(797,172)"/>
<path d="M0 0 C3.526875 -0.061875 7.05375 -0.12375 10.6875 -0.1875 C12.342052 -0.22846802 12.342052 -0.22846802 14.0300293 -0.27026367 C20.36653546 -0.32416425 23.86235489 0.31058991 28.75 4.5 C31.34456673 7.61348008 31.2792493 11.10054241 31.21484375 15.0078125 C30.75259208 19.29414613 28.61493583 21.49628575 25.38671875 24.140625 C24.20529297 25.06101562 24.20529297 25.06101562 23 26 C23.721875 27.07121094 24.44375 28.14242188 25.1875 29.24609375 C26.1251205 30.6431483 27.06261397 32.04028812 28 33.4375 C28.47695313 34.14455078 28.95390625 34.85160156 29.4453125 35.58007812 C29.89648438 36.25361328 30.34765625 36.92714844 30.8125 37.62109375 C31.23144531 38.2442749 31.65039062 38.86745605 32.08203125 39.50952148 C33 41 33 41 33 42 C29.33579802 43.03270828 26.62404913 43.26816657 23 42 C19.28516001 38.0579118 14 30.45762997 14 25 C12.02 25 10.04 25 8 25 C8 30.61 8 36.22 8 42 C5.36 42 2.72 42 0 42 C0 28.14 0 14.28 0 0 Z " fill="#082752" transform="translate(432,324)"/>
<path d="M0 0 C4.21673119 2.45822539 6.34063748 5.88987584 8.1015625 10.41796875 C8.441875 11.71734375 8.441875 11.71734375 8.7890625 13.04296875 C3.44058766 13.48136833 3.44058766 13.48136833 0.7890625 13.04296875 C-0.8984375 10.66796875 -0.8984375 10.66796875 -2.2109375 8.04296875 C-6.06285431 5.55055199 -9.74094972 5.87761335 -14.125 6.50390625 C-17.1410528 7.28333563 -18.44862254 8.50523521 -20.2109375 11.04296875 C-22.50534252 15.17289778 -22.9076616 19.41230249 -22.2109375 24.04296875 C-20.9490093 27.74419116 -19.70795912 31.0680177 -16.3515625 33.25390625 C-13.99963878 34.12085623 -12.21176567 34.31009771 -9.7109375 34.29296875 C-8.958125 34.298125 -8.2053125 34.30328125 -7.4296875 34.30859375 C-4.89449077 34.00508428 -3.33965351 33.45301568 -1.2109375 32.04296875 C-0.10600415 30.34346447 -0.10600415 30.34346447 0.5390625 28.41796875 C1.1578125 26.74734375 1.1578125 26.74734375 1.7890625 25.04296875 C-1.8409375 25.04296875 -5.4709375 25.04296875 -9.2109375 25.04296875 C-9.2109375 23.06296875 -9.2109375 21.08296875 -9.2109375 19.04296875 C-3.2709375 19.04296875 2.6690625 19.04296875 8.7890625 19.04296875 C8.7890625 26.30296875 8.7890625 33.56296875 8.7890625 41.04296875 C6.8090625 41.04296875 4.8290625 41.04296875 2.7890625 41.04296875 C2.4590625 40.05296875 2.1290625 39.06296875 1.7890625 38.04296875 C0.6753125 38.70296875 -0.4384375 39.36296875 -1.5859375 40.04296875 C-7.14752021 42.79428175 -12.54798758 43.21989596 -18.484375 41.3125 C-24.20582799 38.70700561 -27.41822258 35.15958308 -29.9609375 29.41796875 C-32.35313019 22.34771035 -32.22483289 15.51032585 -29.2109375 8.66796875 C-23.28406716 -1.98346396 -10.81271972 -4.58786713 0 0 Z " fill="#092854" transform="translate(746.2109375,260.95703125)"/>
<path d="M0 0 C3.25680401 2.61624777 4.8255722 5.27545373 5.8125 9.375 C5.874375 10.24125 5.93625 11.1075 6 12 C3.69 12 1.38 12 -1 12 C-1.20625 11.21625 -1.4125 10.4325 -1.625 9.625 C-2.78992728 6.76285368 -2.78992728 6.76285368 -5.75 5.6875 C-10.77962088 4.62354174 -13.62271096 4.25838283 -18.25 6.75 C-21.72706434 9.59487082 -22.82720343 11.36853107 -23.30078125 15.83984375 C-23.30464844 16.86207031 -23.30851562 17.88429688 -23.3125 18.9375 C-23.32925781 19.95714844 -23.34601563 20.97679687 -23.36328125 22.02734375 C-22.82950449 26.39512993 -21.17438513 29.02693804 -17.8125 31.8125 C-14.09000147 33.3842216 -10.98188358 33.72544438 -7 33 C-2.5647991 30.39672991 -1.9876325 28.96908126 0 24 C-3.63 24 -7.26 24 -11 24 C-11 22.02 -11 20.04 -11 18 C-5.06 18 0.88 18 7 18 C7 25.26 7 32.52 7 40 C5.02 40 3.04 40 1 40 C1 38.68 1 37.36 1 36 C0.34 36 -0.32 36 -1 36 C-1 36.66 -1 37.32 -1 38 C-7.18704954 40.65159266 -12.49410849 42.47967124 -19.10546875 40.30859375 C-25.19390532 37.57850681 -29.52612792 33.29318337 -32 27 C-32.79352868 18.99089661 -33.27562151 10.57824411 -28 4 C-20.35797372 -4.32894999 -9.77278643 -4.88639322 0 0 Z " fill="#0B2A56" transform="translate(411,326)"/>
<path d="M0 0 C8 0 8 0 10.0222168 1.70898438 C10.72858276 2.88944336 10.72858276 2.88944336 11.44921875 4.09375 C11.98740234 4.96 12.52558594 5.82625 13.08007812 6.71875 C13.61052734 7.6365625 14.14097656 8.554375 14.6875 9.5 C15.22955078 10.386875 15.77160156 11.27375 16.33007812 12.1875 C17.35509206 13.86906689 18.36858849 15.55775535 19.3659668 17.25585938 C21.51944126 20.87233224 23.76919371 24.43070994 26 28 C26.33 18.76 26.66 9.52 27 0 C29.31 0 31.62 0 34 0 C34 13.86 34 27.72 34 42 C26 42 26 42 23.9777832 40.29101562 C23.50687256 39.50404297 23.03596191 38.71707031 22.55078125 37.90625 C22.01259766 37.04 21.47441406 36.17375 20.91992188 35.28125 C20.38947266 34.3634375 19.85902344 33.445625 19.3125 32.5 C18.77044922 31.613125 18.22839844 30.72625 17.66992188 29.8125 C16.64490794 28.13093311 15.63141151 26.44224465 14.6340332 24.74414062 C12.48055874 21.12766776 10.23080629 17.56929006 8 14 C7.67 23.24 7.34 32.48 7 42 C4.69 42 2.38 42 0 42 C0 28.14 0 14.28 0 0 Z " fill="#082852" transform="translate(425,260)"/>
<path d="M0 0 C22.53846154 0 22.53846154 0 27.875 4.625 C30.208565 9.551415 30.61956541 14.23912988 28.8125 19.375 C26.27813694 23.04545684 24.21079349 24.59640217 20 26 C15.66328697 26.13501597 11.33988266 26.04296914 7 26 C7 31.28 7 36.56 7 42 C4.69 42 2.38 42 0 42 C0 28.14 0 14.28 0 0 Z " fill="#0C335F" transform="translate(525,324)"/>
<path d="M0 0 C2.97 0 5.94 0 9 0 C12.66398859 8.60716781 16.06135477 17.29163266 19.3125 26.0625 C19.76689453 27.27099609 20.22128906 28.47949219 20.68945312 29.72460938 C21.11806641 30.87896484 21.54667969 32.03332031 21.98828125 33.22265625 C22.37540283 34.26172119 22.76252441 35.30078613 23.16137695 36.37133789 C24 39 24 39 24 42 C21.36 42 18.72 42 16 42 C15.49384702 40.73160474 14.99530901 39.46016898 14.5 38.1875 C14.2215625 37.47980469 13.943125 36.77210938 13.65625 36.04296875 C13 34 13 34 13 31 C7.39 31 1.78 31 -4 31 C-4.474375 32.629375 -4.94875 34.25875 -5.4375 35.9375 C-6.875 40.875 -6.875 40.875 -8 42 C-10.33297433 42.04092937 -12.66705225 42.04241723 -15 42 C-12.77620109 34.03316343 -9.99676955 26.28957509 -7.12890625 18.53808594 C-6.36652852 16.47709847 -5.60871121 14.41447604 -4.8515625 12.3515625 C-1.15629186 2.31258372 -1.15629186 2.31258372 0 0 Z " fill="#092753" transform="translate(489,324)"/>
<path d="M0 0 C2.64 0 5.28 0 8 0 C8 5.94 8 11.88 8 18 C13.94 18 19.88 18 26 18 C26 12.06 26 6.12 26 0 C28.64 0 31.28 0 34 0 C34 13.86 34 27.72 34 42 C31.69 42 29.38 42 27 42 C27 36.06 27 30.12 27 24 C20.73 24 14.46 24 8 24 C8 29.94 8 35.88 8 42 C5.36 42 2.72 42 0 42 C0 28.14 0 14.28 0 0 Z " fill="#07224C" transform="translate(567,324)"/>
<path d="M0 0 C2.64 0 5.28 0 8 0 C8.33 5.61 8.66 11.22 9 17 C10.36125 15.494375 11.7225 13.98875 13.125 12.4375 C13.95257813 11.53128906 14.78015625 10.62507813 15.6328125 9.69140625 C17.57529098 7.48287874 19.27498673 5.24811148 21 2.875 C22.798486 0.70563977 23.55987454 0.07916448 26.3671875 -0.42578125 C28.62499922 -0.43633177 30.76574295 -0.31279599 33 0 C32.195625 0.94875 31.39125 1.8975 30.5625 2.875 C30.02625 3.50792969 29.49 4.14085937 28.9375 4.79296875 C27.51610651 6.41209642 26.05099098 7.99311361 24.5625 9.55078125 C23.7375 10.42089844 22.9125 11.29101562 22.0625 12.1875 C21.26972656 13.00605469 20.47695313 13.82460938 19.66015625 14.66796875 C17.76751819 16.7804595 17.76751819 16.7804595 18.20092773 18.8659668 C19.16341165 21.43641346 20.47194037 23.28468327 22.125 25.4765625 C22.74890625 26.311875 23.3728125 27.1471875 24.015625 28.0078125 C24.67046875 28.87148438 25.3253125 29.73515625 26 30.625 C27.29287828 32.34544433 28.58460328 34.06675613 29.875 35.7890625 C30.44992187 36.54912598 31.02484375 37.30918945 31.6171875 38.09228516 C33 40 33 40 34 42 C29.98026807 43.11961586 26.98974606 43.32010048 23 42 C17.81287064 37.01747851 13.27200207 29.81600622 11 23 C10.34 23.33 9.68 23.66 9 24 C8.67 29.94 8.34 35.88 8 42 C5.36 42 2.72 42 0 42 C0 28.14 0 14.28 0 0 Z " fill="#082955" transform="translate(380,260)"/>
<path d="M0 0 C8.91 0 17.82 0 27 0 C27 1.98 27 3.96 27 6 C20.73 6 14.46 6 8 6 C8 9.96 8 13.92 8 18 C13.61 18 19.22 18 25 18 C25 19.98 25 21.96 25 24 C19.39 24 13.78 24 8 24 C8 27.96 8 31.92 8 36 C14.6 36 21.2 36 28 36 C28 37.98 28 39.96 28 42 C18.76 42 9.52 42 0 42 C0 28.14 0 14.28 0 0 Z " fill="#0B2A54" transform="translate(769,260)"/>
<path d="M0 0 C4.40802625 2.16394016 7.23139226 4.38196867 9 9 C9.71615513 13.66585918 10.12645832 18.02955915 7.72265625 22.234375 C5.02706068 25.42427293 2.91549624 27.80907636 -1.390625 28.23828125 C-8.71789439 28.42846994 -12.35876864 27.39011196 -17.8125 22.3125 C-19.68427139 18.66747151 -20.11343626 15.0766155 -20 11 C-16.70554244 1.29965273 -9.37375584 -1.03672876 0 0 Z " fill="#105DB9" transform="translate(97,148)"/>
<path d="M0 0 C8.91 0 17.82 0 27 0 C27 1.98 27 3.96 27 6 C20.73 6 14.46 6 8 6 C8 9.96 8 13.92 8 18 C13.28 18 18.56 18 24 18 C24 19.98 24 21.96 24 24 C18.72 24 13.44 24 8 24 C8 27.96 8 31.92 8 36 C14.27 36 20.54 36 27 36 C27 37.98 27 39.96 27 42 C18.09 42 9.18 42 0 42 C0 28.14 0 14.28 0 0 Z " fill="#0B2C55" transform="translate(629,260)"/>
<path d="M0 0 C3.57048798 2.20306705 5.45181477 4.13967789 7 8 C7.67002222 13.59390643 7.75476125 18.46352174 5.25 23.5625 C0.50605778 28.70177074 0.50605778 28.70177074 -3.3671875 29.46875 C-7.68942001 29.5226096 -10.99467381 29.54941724 -14.5 26.8125 C-18.89386683 21.86939981 -19.398199 17.90181511 -19.25390625 11.4375 C-18.79591649 7.04079833 -17.24653944 4.12967637 -14 1.1875 C-9.30731286 -1.59878299 -5.15206703 -1.17709791 0 0 Z " fill="#FCFDFD" transform="translate(499,267)"/>
<path d="M0 0 C3.85987396 2.00141613 6.99446399 4.0944825 9 8 C10.10280384 12.47105742 10.36739202 15.9182346 8.875 20.3125 C6.44785585 23.79140662 3.7924148 26.1037926 0 28 C-4.70697417 28.57425085 -8.12144792 28.45554552 -12.375 26.25 C-16.78555117 22.46952757 -18.75791982 19.56604986 -19.3125 13.6875 C-18.88261266 8.61482937 -16.68373932 5.95313761 -13.4375 2.1875 C-9.71889711 -0.88438935 -4.54583447 -0.56725798 0 0 Z " fill="#105EB9" transform="translate(86,287)"/>
<path d="M0 0 C11.75862069 0 11.75862069 0 16 3 C20.12825117 8.58992861 19.75692279 14.31384869 19 21 C16.91487838 25.47915015 14.62788172 28.18908976 10 30 C6.7 30 3.4 30 0 30 C0 20.1 0 10.2 0 0 Z " fill="#FCFCFD" transform="translate(678,266)"/>
<path d="M0 0 C23.43 0 46.86 0 71 0 C71 5.94 71 11.88 71 18 C62.42 18 53.84 18 45 18 C45 44.07 45 70.14 45 97 C38.4 97 31.8 97 25 97 C25 70.93 25 44.86 25 18 C16.75 18 8.5 18 0 18 C0 12.06 0 6.12 0 0 Z M1 2 C1 6.95 1 11.9 1 17 C8.92 17.33 16.84 17.66 25 18 C25.33 43.74 25.66 69.48 26 96 C31.94 96 37.88 96 44 96 C44 69.93 44 43.86 44 17 C52.25 17 60.5 17 69 17 C69 12.05 69 7.1 69 2 C46.56 2 24.12 2 1 2 Z " fill="#0A153A" transform="translate(361,131)"/>
<path d="M0 0 C2.31 0 4.62 0 7 0 C7 11.88 7 23.76 7 36 C13.27 36 19.54 36 26 36 C26 37.98 26 39.96 26 42 C17.42 42 8.84 42 0 42 C0 28.14 0 14.28 0 0 Z " fill="#08254F" transform="translate(591,260)"/>
<path d="M0 0 C7.26 0 14.52 0 22 0 C21.01 1.65 20.02 3.3 19 5 C14.91846799 5.68298728 11.16263407 5.22379753 7 5 C7.33 9.95 7.66 14.9 8 20 C10.97 20.33 13.94 20.66 17 21 C16.01 21.99 15.02 22.98 14 24 C12.02 24 10.04 24 8 24 C8 29.94 8 35.88 8 42 C5.36 42 2.72 42 0 42 C0 28.14 0 14.28 0 0 Z " fill="#11335C" transform="translate(432,324)"/>
<path d="M0 0 C3.42828835 2.04238455 5.88688048 4.10408169 7 8 C6.91936685 12.35419024 6.20621711 14.67247872 3.875 18.375 C0.39955875 21.54822896 -1.32444163 22.08202734 -6 22 C-10.07983427 20.50929132 -13.1081924 18.99381605 -15 15 C-15.71099041 10.32150756 -15.6654095 7.0646552 -13.125 3 C-9.16927693 -0.72303348 -5.23351212 -0.6609799 0 0 Z " fill="#115DB9" transform="translate(148,81)"/>
<path d="M0 0 C3.34419343 1.84997934 5.51904325 4.12553318 7.375 7.5 C8 10 8 10 8 15 C-1.57 15 -11.14 15 -21 15 C-19.81412639 5.51301115 -19.81412639 5.51301115 -16 2 C-10.57360446 -1.19199737 -5.96958865 -1.7800228 0 0 Z " fill="#F6F9FA" transform="translate(466,171)"/>
<path d="M0 0 C22.53846154 0 22.53846154 0 27.875 4.625 C30.208565 9.551415 30.61956541 14.23912988 28.8125 19.375 C26.27813694 23.04545684 24.21079349 24.59640217 20 26 C15.66328697 26.13501597 11.33988266 26.04296914 7 26 C7 31.28 7 36.56 7 42 C4.69 42 2.38 42 0 42 C0 28.14 0 14.28 0 0 Z M1 2 C1 14.87 1 27.74 1 41 C2.65 41 4.3 41 6 41 C6.33 36.05 6.66 31.1 7 26 C10.3 25.67 13.6 25.34 17 25 C16.34 23.68 15.68 22.36 15 21 C15.969375 20.54625 16.93875 20.0925 17.9375 19.625 C21.07079582 18.34213779 21.07079582 18.34213779 22 16 C22.50042146 13.08461971 22.50042146 13.08461971 22 10 C18.68898791 6.39683978 15.8084187 5.44729476 11 5 C11.66 4.01 12.32 3.02 13 2 C9.04 2 5.08 2 1 2 Z " fill="#07214C" transform="translate(525,324)"/>
<path d="M0 0 C2.00993705 3.01490557 2.72623341 5.2149927 3.625 8.6875 C3.88539063 9.68136719 4.14578125 10.67523438 4.4140625 11.69921875 C4.60742188 12.45847656 4.80078125 13.21773438 5 14 C5.86625 13.2265625 5.86625 13.2265625 6.75 12.4375 C9 11 9 11 11.02050781 11.15087891 C13 12 13 12 14.09667969 13.81005859 C14.36899414 14.58172363 14.64130859 15.35338867 14.921875 16.1484375 C15.22480469 16.98890625 15.52773438 17.829375 15.83984375 18.6953125 C16.14019531 19.57960938 16.44054687 20.46390625 16.75 21.375 C17.06582031 22.2515625 17.38164062 23.128125 17.70703125 24.03125 C20 30.52303166 20 30.52303166 20 34 C17.36 34 14.72 34 12 34 C11.49166409 32.75336669 10.99368855 31.50250613 10.5 30.25 C10.2215625 29.55390625 9.943125 28.8578125 9.65625 28.140625 C9 26 9 26 9 22 C4.38 22 -0.24 22 -5 22 C-4.67 20.68 -4.34 19.36 -4 18 C-4.66 17.67 -5.32 17.34 -6 17 C-4.33846988 11.14340094 -2.52958084 5.5409866 0 0 Z " fill="#123A64" transform="translate(493,332)"/>
<path d="M0 0 C6.27 0 12.54 0 19 0 C19 10.89 19 21.78 19 33 C18.67 33 18.34 33 18 33 C18 22.77 18 12.54 18 2 C12.72 2 7.44 2 2 2 C2 33.02 2 64.04 2 96 C7.28 96 12.56 96 18 96 C18 82.14 18 68.28 18 54 C18.33 54 18.66 54 19 54 C19 68.19 19 82.38 19 97 C12.73 97 6.46 97 0 97 C0 64.99 0 32.98 0 0 Z " fill="#10254F" transform="translate(578,131)"/>
<path d="M0 0 C5.78535228 6.05443843 6.21858231 11.48280679 6.05859375 19.6328125 C5.5343205 24.12500646 4.07686365 27.00445169 1.6875 30.8125 C1.006875 29.8534375 1.006875 29.8534375 0.3125 28.875 C-1.15171726 26.71547594 -1.15171726 26.71547594 -3.3125 25.8125 C-3.56 26.43125 -3.8075 27.05 -4.0625 27.6875 C-5.53297178 30.18730203 -6.72653076 30.64566022 -9.3125 31.8125 C-8.879375 31.31363281 -8.44625 30.81476563 -8 30.30078125 C-3.48696102 24.48188609 -2.69472186 20.12584594 -2.90625 12.828125 C-3.31256956 9.81198365 -3.92618532 7.51750425 -5.3125 4.8125 C-10.49781927 2.15336191 -16.58376787 2.19985199 -22.3125 1.8125 C-20.9925 1.1525 -19.6725 0.4925 -18.3125 -0.1875 C-18.6425 -0.8475 -18.9725 -1.5075 -19.3125 -2.1875 C-11.66050571 -4.64706959 -6.79683376 -4.48847512 0 0 Z " fill="#072A56" transform="translate(699.3125,264.1875)"/>
<path d="M0 0 C3.22291569 2.73947834 3.90211554 4.3148088 4.5 8.5 C3.90662809 12.65360338 3.15850062 14.24643536 0 17 C-3.375 18.0625 -3.375 18.0625 -7 18 C-12.46835443 15.06329114 -12.46835443 15.06329114 -14 12 C-14.34568746 8.98758074 -14.57160769 6.90798473 -14 4 C-9.91927031 -0.99889386 -6.15969508 -2.35903216 0 0 Z " fill="#115CB8" transform="translate(157,205)"/>
<path d="M0 0 C0.33 0 0.66 0 1 0 C1 5.94 1 11.88 1 18 C6.94 18 12.88 18 19 18 C19 12.06 19 6.12 19 0 C19.33 0 19.66 0 20 0 C20 6.27 20 12.54 20 19 C16.04 19.495 16.04 19.495 12 20 C12.99 20.66 13.98 21.32 15 22 C10.05 22.66 5.1 23.32 0 24 C-0.33 29.61 -0.66 35.22 -1 41 C-2.32 41 -3.64 41 -5 41 C-5.33 28.13 -5.66 15.26 -6 2 C-4.35 2 -2.7 2 -1 2 C-0.67 1.34 -0.34 0.68 0 0 Z " fill="#183F68" transform="translate(574,324)"/>
<path d="M0 0 C6 0 6 0 7.71484375 1.57421875 C11.04216976 7.32528383 11.04216976 7.32528383 10.8125 11 C10.544375 11.66 10.27625 12.32 10 13 C8.68 12.67 7.36 12.34 6 12 C5.67 21.24 5.34 30.48 5 40 C3.35 40 1.7 40 0 40 C0 26.8 0 13.6 0 0 Z " fill="#08325E" transform="translate(426,261)"/>
<path d="M0 0 C8 0 8 0 10.0222168 1.70898438 C10.72858276 2.88944336 10.72858276 2.88944336 11.44921875 4.09375 C11.98740234 4.96 12.52558594 5.82625 13.08007812 6.71875 C13.61052734 7.6365625 14.14097656 8.554375 14.6875 9.5 C15.22955078 10.386875 15.77160156 11.27375 16.33007812 12.1875 C17.39874288 13.94067741 18.45362471 15.70234049 19.49365234 17.47265625 C21.31009412 20.5202746 23.25042278 23.47725175 25.22583008 26.42382812 C25.48130615 26.94396484 25.73678223 27.46410156 26 28 C25.67 28.66 25.34 29.32 25 30 C23.68 28.68 22.36 27.36 21 26 C20.67 27.65 20.34 29.3 20 31 C16.51573085 27.82962897 14.13440039 24.26699914 11.75 20.25 C10.5125 18.1875 9.275 16.125 8 14 C7.67 23.24 7.34 32.48 7 42 C4.69 42 2.38 42 0 42 C0 28.14 0 14.28 0 0 Z M1 1 C1 14.2 1 27.4 1 41 C2.65 41 4.3 41 6 41 C6.33 31.76 6.66 22.52 7 13 C8.32 13.33 9.64 13.66 11 14 C12.09245306 11.31088478 12.23656543 9.59804626 11.1640625 6.88671875 C9.41417903 3.68767433 9.41417903 3.68767433 7 1 C5.02 1 3.04 1 1 1 Z " fill="#061D49" transform="translate(425,260)"/>
<path d="M0 0 C9.06976744 -0.48372093 9.06976744 -0.48372093 13.125 1.625 C15 4 15 4 15.5625 7 C15 10 15 10 13.6875 12.375 C9.29090442 15.03340663 5.0628521 14.2410882 0 14 C0 9.38 0 4.76 0 0 Z " fill="#F7F9FA" transform="translate(532,330)"/>
<path d="M0 0 C10.19694397 -0.48556876 10.19694397 -0.48556876 13.6875 1.625 C15.38115483 4.68970874 15.51410062 6.54818157 15 10 C13.14657225 12.55949546 12.06243607 12.97918798 9 14 C7.43881572 14.06740865 5.8749748 14.08514456 4.3125 14.0625 C2.889375 14.041875 1.46625 14.02125 0 14 C0 9.38 0 4.76 0 0 Z " fill="#F2F4F6" transform="translate(440,330)"/>
<path d="M0 0 C0.99 0.33 1.98 0.66 3 1 C2.67 1.99 2.34 2.98 2 4 C2.66 4 3.32 4 4 4 C2.63629701 6.99220268 1.05091917 9.29026529 -1.125 11.75 C-1.66382813 12.36359375 -2.20265625 12.9771875 -2.7578125 13.609375 C-3.16773438 14.06828125 -3.57765625 14.5271875 -4 15 C-4 14.01 -4 13.02 -4 12 C-4.495 10.02 -4.495 10.02 -5 8 C-19.85 22.85 -34.7 37.7 -50 53 C-50.66 52.67 -51.32 52.34 -52 52 C-34.84 34.84 -17.68 17.68 0 0 Z " fill="#094EB2" transform="translate(208,189)"/>
<path d="M0 0 C2.1491917 3.22378756 3.024994 5.98414648 4.125 9.6875 C4.47820312 10.86699219 4.83140625 12.04648437 5.1953125 13.26171875 C5.46085937 14.16535156 5.72640625 15.06898438 6 16 C2.37 16 -1.26 16 -5 16 C-3.85388265 10.26941324 -2.47605477 5.28975338 0 0 Z " fill="#F8F9FA" transform="translate(493,332)"/>
<path d="M0 0 C3.12831454 1.56415727 3.41662452 4.17386497 4.625 7.375 C5.07101562 8.53773438 5.51703125 9.70046875 5.9765625 10.8984375 C7 14 7 14 7 17 C4.36 17 1.72 17 -1 17 C-1.53229326 15.73392393 -2.05044544 14.46189588 -2.5625 13.1875 C-2.85253906 12.47980469 -3.14257812 11.77210938 -3.44140625 11.04296875 C-4 9 -4 9 -3 6 C-1.35 6.33 0.3 6.66 2 7 C1.34 4.69 0.68 2.38 0 0 Z " fill="#09254F" transform="translate(506,349)"/>
<path d="M0 0 C0.33 0 0.66 0 1 0 C1 3.96 1 7.92 1 12 C6.61 12 12.22 12 18 12 C18 13.98 18 15.96 18 18 C12.39 18 6.78 18 1 18 C1 17.34 1 16.68 1 16 C5.95 16 10.9 16 16 16 C16 15.01 16 14.02 16 13 C10.72 13 5.44 13 0 13 C0 8.71 0 4.42 0 0 Z " fill="#011442" transform="translate(635,266)"/>
<path d="M0 0 C2.83305622 2.22106106 5.18606726 4.39235961 6.234375 7.88671875 C5.904375 8.87671875 5.574375 9.86671875 5.234375 10.88671875 C4.93144531 10.34402344 4.62851562 9.80132812 4.31640625 9.2421875 C1.81689575 4.97379265 -0.05208023 1.88997528 -4.765625 -0.11328125 C-7.45817491 -0.81998853 -7.45817491 -0.81998853 -9.765625 -1.11328125 C-9.765625 0.20671875 -9.765625 1.52671875 -9.765625 2.88671875 C-13.395625 2.88671875 -17.025625 2.88671875 -20.765625 2.88671875 C-19.445625 2.22671875 -18.125625 1.56671875 -16.765625 0.88671875 C-17.095625 0.22671875 -17.425625 -0.43328125 -17.765625 -1.11328125 C-11.18913209 -3.22715397 -6.05775025 -3.81959916 0 0 Z " fill="#051B47" transform="translate(697.765625,263.11328125)"/>
<path d="M0 0 C2.93774463 -0.05390357 5.87450232 -0.0936255 8.8125 -0.125 C10.06256836 -0.15013672 10.06256836 -0.15013672 11.33789062 -0.17578125 C12.14033203 -0.18222656 12.94277344 -0.18867188 13.76953125 -0.1953125 C14.50792236 -0.20578613 15.24631348 -0.21625977 16.00708008 -0.22705078 C18 0 18 0 21 2 C19.02 2.33 17.04 2.66 15 3 C15.99 4.485 15.99 4.485 17 6 C13.37 6 9.74 6 6 6 C7.32 5.34 8.64 4.68 10 4 C10.33 3.67 10.66 3.34 11 3 C7.37 2.67 3.74 2.34 0 2 C0 1.34 0 0.68 0 0 Z " fill="#021A49" transform="translate(526,324)"/>
<path d="M0 0 C0.33 0 0.66 0 1 0 C1 3.96 1 7.92 1 12 C7.6 12 14.2 12 21 12 C21 13.65 21 15.3 21 17 C20.34 17 19.68 17 19 17 C19 16.01 19 15.02 19 14 C17.71222656 14.01160156 16.42445313 14.02320313 15.09765625 14.03515625 C13.41927228 14.0445327 11.74088674 14.05363305 10.0625 14.0625 C8.78729492 14.07506836 8.78729492 14.07506836 7.48632812 14.08789062 C6.67744141 14.09111328 5.86855469 14.09433594 5.03515625 14.09765625 C4.2862915 14.10289307 3.53742676 14.10812988 2.76586914 14.11352539 C1 14 1 14 0 13 C-0.07258946 10.81360547 -0.08373783 8.62499611 -0.0625 6.4375 C-0.05347656 5.23996094 -0.04445313 4.04242188 -0.03515625 2.80859375 C-0.02355469 1.88175781 -0.01195312 0.95492188 0 0 Z " fill="#021D4D" transform="translate(776,284)"/>
<path d="M0 0 C0.33 0.66 0.66 1.32 1 2 C5.34184202 1.81535634 5.34184202 1.81535634 9 0 C11.53049402 -0.07313567 14.03304837 -0.09247527 16.5625 -0.0625 C17.27341797 -0.05798828 17.98433594 -0.05347656 18.71679688 -0.04882812 C20.47790013 -0.03700864 22.23896036 -0.01907263 24 0 C24 0.99 24 1.98 24 3 C16.08 3 8.16 3 0 3 C0 2.01 0 1.02 0 0 Z " fill="#0B3661" transform="translate(771,298)"/>
<path d="M0 0 C0.66 0.99 1.32 1.98 2 3 C0.9275 3.70125 -0.145 4.4025 -1.25 5.125 C-4.7795083 7.62889968 -6.64772651 10.35777008 -9 14 C-10.05830629 14.88498565 -11.14294749 15.73930711 -12.25 16.5625 C-15.27294688 18.70658855 -15.27294688 18.70658855 -15.375 21.8125 C-15.25125 22.534375 -15.1275 23.25625 -15 24 C-15.66 23.34 -16.32 22.68 -17 22 C-16.71761802 17.95529334 -15.43091323 15.91576661 -12.65625 13.046875 C-11.98722656 12.345625 -11.31820312 11.644375 -10.62890625 10.921875 C-9.92636719 10.20515625 -9.22382813 9.4884375 -8.5 8.75 C-7.79746094 8.0178125 -7.09492188 7.285625 -6.37109375 6.53125 C-4.26343516 4.33831043 -2.15077304 2.15077304 0 0 Z " fill="#0B4DB3" transform="translate(255,85)"/>
<path d="M0 0 C3.96 0 7.92 0 12 0 C11.67 2.64 11.34 5.28 11 8 C10.34 7.01 9.68 6.02 9 5 C6.80545319 4.42006301 6.80545319 4.42006301 4.375 4.3125 C3.55773437 4.24675781 2.74046875 4.18101562 1.8984375 4.11328125 C1.27195312 4.07589844 0.64546875 4.03851563 0 4 C0 2.68 0 1.36 0 0 Z " fill="#052C5A" transform="translate(738,281)"/>
<path d="M0 0 C0.55171875 0.26683594 1.1034375 0.53367188 1.671875 0.80859375 C0.681875 0.80859375 -0.308125 0.80859375 -1.328125 0.80859375 C-1.58335937 1.4015625 -1.83859375 1.99453125 -2.1015625 2.60546875 C-3.44628998 5.02083913 -4.82026867 6.32071081 -6.953125 8.05859375 C-7.58476562 8.579375 -8.21640625 9.10015625 -8.8671875 9.63671875 C-9.34929687 10.0234375 -9.83140625 10.41015625 -10.328125 10.80859375 C-10.988125 10.47859375 -11.648125 10.14859375 -12.328125 9.80859375 C-10.7605732 8.10642395 -9.17352716 6.42218821 -7.578125 4.74609375 C-6.69640625 3.80636719 -5.8146875 2.86664063 -4.90625 1.8984375 C-2.328125 -0.19140625 -2.328125 -0.19140625 0 0 Z " fill="#074DB0" transform="translate(244.328125,156.19140625)"/>
<path d="M0 0 C0 1.98 0 3.96 0 6 C-3.14624993 6.26218749 -4.61837017 6.24754367 -7.3125 4.5 C-7.869375 4.005 -8.42625 3.51 -9 3 C-6.0415293 1.0276862 -3.59741463 0 0 0 Z " fill="#15345E" transform="translate(794,278)"/>
<path d="M0 0 C0.66 0.33 1.32 0.66 2 1 C0.576875 2.36125 0.576875 2.36125 -0.875 3.75 C-2.70769295 5.56560491 -3.92949725 6.85484728 -5.0625 9.1875 C-6.41743541 11.80704179 -8.44737424 12.65651276 -11 14 C-9.42219077 10.28954753 -7.09296752 7.70093616 -4.375 4.75 C-3.55773437 3.85796875 -2.74046875 2.9659375 -1.8984375 2.046875 C-1.27195312 1.37140625 -0.64546875 0.6959375 0 0 Z " fill="#0B4EB2" transform="translate(78,68)"/>
<path d="M0 0 C0.99 0 1.98 0 3 0 C3 2.97 3 5.94 3 9 C1.35 9 -0.3 9 -2 9 C-1.34 6.03 -0.68 3.06 0 0 Z " fill="#0C3561" transform="translate(543,280)"/>
<path d="M0 0 C0.99 0 1.98 0 3 0 C3 1.65 3 3.3 3 5 C1.35 5.33 -0.3 5.66 -2 6 C-1.125 1.125 -1.125 1.125 0 0 Z " fill="#0C305D" transform="translate(395,270)"/>
<path d="M0 0 C0.99 0.33 1.98 0.66 3 1 C3 1.99 3 2.98 3 4 C1.35 4.33 -0.3 4.66 -2 5 C-2.33 6.32 -2.66 7.64 -3 9 C-3.33 7.02 -3.66 5.04 -4 3 C-2.68 2.67 -1.36 2.34 0 2 C0 1.34 0 0.68 0 0 Z " fill="#06224D" transform="translate(534,286)"/>
<path d="M0 0 C2 1.375 2 1.375 4 3 C4 3.66 4 4.32 4 5 C1.625 6.6875 1.625 6.6875 -1 8 C-1.66 7.67 -2.32 7.34 -3 7 C-2.01 4.69 -1.02 2.38 0 0 Z " fill="#0D3460" transform="translate(498,330)"/>
<path d="M0 0 C0.66 0 1.32 0 2 0 C2.33 1.32 2.66 2.64 3 4 C3.99 3.67 4.98 3.34 6 3 C6.33 5.31 6.66 7.62 7 10 C3.60582235 6.87378374 1.3937282 4.43458973 0 0 Z " fill="#091F4B" transform="translate(394,287)"/>
<path d="M0 0 C1.65 0 3.3 0 5 0 C5 1.32 5 2.64 5 4 C1.7 3.67 -1.6 3.34 -5 3 C-5 2.67 -5 2.34 -5 2 C-3.35 2 -1.7 2 0 2 C0 1.34 0 0.68 0 0 Z " fill="#093461" transform="translate(688,262)"/>
<path d="M0 0 C0.66 0.66 1.32 1.32 2 2 C-0.85306797 4.32472205 -3.54074837 5.7508258 -7 7 C-2.25 1.125 -2.25 1.125 0 0 Z " fill="#0A2451" transform="translate(441,162)"/>
</svg>
