<?xml version="1.0" encoding="UTF-8"?>
<svg version="1.1" xmlns="http://www.w3.org/2000/svg" width="1300" height="600">
<path d="M0 0 C429 0 858 0 1300 0 C1300 198 1300 396 1300 600 C871 600 442 600 0 600 C0 402 0 204 0 0 Z " fill="#FEFEFE" transform="translate(0,0)"/>
<path d="M0 0 C0.86222168 0.15597656 1.72444336 0.31195313 2.61279297 0.47265625 C37.31286252 6.95977329 69.39576061 21.31488715 95 46 C96.40981971 47.21631504 97.82602185 48.42529165 99.25 49.625 C103.23788055 53.11237733 106.65478614 56.89763898 110 61 C111.12535156 62.36898437 111.12535156 62.36898437 112.2734375 63.765625 C131.35551479 87.72356431 143.64742149 114.91063933 149.8125 144.8125 C150.01979736 145.8137793 150.22709473 146.81505859 150.44067383 147.84667969 C153.13378308 161.7358994 153.14409517 175.66930483 153.11352539 189.75537109 C153.11324269 191.59977721 153.11340288 193.44418343 153.1139679 195.28858948 C153.11425262 200.25248821 153.10840869 205.21636235 153.10139394 210.18025541 C153.09510605 215.38389172 153.09455233 220.5875287 153.09336853 225.79116821 C153.09027115 235.62572148 153.0820794 245.46026351 153.07201904 255.29481184 C153.06080822 266.49927489 153.05533497 277.70373849 153.05032361 288.90820575 C153.03989532 311.93881004 153.02232697 334.96940439 153 358 C89.14016607 376.9677508 89.14016607 376.9677508 69.92578125 382.640625 C69.26700989 382.83514063 68.60823853 383.02965626 67.92950439 383.2300663 C64.69940584 384.18377185 61.46924967 385.13728203 58.23907471 386.09072876 C32.18615061 393.78168942 6.15019826 401.5282696 -19.875 409.3125 C-55.241781 419.89079912 -90.63166892 430.39010191 -126.0291748 440.86508179 C-136.18808332 443.8713559 -146.34635984 446.87975186 -156.50390625 449.890625 C-157.76283188 450.26377335 -159.02175751 450.63692169 -160.3188324 451.02137756 C-164.9725798 452.40079366 -169.62631245 453.78025946 -174.27999878 455.15988159 C-175.31931549 455.4679776 -176.3586322 455.77607361 -177.42944336 456.09350586 C-178.43011337 456.3901564 -179.43078339 456.68680695 -180.46177673 456.9924469 C-183.25803418 457.82081845 -186.05477684 458.64753506 -188.8515625 459.47412109 C-192.26574433 460.48379705 -195.67685318 461.50303534 -199.0859375 462.52978516 C-200.27243896 462.88487907 -200.27243896 462.88487907 -201.48291016 463.24714661 C-202.94451606 463.68466628 -204.40520643 464.12526199 -205.86474609 464.56962585 C-208.69423266 465.41332787 -211.02769298 466 -214 466 C-214.09178254 427.80813714 -214.1621535 389.61629106 -214.20426132 351.42434001 C-214.20926347 346.90382415 -214.21444082 342.38330851 -214.21972656 337.86279297 C-214.2207758 336.96293214 -214.22182505 336.06307132 -214.22290608 335.13594198 C-214.24025762 320.61213684 -214.27176597 306.08839576 -214.30861118 291.56462848 C-214.34616746 276.63479275 -214.3682667 261.70499031 -214.37635398 246.77510929 C-214.38181149 237.58068607 -214.39897609 228.38644401 -214.43166587 219.19207662 C-214.45299565 212.86622691 -214.45915888 206.54046928 -214.45400551 200.21458632 C-214.45147203 196.57816081 -214.45503683 192.94204924 -214.4768219 189.30568123 C-214.78324159 135.37564857 -197.16005389 89.09730788 -160 50 C-159.42121094 49.36835938 -158.84242188 48.73671875 -158.24609375 48.0859375 C-152.48750154 41.99539637 -145.70202964 36.99532343 -139 32 C-138.43845215 31.5781543 -137.8769043 31.15630859 -137.29833984 30.72167969 C-120.35908693 18.18772763 -100.3651201 9.22864267 -80 4 C-79.24138672 3.80470703 -78.48277344 3.60941406 -77.70117188 3.40820312 C-72.49762706 2.10181867 -67.27333932 0.98521052 -62 0 C-60.79085937 -0.226875 -59.58171875 -0.45375 -58.3359375 -0.6875 C-39.45452804 -3.59855242 -18.81311207 -3.43648955 0 0 Z " fill="#0965C1" transform="translate(287,82)"/>
<path d="M0 0 C8.61757739 4.3087887 14.7716731 9.72352434 18.5 18.75 C20.51615181 27.07017578 20.79978306 35.99827856 16.75390625 43.6953125 C16.13322266 44.71238281 16.13322266 44.71238281 15.5 45.75 C15.07589844 46.44867188 14.65179688 47.14734375 14.21484375 47.8671875 C9.8613757 54.29431303 4.22886958 58.25845217 -2.9375 61.125 C-9.25860637 62.23396603 -15.23649004 62.14312944 -21.5 60.75 C-24.87226916 65.05784071 -28.23353984 69.37374533 -31.578125 73.703125 C-34.07402495 76.93122157 -36.60353731 80.12619101 -39.171875 83.296875 C-40.28163838 84.69760905 -41.39103138 86.09863665 -42.5 87.5 C-43.03399414 88.14195312 -43.56798828 88.78390625 -44.11816406 89.4453125 C-45.77688339 91.47588808 -45.77688339 91.47588808 -47.5 94.75 C-47.09145949 97.93917482 -47.09145949 97.93917482 -45.5 100.75 C-41.30599205 110.68398233 -39.7461292 119.5222516 -43.125 130 C-43.79341571 132.38585993 -43.79341571 132.38585993 -43.5 134.75 C-40.73766851 138.47314244 -37.19929042 141.00195569 -33.5 143.75 C-31.55709408 145.34761495 -29.61945527 146.95165991 -27.6875 148.5625 C-25.96146039 149.9621983 -24.23242141 151.3582083 -22.5 152.75 C-21.26056641 153.90822266 -21.26056641 153.90822266 -19.99609375 155.08984375 C-17.64687951 157.03539064 -17.64687951 157.03539064 -14.9921875 156.484375 C-14.12851563 156.15953125 -13.26484375 155.8346875 -12.375 155.5 C-8.18891236 154.09898821 -5.08530692 153.66401475 -0.6875 154 C3.21501725 154.17115732 3.21501725 154.17115732 6.453125 152.203125 C8.07905996 150.29600799 8.07905996 150.29600799 9.37890625 148.28125 C9.74886719 147.7759375 10.11882812 147.270625 10.5 146.75 C11.16 146.75 11.82 146.75 12.5 146.75 C12.5 146.09 12.5 145.43 12.5 144.75 C13.16 144.75 13.82 144.75 14.5 144.75 C14.73796799 144.18606033 14.97593597 143.62212067 15.22111511 143.04109192 C16.78522086 140.23903359 18.67720959 138.34812925 20.9621582 136.0925293 C21.88684402 135.17444992 22.81152985 134.25637054 23.76423645 133.31047058 C24.25877634 132.82416861 24.75331623 132.33786663 25.26284218 131.83682823 C26.81918749 130.30611566 28.3691069 128.76915017 29.91752625 127.23042297 C33.76655042 123.40808176 37.62627899 119.59660855 41.48583984 115.78491211 C44.74550056 112.56489269 48.00091639 109.34069138 51.25093651 106.11094093 C52.76951642 104.60521886 54.29404696 103.10570948 55.81892395 101.60636902 C65.63602373 92.55674827 65.63602373 92.55674827 69.55004883 80.40283203 C69.52280089 79.02107964 69.49152541 77.63940299 69.45703125 76.2578125 C69.43460398 74.7317844 69.41315295 73.2057417 69.39257812 71.6796875 C69.35584183 69.29255834 69.31328564 66.90619267 69.25317383 64.51953125 C68.8491619 47.66747025 71.96579868 33.70623232 83.8125 20.9375 C93.3100227 12.03757423 104.68365744 7.66816769 117.5625 7.5 C119.34333984 7.46132812 119.34333984 7.46132812 121.16015625 7.421875 C124.82775714 7.7822007 126.71836103 8.33118351 129.5 10.75 C130.09765625 13.10546875 130.09765625 13.10546875 129.5 15.75 C127.55859375 18.36328125 127.55859375 18.36328125 124.9375 21.0625 C124.00980221 22.03587308 123.08272126 23.00983442 122.15625 23.984375 C120.84140625 25.35335937 120.84140625 25.35335937 119.5 26.75 C117.74333329 28.72265033 116.01943848 30.71535847 114.31640625 32.734375 C112.5 34.75 112.5 34.75 109.96484375 37.078125 C107.40613414 39.53263376 105.32301983 41.70560213 103.5 44.75 C103.43379946 48.84841548 104.8896371 52.03106817 106.5 55.75 C107.2454532 57.93200362 107.97486009 60.11956028 108.6875 62.3125 C109.03167969 63.30378906 109.37585938 64.29507813 109.73046875 65.31640625 C110.5 67.75 110.5 67.75 110.5 69.75 C111.22469482 69.88140381 111.94938965 70.01280762 112.69604492 70.14819336 C115.35572527 70.71903464 117.80202259 71.47007253 120.36328125 72.37890625 C121.24951172 72.69150391 122.13574219 73.00410156 123.04882812 73.32617188 C124.4168457 73.8144043 124.4168457 73.8144043 125.8125 74.3125 C126.74384766 74.64185547 127.67519531 74.97121094 128.63476562 75.31054688 C130.92426723 76.12067821 133.21261458 76.93391683 135.5 77.75 C135.73412598 77.19062744 135.96825195 76.63125488 136.20947266 76.05493164 C137.82076408 73.17710297 139.81019791 71.19794799 142.1484375 68.87109375 C143.07140625 67.95005859 143.994375 67.02902344 144.9453125 66.08007812 C145.42645508 65.60513916 145.90759766 65.1302002 146.40332031 64.64086914 C147.86841192 63.19400611 149.32537011 61.73932894 150.78125 60.28320312 C161.38088538 49.75 161.38088538 49.75 165.5 49.75 C169.47130546 56.63359613 169.47550707 65.38142485 167.78125 72.96875 C163.54818416 87.57965466 156.66422302 97.90997385 143.5 105.75 C133.6494757 110.74506901 123.3560882 111.89307281 112.4453125 112.30859375 C107.10189225 113.10939811 103.7275289 116.27247183 100.00439453 120.00268555 C99.14645294 120.85755051 98.28851135 121.71241547 97.40457153 122.59318542 C96.48989105 123.51505142 95.57521057 124.43691742 94.6328125 125.38671875 C93.67060311 126.35012245 92.70802133 127.31315435 91.74508667 128.27583313 C89.72977332 130.2927073 87.7178511 132.31288332 85.70849609 134.33569336 C83.15293755 136.90816071 80.59092762 139.47407803 78.02652168 142.03772259 C76.03746548 144.02705303 74.05104404 146.01899735 72.06545639 148.01178932 C70.66905201 149.41285819 69.27120571 150.81248947 67.87332153 152.21208191 C63.47972145 156.63811549 59.24144425 161.12424698 55.17623901 165.85261536 C52.21440383 169.20520443 49.02560732 172.32667314 45.84375 175.46875 C44.7848053 176.52201477 44.7848053 176.52201477 43.70446777 177.59655762 C40.72102625 180.56383766 37.7315929 183.52505363 34.74267578 186.48681641 C32.54509421 188.66618465 30.35062062 190.84864947 28.15625 193.03125 C27.16063049 194.014422 27.16063049 194.014422 26.14489746 195.01745605 C23.00320626 198.14287009 19.97349798 201.30873729 17.08203125 204.66796875 C13.11594216 209.26188035 8.84337696 213.51413435 4.53125 217.78125 C3.27254089 219.03427917 3.27254089 219.03427917 1.98840332 220.31262207 C-1.5685452 223.85336129 -5.1314612 227.38807324 -8.69384766 230.92333984 C-11.30840164 233.5197206 -13.91988184 236.11916566 -16.53125 238.71875 C-17.32623901 239.50544067 -18.12122803 240.29213135 -18.94030762 241.10266113 C-23.12526746 245.26937616 -27.12140879 249.52420655 -30.97311401 254.00048828 C-32.90373163 256.21259722 -34.94846318 258.27940438 -37.05078125 260.328125 C-37.83130859 261.09640625 -38.61183594 261.8646875 -39.41601562 262.65625 C-41.0314663 264.23615286 -42.64869354 265.81424096 -44.26757812 267.390625 C-45.42870117 268.5353125 -45.42870117 268.5353125 -46.61328125 269.703125 C-47.66189331 270.72647949 -47.66189331 270.72647949 -48.73168945 271.77050781 C-51.98604799 275.41352024 -52.76176612 278.4395019 -53.2109375 283.2578125 C-53.32179688 284.32773437 -53.43265625 285.39765625 -53.546875 286.5 C-53.76329519 288.72603627 -53.97435331 290.95260127 -54.1796875 293.1796875 C-55.34812802 304.27987247 -58.43719005 313.73471152 -66.5 321.75 C-74.64778858 327.66255455 -83.53710998 329.78528007 -93.5 328.75 C-103.80777321 326.60793834 -111.65524722 320.35208964 -117.5 311.6875 C-121.73288299 304.10420787 -122.91294062 295.43387478 -120.8125 286.984375 C-116.48845998 274.08432227 -107.71635786 265.56498553 -98.25390625 256.24609375 C-96.95572296 254.95606511 -95.6582862 253.66528484 -94.36155701 252.37379456 C-90.96277751 248.99203851 -87.55551898 245.61896554 -84.14587402 242.24816895 C-78.69160716 236.85334391 -73.25007799 231.44567986 -67.80924797 226.03730965 C-65.92049595 224.16237911 -64.02790281 222.29139847 -62.13465881 220.42100525 C-56.87931717 215.2164136 -51.66622356 210.0469229 -46.92329407 204.36065674 C-45.32304069 202.54974574 -43.59726781 200.96478297 -41.7890625 199.36328125 C-34.65992949 193.27533736 -34.65992949 193.27533736 -30.4453125 185.16796875 C-30.18886238 181.80930701 -30.18886238 181.80930701 -30.421875 178.6875 C-30.51166906 175.31124333 -29.71075803 172.87934382 -28.5 169.75 C-37.10541491 162.34119604 -45.7528807 154.99120498 -54.5 147.75 C-55.17546875 148.09933594 -55.8509375 148.44867188 -56.546875 148.80859375 C-57.43890625 149.26363281 -58.3309375 149.71867188 -59.25 150.1875 C-60.13171875 150.63996094 -61.0134375 151.09242188 -61.921875 151.55859375 C-69.27987779 154.95888292 -78.60484492 154.89372782 -86.42578125 153.06640625 C-96.94680322 149.12306831 -103.51855491 142.63776857 -108.53515625 132.69921875 C-111.93445345 124.3037452 -111.99673507 113.77645116 -108.875 105.3125 C-104.54042577 96.17352008 -98.18265347 89.18673101 -88.9375 84.875 C-81.66443874 82.42664275 -72.45044942 82.75159203 -65.1875 85 C-61.44979452 85.12684864 -61.44979452 85.12684864 -59.22265625 82.70703125 C-56.99265291 80.09655341 -54.92014289 77.45412092 -52.90332031 74.6796875 C-51.40601282 72.62075945 -49.87471739 70.59059512 -48.3359375 68.5625 C-45.79814173 65.21106271 -43.28406911 61.84350605 -40.79785156 58.45361328 C-39.63095597 56.92189819 -38.36341529 55.46812372 -37.0859375 54.02734375 C-35.27489517 51.92854374 -35.27489517 51.92854374 -35.625 49.68359375 C-36.83614856 47.00717171 -38.16549704 44.43108451 -39.5625 41.84765625 C-42.83685404 34.52128909 -42.64774395 25.02750497 -40 17.5625 C-36.08094359 8.99301398 -30.15935076 3.27244777 -21.5 -0.25 C-15.00085808 -2.41638064 -6.47792524 -2.31444319 0 0 Z " fill="#FBFCFD" transform="translate(223.5,130.25)"/>
<path d="M0 0 C1.07572266 -0.01224609 2.15144531 -0.02449219 3.25976562 -0.03710938 C4.28650391 -0.03904297 5.31324219 -0.04097656 6.37109375 -0.04296875 C7.79119751 -0.04913208 7.79119751 -0.04913208 9.23999023 -0.05541992 C11.5625 0.1875 11.5625 0.1875 13.5625 2.1875 C14.19326285 5.00857236 14.72646614 7.77646934 15.1875 10.625 C15.38859375 11.78999023 15.38859375 11.78999023 15.59375 12.97851562 C16.11734542 16.08001705 16.5625 19.03684073 16.5625 22.1875 C17.119375 22.28546875 17.67625 22.3834375 18.25 22.484375 C23.25814333 23.46570038 27.26576451 24.83498687 31.640625 27.48046875 C34.35096606 28.47756576 35.83081628 28.07736667 38.5625 27.1875 C41.17920984 25.44575251 43.59743346 23.53488074 46.0625 21.5859375 C48.5625 20.1875 48.5625 20.1875 51.0625 20.18359375 C54.33910769 21.49935653 56.12599217 23.32808791 58.5625 25.875 C59.85800781 27.22271484 59.85800781 27.22271484 61.1796875 28.59765625 C63.74974969 31.39101893 66.21095055 34.20887069 68.5625 37.1875 C66.6986161 42.55232986 63.46291654 46.6937582 60.14453125 51.25 C58.32944968 53.99524325 58.32944968 53.99524325 58.73046875 56.65234375 C59.00503906 57.48894531 59.27960938 58.32554687 59.5625 59.1875 C59.7584375 60.24066406 59.954375 61.29382813 60.15625 62.37890625 C61.19750371 66.25219053 62.16495738 68.94677188 64.5625 72.1875 C68.72856103 74.27869499 73.25456425 74.83282943 77.82421875 75.4765625 C79.05785156 75.71117187 80.29148437 75.94578125 81.5625 76.1875 C84.47743325 80.55989988 83.89220877 84.54552061 83.875 89.6875 C83.89111328 90.65042969 83.90722656 91.61335938 83.92382812 92.60546875 C83.92447266 93.52972656 83.92511719 94.45398438 83.92578125 95.40625 C83.92876221 96.25123047 83.93174316 97.09621094 83.93481445 97.96679688 C83.47562199 100.70569173 82.79536399 101.57005998 80.5625 103.1875 C78.59847258 103.50626885 76.63233108 103.81751929 74.6574707 104.06030273 C67.66026701 105.01016383 67.66026701 105.01016383 61.953125 108.85351562 C58.90268533 113.28454222 56.85758585 117.98072627 55.5625 123.1875 C56.65095863 127.87467497 59.76935104 131.71767485 62.41796875 135.6875 C63.5625 138.1875 63.5625 138.1875 63.59765625 140.609375 C62.11960047 144.29057052 59.60725988 146.7225904 56.8125 149.4375 C56.02359375 150.24960937 56.02359375 150.24960937 55.21875 151.078125 C52.99890807 153.2759883 50.91097219 155.02312632 48.078125 156.359375 C43.57838257 156.05193918 40.62798466 152.5677417 37.37890625 149.703125 C34.0914824 146.87357787 34.0914824 146.87357787 29.9453125 146.24609375 C26.77751548 147.49763323 23.71881407 148.87534257 20.6484375 150.34765625 C18.5625 151.1875 18.5625 151.1875 15.5625 151.1875 C15.42972656 152.37988281 15.29695313 153.57226562 15.16015625 154.80078125 C14.98194017 156.36720678 14.80354544 157.93361198 14.625 159.5 C14.53798828 160.28568359 14.45097656 161.07136719 14.36132812 161.88085938 C14.27431641 162.63818359 14.18730469 163.39550781 14.09765625 164.17578125 C13.97982788 165.22052612 13.97982788 165.22052612 13.85961914 166.28637695 C13.5625 168.1875 13.5625 168.1875 12.5625 171.1875 C8.80095432 173.06827284 4.26426726 172.41552645 0.125 172.4375 C-1.32616211 172.4684375 -1.32616211 172.4684375 -2.80664062 172.5 C-4.19979492 172.50773437 -4.19979492 172.50773437 -5.62109375 172.515625 C-6.47243896 172.5249707 -7.32378418 172.53431641 -8.20092773 172.54394531 C-10.4375 172.1875 -10.4375 172.1875 -12.17919922 170.94506836 C-13.69608802 168.82630963 -14.02397389 167.31204241 -14.38671875 164.73828125 C-14.57524414 163.46694336 -14.57524414 163.46694336 -14.76757812 162.16992188 C-14.94450195 160.84831055 -14.94450195 160.84831055 -15.125 159.5 C-15.25455078 158.60732422 -15.38410156 157.71464844 -15.51757812 156.79492188 C-15.83538911 154.59378656 -16.14156025 152.39166436 -16.4375 150.1875 C-17.34242188 150.06761719 -18.24734375 149.94773437 -19.1796875 149.82421875 C-22.86818149 149.10332604 -25.32952856 147.74027803 -28.5078125 145.83203125 C-30.42163898 144.98671674 -30.42163898 144.98671674 -32.30859375 145.75 C-35.79063433 148.10117602 -38.85529821 150.96234639 -41.92773438 153.81835938 C-44.22819885 155.83820811 -45.79149177 157.14238196 -48.8984375 157.359375 C-52.6130362 155.64494483 -55.21591454 153.08660542 -58.125 150.25 C-58.70572266 149.69892578 -59.28644531 149.14785156 -59.88476562 148.58007812 C-62.09615642 146.47606122 -64.2791435 144.3458565 -66.4375 142.1875 C-66.23196583 136.70658872 -62.52628818 132.61466166 -59.41210938 128.359375 C-57.98358149 126.36441412 -57.98358149 126.36441412 -56.4375 123.1875 C-56.96642998 120.53938645 -56.96642998 120.53938645 -58.4375 118.1875 C-58.6540625 117.26710938 -58.870625 116.34671875 -59.09375 115.3984375 C-60.12113769 111.94527332 -61.00141291 109.87956822 -63.4375 107.1875 C-67.93682498 105.44217837 -72.71006093 105.09218952 -77.48046875 104.65234375 C-81.4375 104.1875 -81.4375 104.1875 -83.4375 102.1875 C-83.66455078 99.75732422 -83.66455078 99.75732422 -83.6328125 96.7421875 C-83.62636719 95.66582031 -83.61992187 94.58945312 -83.61328125 93.48046875 C-83.59652344 92.35253906 -83.57976562 91.22460938 -83.5625 90.0625 C-83.55347656 88.92683594 -83.54445312 87.79117188 -83.53515625 86.62109375 C-83.51153098 83.80968701 -83.47859013 80.99869702 -83.4375 78.1875 C-78.92654541 76.09595464 -75.27179879 74.94697948 -70.3125 74.3125 C-66.1755817 73.36899232 -64.85580231 72.8487995 -62.5546875 69.2109375 C-60.86219096 64.84913212 -59.4375 60.89321391 -59.4375 56.1875 C-60.283125 55.383125 -61.12875 54.57875 -62 53.75 C-62.804375 52.904375 -63.60875 52.05875 -64.4375 51.1875 C-64.15768266 47.85353286 -62.76073216 46.11709844 -60.48828125 43.76171875 C-59.88693359 43.12943359 -59.28558594 42.49714844 -58.66601562 41.84570312 C-58.03373047 41.19537109 -57.40144531 40.54503906 -56.75 39.875 C-55.51551592 38.5885923 -54.2824328 37.30083867 -53.05078125 36.01171875 C-52.44959473 35.38313965 -51.8484082 34.75456055 -51.22900391 34.10693359 C-48.53088833 31.216148 -45.98449843 28.21181611 -43.4375 25.1875 C-42.715625 25.331875 -41.99375 25.47625 -41.25 25.625 C-40.321875 25.810625 -39.39375 25.99625 -38.4375 26.1875 C-37.67695313 26.41308594 -36.91640625 26.63867188 -36.1328125 26.87109375 C-32.60437438 27.2853017 -30.70038533 26.30354181 -27.5 24.8125 C-23.43494825 22.93470835 -19.88878815 21.75800787 -15.4375 21.1875 C-15.36402344 19.65029297 -15.36402344 19.65029297 -15.2890625 18.08203125 C-15.21398929 16.7213294 -15.13844345 15.36065356 -15.0625 14 C-15.0315625 13.32646484 -15.000625 12.65292969 -14.96875 11.95898438 C-14.25830108 -0.17785128 -10.8499885 0.00647761 0 0 Z " fill="#FAFBFD" transform="translate(337.4375,264.8125)"/>
<path d="M0 0 C6.79060933 5.73670676 11.68217795 12.26254946 16 20 C16.69416016 21.24330078 16.69416016 21.24330078 17.40234375 22.51171875 C27.68616488 42.92307194 27.7690504 68.54574882 20.74609375 90.00390625 C17.77971705 98.3284632 13.5519995 105.16497541 8 112 C6.8553125 113.5778125 6.8553125 113.5778125 5.6875 115.1875 C-7.57049027 129.06214098 -24.91118654 134.98429565 -43.69506836 135.47485352 C-64.5858485 135.62801391 -80.48702964 130.52127362 -96 116 C-112.29278138 99.07726925 -116.51262946 76.8396465 -116.2109375 54.1796875 C-115.59324664 33.49085676 -107.51849463 15.45378376 -92.52734375 1.12890625 C-66.25231176 -21.00384867 -27.10278333 -20.21500832 0 0 Z " fill="#032B54" transform="translate(1033,204)"/>
<path d="M0 0 C1.00804687 -0.02900391 2.01609375 -0.05800781 3.0546875 -0.08789062 C9.93264528 -0.14580089 14.86954088 0.96753897 20.875 4.3125 C21.73351563 4.77011719 22.59203125 5.22773438 23.4765625 5.69921875 C34.80019355 12.97869585 41.46070155 25.01374416 44.49780273 38.00708008 C47.64733541 57.25694222 44.76167387 77.0041758 33.875 93.3125 C27.24782246 101.97271607 18.11427999 106.89940667 7.875 110.3125 C-4.66369533 111.27701503 -16.22988989 110.48342068 -26.375 102.125 C-29.125 99.3125 -29.125 99.3125 -30.125 97.3125 C-30.455 111.1725 -30.785 125.0325 -31.125 139.3125 C-40.035 139.3125 -48.945 139.3125 -58.125 139.3125 C-58.125 94.1025 -58.125 48.8925 -58.125 2.3125 C-49.545 2.3125 -40.965 2.3125 -32.125 2.3125 C-31.795 6.2725 -31.465 10.2325 -31.125 14.3125 C-30.17625 13.095625 -29.2275 11.87875 -28.25 10.625 C-20.58417416 1.80147801 -11.10535643 0.10411272 0 0 Z " fill="#032A53" transform="translate(1133.125,228.6875)"/>
<path d="M0 0 C12.75016784 8.69440017 18.46704715 20.92788407 21.73828125 35.6484375 C21.73828125 42.2484375 21.73828125 48.8484375 21.73828125 55.6484375 C-2.35171875 55.6484375 -26.44171875 55.6484375 -51.26171875 55.6484375 C-48.94378357 68.14129299 -48.94378357 68.14129299 -41.65234375 76.953125 C-35.04583609 81.04690111 -26.37146014 80.78587993 -18.98046875 79.140625 C-15.90769177 77.96811799 -14.15760316 76.52999048 -11.99145508 74.06567383 C-8.61136494 71.07253614 -7.09594448 71.05861499 -2.6484375 71.16015625 C-1.40126953 71.17626953 -0.15410156 71.19238281 1.13085938 71.20898438 C2.42443359 71.25087891 3.71800781 71.29277344 5.05078125 71.3359375 C6.36369141 71.35849609 7.67660156 71.38105469 9.02929688 71.40429688 C12.26678255 71.46316025 15.50195125 71.54534946 18.73828125 71.6484375 C15.34858403 82.51747963 10.38051602 91.10141715 0.73828125 97.6484375 C-13.73459539 104.4941761 -30.92430524 106.49640275 -46.51171875 102.0859375 C-60.26667361 96.90291103 -69.85743024 88.1160039 -76.0078125 74.79296875 C-82.40513294 58.74984428 -82.53889473 39.52154861 -75.97265625 23.50390625 C-69.35496881 9.43689686 -60.0282631 -0.00802699 -45.26171875 -5.3515625 C-30.82601363 -9.65029181 -12.76267692 -7.62674648 0 0 Z " fill="#032A53" transform="translate(648.26171875,235.3515625)"/>
<path d="M0 0 C8.91 0 17.82 0 27 0 C27.33 16.5 27.66 33 28 50 C30.31 47.36 32.62 44.72 35 42 C37.94921875 40.16015625 37.94921875 40.16015625 40.6875 39.0625 C41.59886719 38.68222656 42.51023437 38.30195313 43.44921875 37.91015625 C54.31243263 34.03400183 65.52489642 35.52654728 76 40 C84.66025466 44.79863291 89.95157494 52.36771224 93.17956543 61.58218384 C94.87778692 68.65673805 94.48302059 75.90303144 94.390625 83.13671875 C94.38314976 84.86976972 94.37746291 86.60282923 94.37347412 88.33589172 C94.35831858 92.86188759 94.3191259 97.38735687 94.2746582 101.91314697 C94.2334859 106.54554118 94.21541656 111.17802181 94.1953125 115.81054688 C94.15261989 124.87396461 94.08235479 133.9368558 94 143 C85.09 143 76.18 143 67 143 C66.9906543 140.92138672 66.98130859 138.84277344 66.97167969 136.70117188 C66.93782122 129.81190214 66.88222335 122.92292915 66.81609726 116.0338974 C66.77668922 111.85949699 66.74446829 107.68530541 66.72900391 103.51074219 C66.71379296 99.47747062 66.67926989 95.44477343 66.63169098 91.41175842 C66.61692266 89.87774159 66.60896161 88.34364274 66.60811615 86.80955505 C66.64077867 75.30676894 66.64077867 75.30676894 62 65 C56.10929191 60.43470123 49.20109044 60.28287896 42 61 C36.65766697 62.63016464 33.0196855 65.23818824 30 70 C28.04731244 74.03404657 27.73083679 77.34649474 27.68115234 81.80981445 C27.67110672 82.47378738 27.6610611 83.13776031 27.65071106 83.82185364 C27.6199805 86.00232123 27.6028726 88.18266661 27.5859375 90.36328125 C27.56721765 91.88072249 27.54764363 93.39815342 27.5272522 94.91557312 C27.47601109 98.89883327 27.43634264 102.88212713 27.39910889 106.86553955 C27.35901879 110.93453254 27.30794933 115.00338623 27.2578125 119.07226562 C27.16114818 127.04808877 27.07772861 135.02396981 27 143 C18.09 143 9.18 143 0 143 C0 95.81 0 48.62 0 0 Z " fill="#032A53" transform="translate(806,192)"/>
<path d="M0 0 C11.35324563 6.60293365 18.54934562 15.69299632 22.12109375 28.3984375 C23.41055888 34.10616001 23.46936768 39.85743675 23.5 45.6875 C23.50636475 46.72011963 23.51272949 47.75273926 23.51928711 48.81665039 C23.30024391 62.12326042 19.94052629 74.93497408 10.6875 84.875 C1.94478743 92.88915319 -9.13546746 96.69586664 -20.9140625 96.34765625 C-33.36592412 94.94485159 -42.20586649 88.87903453 -50.17578125 79.546875 C-59.50305709 66.52463978 -60.89465052 48.44849224 -58.71142578 32.95166016 C-56.54112299 21.61073562 -50.43839476 9.96989152 -41 3 C-28.83050477 -3.56332327 -12.96200752 -6.4484359 0 0 Z " fill="#FDFDFE" transform="translate(1005,218)"/>
<path d="M0 0 C34.32 0 68.64 0 104 0 C104 8.58 104 17.16 104 26 C91.46 26 78.92 26 66 26 C66 64.61 66 103.22 66 143 C56.76 143 47.52 143 38 143 C38 104.39 38 65.78 38 26 C25.46 26 12.92 26 0 26 C0 17.42 0 8.84 0 0 Z " fill="#022953" transform="translate(471,192)"/>
<path d="M0 0 C1.65322266 -0.01063477 1.65322266 -0.01063477 3.33984375 -0.02148438 C16.38975661 0.07913773 28.30533251 4.08463375 38.125 12.9375 C45.15716426 20.47714003 48.61276578 29.33962626 49.875 39.4375 C40.305 39.4375 30.735 39.4375 20.875 39.4375 C15.875 29.4375 15.875 29.4375 15.875 27.4375 C8.54221269 23.48907606 0.82569764 21.79950309 -7.3671875 24.0546875 C-14.67872373 27.26948748 -19.49050636 33.25656236 -22.5625 40.5 C-26.13870463 51.69305606 -24.9883921 63.81861429 -20.125 74.4375 C-16.27496044 80.68134654 -11.24621262 84.58738104 -4.125 86.4375 C2.15591812 87.28600912 8.38476866 86.79982583 13.875 83.4375 C17.63510418 80.04603348 19.63604866 77.39330536 20.875 72.4375 C30.775 72.4375 40.675 72.4375 50.875 72.4375 C46.53715076 86.89699747 40.68805064 97.04328832 27.69140625 104.9296875 C23.87373563 106.97354445 20.07480293 108.40735966 15.875 109.4375 C15.17117188 109.61925781 14.46734375 109.80101562 13.7421875 109.98828125 C-2.44200751 112.52395213 -18.03103641 110.63929726 -31.69140625 101.28125 C-43.02296196 92.69618693 -49.68358362 80.41060385 -52.125 66.4375 C-52.36344792 62.73144133 -52.35595888 59.02551771 -52.375 55.3125 C-52.395625 54.33023438 -52.41625 53.34796875 -52.4375 52.3359375 C-52.51731804 37.17051042 -46.99566011 23.57298652 -36.46875 12.625 C-25.98417377 2.83939552 -14.12816303 -0.25793466 0 0 Z " fill="#032A53" transform="translate(739.125,228.5625)"/>
<path d="M0 0 C6.54135457 4.6381859 10.67292419 10.20030907 14.02734375 17.4375 C14.34832031 18.12457031 14.66929687 18.81164062 15 19.51953125 C18.97952589 29.49611012 17.80359659 40.45745249 14.34765625 50.40234375 C10.3303118 59.63748174 3.42355318 68.40632932 -5.81640625 72.78515625 C-18.17976138 77.42141442 -29.20852591 77.56382753 -41.49609375 72.37109375 C-52.73178578 66.56151238 -58.62555461 57.07525642 -62.97265625 45.4375 C-65.50255494 34.55893564 -63.9821177 24.39451108 -58.39453125 14.69921875 C-56.69161937 12.17169864 -54.90103408 9.79668564 -52.97265625 7.4375 C-52.44929688 6.78910156 -51.9259375 6.14070313 -51.38671875 5.47265625 C-38.06067577 -9.38100629 -16.40608109 -9.9682518 0 0 Z " fill="#0965C1" transform="translate(360.97265625,315.5625)"/>
<path d="M0 0 C0.69480469 -0.01611328 1.38960937 -0.03222656 2.10546875 -0.04882812 C7.84266597 -0.05423038 11.7181357 1.2956809 16.1015625 4.96875 C23.93912556 13.73493427 25.92112341 22.9023042 25.4453125 34.44140625 C24.74206128 42.9404545 22.50858183 51.51704744 17.125 58.3125 C9.53745344 64.65771939 2.91124057 66.18294071 -6.875 65.3125 C-13.05946831 63.60997638 -17.4087175 59.62231491 -20.875 54.3125 C-23.83019639 48.28455546 -23.24702331 41.83100675 -23.24560547 35.27563477 C-23.24996723 33.01696706 -23.28628861 30.76027421 -23.32421875 28.50195312 C-23.39352848 19.78341718 -23.13133445 13.14754659 -17.09375 6.2890625 C-16.5265625 5.84304688 -15.959375 5.39703125 -15.375 4.9375 C-14.8078125 4.47601563 -14.240625 4.01453125 -13.65625 3.5390625 C-9.12501617 0.41887078 -5.46687961 -0.02507743 0 0 Z " fill="#FDFDFE" transform="translate(1124.875,250.6875)"/>
<path d="M0 0 C6.6169278 7.16833845 8.03244881 14.31489044 7.6640625 23.94140625 C6.78509592 31.36286932 3.79099498 35.50785684 -1.87109375 40.2109375 C-8.35237506 44.44196106 -15.25761669 44.10782648 -22.75 43.4375 C-28.95594371 41.80538567 -33.28618117 37.74354094 -36.75 32.4375 C-40.06984706 25.84328323 -39.87723242 17.02490787 -38.1328125 9.92578125 C-35.34308288 3.64271765 -29.90152598 -1.02026388 -23.8125 -4 C-15.09236041 -5.60165829 -7.72776018 -4.39077283 0 0 Z " fill="#072750" transform="translate(641.75,393.5625)"/>
<path d="M0 0 C21 0 21 0 30 4 C36.67429529 10.79564612 38.40618334 15.45227836 38.36572266 24.92114258 C38.2028787 31.48494905 36.98674982 35.66895626 32.64453125 40.51171875 C23.76689876 48.81813628 11.18726244 46 0 46 C0 30.82 0 15.64 0 0 Z " fill="#052049" transform="translate(818,390)"/>
<path d="M0 0 C2.97 0 5.94 0 9 0 C10.14739197 4.17874969 11.28644776 8.35965701 12.41796875 12.54272461 C12.80372743 13.96423887 13.19172258 15.38514823 13.58203125 16.80541992 C14.14397564 18.85178631 14.69773333 20.90022232 15.25 22.94921875 C15.58515625 24.17987061 15.9203125 25.41052246 16.265625 26.6784668 C16.91141558 29.59933808 17.15781058 32.02872271 17 35 C17.66 35 18.32 35 19 35 C19.13921875 33.43572266 19.13921875 33.43572266 19.28125 31.83984375 C20.06197514 25.60366428 21.83870997 19.61052975 23.5 13.5625 C23.82097656 12.36689453 24.14195312 11.17128906 24.47265625 9.93945312 C26.86530908 1.13469092 26.86530908 1.13469092 28 0 C31.00003445 -0.14177857 33.99757235 -0.04228771 37 0 C39.76816898 7.95641383 41.86718625 16.01169472 43.92578125 24.17578125 C44.30669922 25.66658203 44.30669922 25.66658203 44.6953125 27.1875 C44.92234863 28.08855469 45.14938477 28.98960937 45.38330078 29.91796875 C45.8110332 31.97008955 45.8110332 31.97008955 47 33 C49.97 22.11 52.94 11.22 56 0 C58.97 0 61.94 0 65 0 C62.38206875 9.76093172 59.59560751 19.47276775 56.8125 29.1875 C56.34433901 30.82354996 55.87623959 32.45961754 55.40820312 34.09570312 C54.2728445 38.06400539 53.13665522 42.03206894 52 46 C48.7 46 45.4 46 42 46 C41.06164152 42.72941074 40.12417582 39.45857125 39.1875 36.1875 C38.91268799 35.22875977 38.63787598 34.27001953 38.35473633 33.28222656 C36.68956994 27.45883412 35.06403181 21.62863169 33.54296875 15.765625 C33.14841609 13.99240771 33.14841609 13.99240771 32 13 C29.03 23.89 26.06 34.78 23 46 C19.7 46 16.4 46 13 46 C9.43846419 34.41974008 5.90825437 22.83223766 2.5625 11.1875 C2.17457275 9.84619019 2.17457275 9.84619019 1.77880859 8.4777832 C1.54371582 7.65366943 1.30862305 6.82955566 1.06640625 5.98046875 C0.85959229 5.25754639 0.65277832 4.53462402 0.43969727 3.78979492 C0 2 0 2 0 0 Z " fill="#072750" transform="translate(658,390)"/>
<path d="M0 0 C23.4375 0 23.4375 0 29.375 5 C32.1382722 8.4009504 32.28584232 11.64603104 32.21484375 15.9375 C31.87844442 19.16693357 30.80298752 21.32660471 29 24 C26.3125 25.875 26.3125 25.875 24 27 C25.42618704 31.10682132 27.44080493 34.17064316 30.0625 37.625 C33.89451023 42.68353068 33.89451023 42.68353068 35 46 C31.53984557 46.51698077 28.44304938 46.70095288 25 46 C22.33345099 43.60942846 20.8728267 40.72473707 19.25 37.5625 C18.39842387 35.97058967 17.52918885 34.38797066 16.640625 32.81640625 C16.27485352 32.10943604 15.90908203 31.40246582 15.53222656 30.67407227 C13.68861197 28.31433887 13.68861197 28.31433887 8 28 C8 33.94 8 39.88 8 46 C5.36 46 2.72 46 0 46 C0 30.82 0 15.64 0 0 Z " fill="#04204A" transform="translate(1042,390)"/>
<path d="M0 0 C4.70754235 1.95833762 7.30262762 5.69239896 9.8125 10 C11.7624054 15.84971619 11.27146855 21.47921686 8.921875 27.109375 C6.3245025 31.53588307 2.45176701 34.18036649 -2.0625 36.4375 C-7.68236366 37.44907546 -12.88074029 36.93804307 -18 34.3125 C-22.2923264 31.19845928 -24.51820475 28.00788575 -26.1875 23 C-26.91645499 16.27210394 -26.50015493 10.42559813 -22.1875 5 C-15.31074338 -1.43664419 -8.88883097 -2.55173665 0 0 Z " fill="#0A64C0" transform="translate(155.1875,231)"/>
<path d="M0 0 C4.21856145 2.14708145 6.57158214 4.38528459 9.125 8.375 C9.9375 11.75 9.9375 11.75 10.125 14.375 C7.07475355 14.6627591 4.16382726 14.82379477 1.125 14.375 C-0.8125 12 -0.8125 12 -1.875 9.375 C-4.59582024 6.65417976 -6.74279643 6.61475683 -10.48828125 6.2890625 C-14.40103841 6.42994737 -17.03458294 7.71162791 -19.875 10.375 C-23.61473951 16.40683792 -23.87036106 22.8071415 -22.37109375 29.6875 C-21.36175241 32.82510965 -20.18212942 35.07717753 -17.8125 37.375 C-13.45562343 38.85819202 -9.42473559 39.0484806 -4.875 38.375 C-0.35008545 35.82973557 0.12211347 34.38221632 2.125 29.375 C-1.505 29.375 -5.135 29.375 -8.875 29.375 C-8.875 27.065 -8.875 24.755 -8.875 22.375 C-2.275 22.375 4.325 22.375 11.125 22.375 C11.125 29.965 11.125 37.555 11.125 45.375 C8.815 45.375 6.505 45.375 4.125 45.375 C3.795 43.725 3.465 42.075 3.125 40.375 C1.7328125 41.5815625 1.7328125 41.5815625 0.3125 42.8125 C-4.37578623 46.8756814 -8.94341847 46.6547551 -14.9296875 46.58984375 C-21.23497075 46.1299093 -24.81768828 42.98059709 -28.875 38.375 C-33.41826615 31.72236028 -33.42960589 25.25832661 -32.875 17.375 C-31.5689554 10.96001624 -29.35641495 5.71975895 -23.78125 1.96484375 C-15.95387157 -2.48140444 -8.45124568 -3.32163387 0 0 Z " fill="#06254E" transform="translate(899.875,390.625)"/>
<path d="M0 0 C4.21856145 2.14708145 6.57158214 4.38528459 9.125 8.375 C9.9375 11.75 9.9375 11.75 10.125 14.375 C7.07498682 14.66273709 4.1635411 14.82455243 1.125 14.375 C-0.75 12 -0.75 12 -1.875 9.375 C-6.14168963 6.53054025 -9.87097135 6.87860036 -14.875 7.375 C-18.69729046 8.75753059 -19.61354921 9.93323832 -21.6875 13.4375 C-23.89715935 19.42252019 -23.62508646 25.7893741 -21.6875 31.8125 C-19.69102672 35.73660266 -19.00731198 36.9682555 -14.875 38.375 C-10.23024936 38.91063846 -6.2507491 38.91956735 -1.875 37.1875 C0.44196033 35.0877547 1.24093727 33.34866555 2.125 30.375 C-1.175 30.045 -4.475 29.715 -7.875 29.375 C-7.875 27.065 -7.875 24.755 -7.875 22.375 C-1.605 22.375 4.665 22.375 11.125 22.375 C11.125 29.965 11.125 37.555 11.125 45.375 C8.815 45.375 6.505 45.375 4.125 45.375 C3.795 43.725 3.465 42.075 3.125 40.375 C2.361875 41.179375 1.59875 41.98375 0.8125 42.8125 C-3.7907962 47.2016894 -8.48032454 46.7729782 -14.57421875 46.71875 C-20.76990211 46.07351907 -24.65262567 42.92566437 -28.75 38.4375 C-33.47147265 31.6330247 -33.78258233 24.42033922 -32.875 16.375 C-30.77770186 9.53069225 -26.96412207 4.19360198 -20.875 0.375 C-14.16351762 -2.8052776 -6.87778564 -2.76031531 0 0 Z " fill="#08274F" transform="translate(1016.875,390.625)"/>
<path d="M0 0 C7 0 7 0 9.046875 1.625 C9.60890625 2.40875 10.1709375 3.1925 10.75 4 C11.41 4.90234375 12.07 5.8046875 12.75 6.734375 C13.86375 8.35085938 13.86375 8.35085938 15 10 C15.93724059 11.33872331 16.87475588 12.67725435 17.8125 14.015625 C21.95052094 19.96077371 25.98203828 25.97305742 30 32 C30.33 21.44 30.66 10.88 31 0 C33.64 0 36.28 0 39 0 C39 15.18 39 30.36 39 46 C30 46 30 46 27.91186523 44.43041992 C27.46528564 43.70443604 27.01870605 42.97845215 26.55859375 42.23046875 C26.03716797 41.42287109 25.51574219 40.61527344 24.97851562 39.78320312 C24.46998047 38.92662109 23.96144531 38.07003906 23.4375 37.1875 C22.39660382 35.53384985 21.35361072 33.88151787 20.30859375 32.23046875 C19.21675781 30.50441406 18.12492188 28.77835937 17 27 C14.36 23.37 11.72 19.74 9 16 C8.67 25.9 8.34 35.8 8 46 C5.36 46 2.72 46 0 46 C0 30.82 0 15.64 0 0 Z " fill="#082951" transform="translate(551,390)"/>
<path d="M0 0 C2.97 0 5.94 0 9 0 C12.733938 8.73935978 16.17378593 17.56799778 19.50415039 26.46728516 C20.32490565 28.65811419 21.15157103 30.84665698 21.97851562 33.03515625 C22.50295846 34.43215871 23.02706025 35.82928927 23.55078125 37.2265625 C23.79758133 37.87855621 24.04438141 38.53054993 24.29866028 39.20230103 C26 43.77073094 26 43.77073094 26 46 C23.03 46 20.06 46 17 46 C16.01 42.7 15.02 39.4 14 36 C8.06 36.33 2.12 36.66 -4 37 C-4.99 39.97 -5.98 42.94 -7 46 C-9.97 46 -12.94 46 -16 46 C-15.2351876 40.94499731 -13.38962948 36.31290003 -11.62109375 31.54296875 C-11.28956802 30.64000565 -10.9580423 29.73704254 -10.61647034 28.80671692 C-9.56024931 25.93236692 -8.49894844 23.05992318 -7.4375 20.1875 C-6.71906487 18.23514971 -6.00096207 16.2826771 -5.28320312 14.33007812 C-3.52598381 9.55195915 -1.7642073 4.77554301 0 0 Z " fill="#05244E" transform="translate(1104,390)"/>
<path d="M0 0 C2.64 0 5.28 0 8 0 C8 6.27 8 12.54 8 19 C14.93 19 21.86 19 29 19 C29 12.73 29 6.46 29 0 C31.97 0 34.94 0 38 0 C38 15.18 38 30.36 38 46 C35.03 46 32.06 46 29 46 C29 39.73 29 33.46 29 27 C22.07 27 15.14 27 8 27 C8 33.27 8 39.54 8 46 C5.36 46 2.72 46 0 46 C0 30.82 0 15.64 0 0 Z " fill="#1C4268" transform="translate(1142,390)"/>
<path d="M0 0 C5.28097404 1.79353835 7.79895251 4.60999202 11 9 C12.79973286 14.39919857 12.70112627 19.93557265 10.875 25.3125 C7.99644284 29.43843192 4.86637047 32.37787651 0 34 C-4.91266479 34.51578753 -8.8290227 34.57444169 -13.3125 32.375 C-21.08358434 25.50753012 -21.08358434 25.50753012 -22.0625 19.125 C-22.32968725 13.89913179 -21.1292129 10.1784742 -18 6 C-12.34617242 0.21669545 -7.85482529 -0.65356019 0 0 Z " fill="#0963C0" transform="translate(140,408)"/>
<path d="M0 0 C6.58773811 3.87197668 10.47568467 9.00002494 12.625 16.3125 C12.625 18.2925 12.625 20.2725 12.625 22.3125 C-2.555 22.3125 -17.735 22.3125 -33.375 22.3125 C-32.35865566 13.16540091 -31.34113723 9.17426519 -25 3 C-17.22906501 -1.99560107 -8.77079876 -4.07867012 0 0 Z " fill="#F8F9FA" transform="translate(630.375,251.6875)"/>
<path d="M0 0 C2.64 0 5.28 0 8 0 C8.33 6.27 8.66 12.54 9 19 C9.94875 17.906875 10.8975 16.81375 11.875 15.6875 C12.51695312 14.96949219 13.15890625 14.25148438 13.8203125 13.51171875 C15.3693808 11.72668127 16.85892455 9.8892213 18.3046875 8.01953125 C24.52929409 0.3332359 24.52929409 0.3332359 29.0859375 -0.69921875 C31.81226786 -0.68870591 34.32357617 -0.50373757 37 0 C31.17371096 7.15801225 24.5617015 13.52591766 18 20 C19.73365257 24.07206766 22.50266493 27.33058579 25.25 30.75 C26.24155217 31.9968659 27.23244158 33.24425914 28.22265625 34.4921875 C28.69977051 35.09256836 29.17688477 35.69294922 29.66845703 36.31152344 C32.17745624 39.49308533 34.58998536 42.74322346 37 46 C32.94841778 47.2422687 30.03655322 47.36937444 26 46 C21.29734451 41.63956875 17.76682933 36.11093274 14.24584961 30.78759766 C12.98724884 28.87004229 12.98724884 28.87004229 11 27 C7.97906785 30.02093215 8.53323166 33.56372072 8.375 37.625 C8.31699219 38.82769531 8.31699219 38.82769531 8.2578125 40.0546875 C8.16346069 42.03607556 8.08063785 44.01800645 8 46 C5.36 46 2.72 46 0 46 C0 30.82 0 15.64 0 0 Z " fill="#03234E" transform="translate(501,390)"/>
<path d="M0 0 C9.57 0 19.14 0 29 0 C29 2.31 29 4.62 29 7 C22.07 7 15.14 7 8 7 C8 11.29 8 15.58 8 20 C14.6 20 21.2 20 28 20 C28 22.31 28 24.62 28 27 C21.4 27 14.8 27 8 27 C8 30.96 8 34.92 8 39 C15.26 39 22.52 39 30 39 C30 41.31 30 43.62 30 46 C20.1 46 10.2 46 0 46 C0 30.82 0 15.64 0 0 Z " fill="#042851" transform="translate(774,390)"/>
<path d="M0 0 C8.91 0 17.82 0 27 0 C27 2.31 27 4.62 27 7 C20.73 7 14.46 7 8 7 C8 10.96 8 14.92 8 19 C13.61 19 19.22 19 25 19 C25 21.64 25 24.28 25 27 C19.72 27 14.44 27 9 27 C9 30.96 9 34.92 9 39 C15.27 39 21.54 39 28 39 C28 41.31 28 43.62 28 46 C18.76 46 9.52 46 0 46 C0 30.82 0 15.64 0 0 Z " fill="#0D345C" transform="translate(925,390)"/>
<path d="M0 0 C4.54159496 2.22951025 6.79312116 4.49796718 9 9 C9.73760348 14.6815403 10.46527328 21.65489835 7.25 26.6875 C3.28775596 30.75980637 0.47230121 32.76676404 -5.3125 33.3125 C-10.38517063 32.88261266 -13.04686239 30.68373932 -16.8125 27.4375 C-20.71292191 22.71593663 -19.47180242 14.70094591 -19 9 C-17.81047008 5.4443399 -15.66917033 3.59044441 -12.875 1.125 C-8.55651358 -0.56484251 -4.5732948 -0.65960983 0 0 Z " fill="#FCFCFD" transform="translate(631,397)"/>
<path d="M0 0 C5.34740414 1.95385921 8.45618143 4.91236287 11 10 C11.59057744 15.67862925 11.29370905 20.16922672 8 25 C5.1756983 28.24794695 3.6197092 29.67508096 -0.58984375 30.51953125 C-5.57706532 30.81370207 -9.10343168 30.50957191 -13.0625 27.3125 C-16.85906814 23.41602217 -17.88018287 20.5096959 -18.3125 15.0625 C-18.19249212 11.07973842 -17.21924002 8.36712279 -15 5 C-10.0900254 0.56904731 -6.61009495 -0.67827467 0 0 Z " fill="#0A63C0" transform="translate(216,145)"/>
<path d="M0 0 C12.98360656 0 12.98360656 0 17.4375 4.4296875 C21.19622673 8.72232428 22.38523277 12.09714584 22.26953125 17.80859375 C21.69496652 22.48005481 19.98359926 26.37290015 16.3046875 29.390625 C10.52369724 32.71410928 7.17183405 32 0 32 C0 21.44 0 10.88 0 0 Z " fill="#FAFBFB" transform="translate(826,397)"/>
<path d="M0 0 C5.94 0 11.88 0 18 0 C17.34 1.32 16.68 2.64 16 4 C16.804375 4.53625 17.60875 5.0725 18.4375 5.625 C21 8 21 8 21.9375 11 C22.00358487 14.17207376 21.84071894 15.4580548 20 18 C17.45627333 20.28935401 15.36652717 21.39883443 12 22 C12.33 22.99 12.66 23.98 13 25 C10.69 25.33 8.38 25.66 6 26 C5.67 31.61 5.34 37.22 5 43 C3.35 43 1.7 43 0 43 C0 28.81 0 14.62 0 0 Z " fill="#022A55" transform="translate(1044,392)"/>
<path d="M0 0 C3.43615111 2.12017834 5.80717883 4.09622164 7 8 C7.42184328 13.31522527 7.54218334 16.74937999 4 21 C0.71769265 23.76012209 -1.28618321 24.91233829 -5.5625 25.4375 C-10.40709611 24.82091504 -12.7296159 23.13304528 -16.3125 19.9375 C-18.77687148 15.64766817 -18.90450566 11.83176101 -18 7 C-14.00544169 -0.72070757 -7.8193051 -1.94086323 0 0 Z " fill="#0965C1" transform="translate(227,301)"/>
<path d="M0 0 C2.64 0 5.28 0 8 0 C8 12.87 8 25.74 8 39 C14.27 39 20.54 39 27 39 C27 41.31 27 43.62 27 46 C18.09 46 9.18 46 0 46 C0 30.82 0 15.64 0 0 Z " fill="#032C57" transform="translate(734,390)"/>
<path d="M0 0 C2.64 0 5.28 0 8 0 C8 6.6 8 13.2 8 20 C14.93 20 21.86 20 29 20 C29 20.33 29 20.66 29 21 C24.05 21.495 24.05 21.495 19 22 C19 22.66 19 23.32 19 24 C22.3 24.33 25.6 24.66 29 25 C29 25.33 29 25.66 29 26 C22.07 26 15.14 26 8 26 C8 32.6 8 39.2 8 46 C5.36 46 2.72 46 0 46 C0 30.82 0 15.64 0 0 Z " fill="#011E47" transform="translate(1142,390)"/>
<path d="M0 0 C3.37538004 1.68769002 3.90150506 5.55093626 5.125 8.9375 C5.54072266 10.0502832 5.54072266 10.0502832 5.96484375 11.18554688 C8 16.71455511 8 16.71455511 8 19 C7.34 19 6.68 19 6 19 C5.67 20.32 5.34 21.64 5 23 C1.04 23.33 -2.92 23.66 -7 24 C-8.32 27.63 -9.64 31.26 -11 35 C-13.97 35 -16.94 35 -20 35 C-18.98803334 29.40308945 -17.0970259 24.21890007 -15.1875 18.875 C-14.84396484 17.87339844 -14.50042969 16.87179687 -14.14648438 15.83984375 C-13.80294922 14.87949219 -13.45941406 13.91914063 -13.10546875 12.9296875 C-12.79762451 12.05554199 -12.48978027 11.18139648 -12.17260742 10.28076172 C-10.80848117 7.62748929 -9.56870065 6.4891814 -7 5 C-6.01 5 -5.02 5 -4 5 C-3 7 -3 7 -3.55859375 9.05859375 C-3.84863281 9.84363281 -4.13867188 10.62867188 -4.4375 11.4375 C-5.46835645 14.24346352 -6 15.97296354 -6 19 C-2.37 19.33 1.26 19.66 5 20 C5 19.34 5 18.68 5 18 C1.37 18 -2.26 18 -6 18 C-4.02 12.06 -2.04 6.12 0 0 Z " fill="#052851" transform="translate(1108,401)"/>
<path d="M0 0 C5.94 0 11.88 0 18 0 C17.01 0.495 17.01 0.495 16 1 C16.33 1.99 16.66 2.98 17 4 C11.555 4.495 11.555 4.495 6 5 C6 15.56 6 26.12 6 37 C10.29 37.66 14.58 38.32 19 39 C19 39.99 19 40.98 19 42 C13.32745403 44.83627298 6.3420992 43 0 43 C0 28.81 0 14.62 0 0 Z " fill="#032D57" transform="translate(819,392)"/>
<path d="M0 0 C8.58 0 17.16 0 26 0 C26 1.32 26 2.64 26 4 C25.01 3.67 24.02 3.34 23 3 C23.66 3 24.32 3 25 3 C25 2.34 25 1.68 25 1 C17.08 1 9.16 1 1 1 C1.33 9.91 1.66 18.82 2 28 C2.66 28 3.32 28 4 28 C4.66 27.01 5.32 26.02 6 25 C6 29.29 6 33.58 6 38 C12.93 38 19.86 38 27 38 C27 39.65 27 41.3 27 43 C18.09 43 9.18 43 0 43 C0 28.81 0 14.62 0 0 Z " fill="#042C56" transform="translate(776,392)"/>
<path d="M0 0 C9.57 0 19.14 0 29 0 C29 2.31 29 4.62 29 7 C22.07 7 15.14 7 8 7 C8 6.67 8 6.34 8 6 C14.6 6 21.2 6 28 6 C28 4.68 28 3.36 28 2 C19.42 2 10.84 2 2 2 C2 16.19 2 30.38 2 45 C10.91 45 19.82 45 29 45 C29 43.35 29 41.7 29 40 C22.07 40 15.14 40 8 40 C8 39.67 8 39.34 8 39 C15.26 39 22.52 39 30 39 C30 41.31 30 43.62 30 46 C20.1 46 10.2 46 0 46 C0 30.82 0 15.64 0 0 Z " fill="#06173D" transform="translate(774,390)"/>
<path d="M0 0 C34.32 0 68.64 0 104 0 C104 0.33 104 0.66 104 1 C76.775 1.495 76.775 1.495 49 2 C49 2.33 49 2.66 49 3 C33.82 3 18.64 3 3 3 C3 10.26 3 17.52 3 25 C2.01 25.33 1.02 25.66 0 26 C0 17.42 0 8.84 0 0 Z " fill="#0E3B62" transform="translate(471,192)"/>
<path d="M0 0 C8.91 0 17.82 0 27 0 C27 2.31 27 4.62 27 7 C20.73 7 14.46 7 8 7 C8 6.67 8 6.34 8 6 C13.94 6 19.88 6 26 6 C26 4.68 26 3.36 26 2 C18.08 2 10.16 2 2 2 C2 16.19 2 30.38 2 45 C10.25 45 18.5 45 27 45 C27 43.35 27 41.7 27 40 C20.73 40 14.46 40 8 40 C8 39.67 8 39.34 8 39 C14.6 39 21.2 39 28 39 C28 41.31 28 43.62 28 46 C18.76 46 9.52 46 0 46 C0 30.82 0 15.64 0 0 Z " fill="#04153C" transform="translate(925,390)"/>
<path d="M0 0 C9.01803607 -0.36072144 9.01803607 -0.36072144 13.0625 1.125 C15.69342077 3.67105236 15.92612155 5.37995604 16 9 C15.19827586 11.62382447 14.56841165 12.64300204 12.24609375 14.1015625 C9.59080119 15.16367952 7.5992592 15.19998051 4.75 15.125 C3.1825 15.08375 1.615 15.0425 0 15 C0 10.05 0 5.1 0 0 Z " fill="#E7ECEF" transform="translate(1050,397)"/>
<path d="M0 0 C2.64 0 5.28 0 8 0 C8 12.87 8 25.74 8 39 C7.67 39 7.34 39 7 39 C7 26.79 7 14.58 7 2 C5.35 2 3.7 2 2 2 C2.00523682 2.91177002 2.01047363 3.82354004 2.01586914 4.76293945 C2.03307523 8.19784193 2.04552912 11.63269753 2.05493164 15.06762695 C2.05991084 16.5445224 2.06669663 18.02141305 2.07543945 19.49829102 C2.0877903 21.64079992 2.09329244 23.78324281 2.09765625 25.92578125 C2.10289307 27.20880127 2.10812988 28.49182129 2.11352539 29.8137207 C1.97593134 34.88753834 1.45953074 39.94516182 1 45 C9.25 45 17.5 45 26 45 C26 43.35 26 41.7 26 40 C20.39 40 14.78 40 9 40 C9 39.67 9 39.34 9 39 C14.94 39 20.88 39 27 39 C27 41.31 27 43.62 27 46 C18.09 46 9.18 46 0 46 C0 30.82 0 15.64 0 0 Z " fill="#000B2E" transform="translate(734,390)"/>
<path d="M0 0 C2.64 0 5.28 0 8 0 C8 15.18 8 30.36 8 46 C5.36 46 2.72 46 0 46 C0 45.67 0 45.34 0 45 C1.98 45 3.96 45 6 45 C6 30.81 6 16.62 6 2 C4.68 2 3.36 2 2 2 C2 12.56 2 23.12 2 34 C0 32 0 32 -0.22705078 28.83544922 C-0.22673389 27.49182037 -0.21542181 26.1481659 -0.1953125 24.8046875 C-0.1924826 24.09724396 -0.18965271 23.38980042 -0.18673706 22.66091919 C-0.17553137 20.3987749 -0.15042679 18.13702485 -0.125 15.875 C-0.11497067 14.34245363 -0.10584474 12.80990106 -0.09765625 11.27734375 C-0.07559086 7.51807699 -0.04105896 3.75910536 0 0 Z " fill="#011541" transform="translate(582,390)"/>
<path d="M0 0 C5.28 0 10.56 0 16 0 C16 6.6 16 13.2 16 20 C14.68 19.67 13.36 19.34 12 19 C12.99 19 13.98 19 15 19 C13.42422186 15.88509913 13.42422186 15.88509913 11 13 C7.83073436 12.49830585 7.83073436 12.49830585 5 13 C6.32 10.36 7.64 7.72 9 5 C5.37 5 1.74 5 -2 5 C-1.34 4.34 -0.68 3.68 0 3 C0 2.01 0 1.02 0 0 Z " fill="#083059" transform="translate(893,415)"/>
<path d="M0 0 C2.64 0 5.28 0 8 0 C8 15.18 8 30.36 8 46 C5.36 46 2.72 46 0 46 C0 39.73 0 33.46 0 27 C0.33 27 0.66 27 1 27 C1 32.94 1 38.88 1 45 C2.65 45 4.3 45 6 45 C6 30.81 6 16.62 6 2 C4.35 2 2.7 2 1 2 C1 7.61 1 13.22 1 19 C0.67 19 0.34 19 0 19 C0 12.73 0 6.46 0 0 Z " fill="#051842" transform="translate(1172,390)"/>
<path d="M0 0 C3.14878942 1.57439471 3.54022492 4.71527725 4.625 7.875 C4.85445312 8.51308594 5.08390625 9.15117187 5.3203125 9.80859375 C6.32486598 12.67276705 7 14.94250743 7 18 C2.71 18 -1.58 18 -6 18 C-4.02 12.06 -2.04 6.12 0 0 Z " fill="#F6F9F9" transform="translate(1108,401)"/>
<path d="M0 0 C8.91 0 17.82 0 27 0 C27 9.57 27 19.14 27 29 C26.67 29 26.34 29 26 29 C25.505 16.13 25.505 16.13 25 3 C17.08 2.67 9.16 2.34 1 2 C0.67 1.34 0.34 0.68 0 0 Z " fill="#06214B" transform="translate(806,192)"/>
<path d="M0 0 C0.66 0 1.32 0 2 0 C2 8.91 2 17.82 2 27 C1.01 27 0.02 27 -1 27 C-1.02886537 22.68751391 -1.04675255 18.37505238 -1.0625 14.0625 C-1.07087891 12.83080078 -1.07925781 11.59910156 -1.08789062 10.33007812 C-1.09111328 9.16025391 -1.09433594 7.99042969 -1.09765625 6.78515625 C-1.10289307 5.70113525 -1.10812988 4.61711426 -1.11352539 3.50024414 C-1 1 -1 1 0 0 Z " fill="#012B56" transform="translate(554,407)"/>
<path d="M0 0 C9.24 0 18.48 0 28 0 C27.01 2.97 26.02 5.94 25 9 C24.67 8.01 24.34 7.02 24 6 C24.66 4.68 25.32 3.36 26 2 C17.09 2 8.18 2 -1 2 C-0.67 1.34 -0.34 0.68 0 0 Z " fill="#14274D" transform="translate(639,307)"/>
<path d="M0 0 C0.66 1.32 1.32 2.64 2 4 C-7.57 4 -17.14 4 -27 4 C-27 3.34 -27 2.68 -27 2 C-18.09 2 -9.18 2 0 2 C0 1.34 0 0.68 0 0 Z " fill="#2A3757" transform="translate(787,264)"/>
<path d="M0 0 C13.365 0.495 13.365 0.495 27 1 C27 1.33 27 1.66 27 2 C18.75 2 10.5 2 2 2 C1.67 9.92 1.34 17.84 1 26 C0.67 26 0.34 26 0 26 C0 17.42 0 8.84 0 0 Z " fill="#23365C" transform="translate(471,192)"/>
<path d="M0 0 C5.94 0 11.88 0 18 0 C18 0.66 18 1.32 18 2 C12.72 2 7.44 2 2 2 C2 2.99 2 3.98 2 5 C5.3 5 8.6 5 12 5 C12 5.33 12 5.66 12 6 C8.04 6 4.08 6 0 6 C0 4.02 0 2.04 0 0 Z " fill="#011441" transform="translate(891,413)"/>
<path d="M0 0 C5.61 0 11.22 0 17 0 C17 1.98 17 3.96 17 6 C11.39 6 5.78 6 0 6 C0 5.67 0 5.34 0 5 C3.07617188 4.70703125 3.07617188 4.70703125 6.15234375 4.4140625 C6.76207031 4.27742188 7.37179687 4.14078125 8 4 C8.33 3.34 8.66 2.68 9 2 C10.2065625 2.0309375 10.2065625 2.0309375 11.4375 2.0625 C13.93354885 2.29633621 13.93354885 2.29633621 15 1 C10.05 1 5.1 1 0 1 C0 0.67 0 0.34 0 0 Z " fill="#011036" transform="translate(933,410)"/>
<path d="M0 0 C0.33 0.99 0.66 1.98 1 3 C1.66 3 2.32 3 3 3 C3 2.01 3 1.02 3 0 C3.99 0 4.98 0 6 0 C5.71125 0.515625 5.4225 1.03125 5.125 1.5625 C3.71219973 4.62356725 2.8751483 7.74944918 2 11 C0.68 11 -0.64 11 -2 11 C-2 7.7 -2 4.4 -2 1 C-1.34 0.67 -0.68 0.34 0 0 Z " fill="#062E59" transform="translate(680,416)"/>
<path d="M0 0 C0.99 0 1.98 0 3 0 C2.5547115 5.27315333 1.91626837 10.01770224 0 15 C-0.97608217 12.07175348 -1.08226668 10.04386724 -1 7 C-1.99 6.67 -2.98 6.34 -4 6 C-4 5.01 -4 4.02 -4 3 C-3.01 2.67 -2.02 2.34 -1 2 C-0.67 1.34 -0.34 0.68 0 0 Z " fill="#051F4A" transform="translate(686,401)"/>
<path d="M0 0 C-0.66 0 -1.32 0 -2 0 C-3.01111093 3.04913228 -3.01111093 3.04913228 -2 6 C-4.64 6 -7.28 6 -10 6 C-9.8125 3.625 -9.8125 3.625 -9 1 C-5.71803757 -0.95143712 -3.5838203 -1.32734085 0 0 Z " fill="#021E47" transform="translate(1012,431)"/>
<path d="M0 0 C3.39762089 1.98194552 4.69546359 2.96926138 5.8125 6.75 C5.874375 7.4925 5.93625 8.235 6 9 C3.66666667 6.66666667 1.33333333 4.33333333 -1 2 C-5.57181498 1.21364782 -9.66032154 1.37371282 -13.5625 4 C-14.366875 4.66 -15.17125 5.32 -16 6 C-15.01946718 3.41495894 -14.02862665 2.02515675 -11.9375 0.1875 C-7.74407295 -1.50771519 -4.33037813 -1.15319852 0 0 Z " fill="#0F54BB" transform="translate(227,301)"/>
<path d="M0 0 C0 1.32 0 2.64 0 4 C-1.65 4.66 -3.3 5.32 -5 6 C-5 5.34 -5 4.68 -5 4 C-7.31 4 -9.62 4 -12 4 C-12 3.01 -12 2.02 -12 1 C-7.95858806 0.36605303 -4.0934693 -0.12404452 0 0 Z " fill="#092E58" transform="translate(900,429)"/>
<path d="M0 0 C1.051875 0.2475 2.10375 0.495 3.1875 0.75 C0.1875 2.75 0.1875 2.75 -1.8125 3.75 C-2.46463292 5.77463255 -2.46463292 5.77463255 -2.8125 7.75 C-5.80582739 6.7522242 -6.76016315 5.9977975 -8.8125 3.75 C-5.66311307 0.60061307 -4.55934222 -0.29897326 0 0 Z " fill="#0B2F58" transform="translate(1004.8125,429.25)"/>
<path d="M0 0 C1.5625 2.25 1.5625 2.25 1.5625 5.25 C0.5725 5.25 -0.4175 5.25 -1.4375 5.25 C-1.7675 3.93 -2.0975 2.61 -2.4375 1.25 C-3.7575 2.24 -5.0775 3.23 -6.4375 4.25 C-6.4375 2.93 -6.4375 1.61 -6.4375 0.25 C-7.7575 0.58 -9.0775 0.91 -10.4375 1.25 C-10.1075 0.59 -9.7775 -0.07 -9.4375 -0.75 C-3.30203202 -2.37068966 -3.30203202 -2.37068966 0 0 Z " fill="#05204A" transform="translate(906.4375,428.75)"/>
<path d="M0 0 C0 4.85089963 -2.40896448 7.38147446 -5.6875 10.8125 C-6.450625 11.534375 -7.21375 12.25625 -8 13 C-8.66 12.67 -9.32 12.34 -10 12 C-8.52149287 10.18696196 -7.04217625 8.37458402 -5.5625 6.5625 C-4.32693359 5.04849609 -4.32693359 5.04849609 -3.06640625 3.50390625 C-1 1 -1 1 0 0 Z " fill="#0A56BC" transform="translate(118,142)"/>
<path d="M0 0 C0.99386719 0.00902344 1.98773437 0.01804687 3.01171875 0.02734375 C4.15060547 0.04474609 4.15060547 0.04474609 5.3125 0.0625 C5.6425 1.0525 5.9725 2.0425 6.3125 3.0625 C1.6925 3.0625 -2.9275 3.0625 -7.6875 3.0625 C-8.0175 2.4025 -8.3475 1.7425 -8.6875 1.0625 C-5.53819107 0.01273036 -3.29935544 -0.03881595 0 0 Z " fill="#112E55" transform="translate(889.6875,388.9375)"/>
<path d="M0 0 C0 0.99 0 1.98 0 3 C-3.90748231 6.19703098 -7.07008655 6.28999491 -12 6 C-12.33 5.34 -12.66 4.68 -13 4 C-12.113125 3.855625 -11.22625 3.71125 -10.3125 3.5625 C-9.219375 3.376875 -8.12625 3.19125 -7 3 C-6.0925 2.855625 -5.185 2.71125 -4.25 2.5625 C-1.81599631 2.15899348 -1.81599631 2.15899348 0 0 Z " fill="#0955BB" transform="translate(230,320)"/>
<path d="M0 0 C3.63 0 7.26 0 11 0 C10.01 1.485 10.01 1.485 9 3 C6.90625 3.2578125 6.90625 3.2578125 4.5 3.125 C1.11862842 2.89255348 1.11862842 2.89255348 -2 4 C-1.34 2.68 -0.68 1.36 0 0 Z " fill="#0E2049" transform="translate(527,390)"/>
<path d="M0 0 C3.3 0 6.6 0 10 0 C10.33 1.65 10.66 3.3 11 5 C9.35 4.67 7.7 4.34 6 4 C5.67 3.01 5.34 2.02 5 1 C3.35 1 1.7 1 0 1 C0 0.67 0 0.34 0 0 Z " fill="#042F59" transform="translate(621,391)"/>
<path d="M0 0 C3.3 0 6.6 0 10 0 C8.68 0.33 7.36 0.66 6 1 C6.33 1.99 6.66 2.98 7 4 C4.69 4 2.38 4 0 4 C0.66 3.34 1.32 2.68 2 2 C1.34 1.34 0.68 0.68 0 0 Z " fill="#06315B" transform="translate(1050,413)"/>
<path d="M0 0 C2.97 0 5.94 0 9 0 C9 1.65 9 3.3 9 5 C8.67 4.01 8.34 3.02 8 2 C6.02 2 4.04 2 2 2 C1.67 2.66 1.34 3.32 1 4 C0.67 2.68 0.34 1.36 0 0 Z " fill="#0C1F47" transform="translate(658,390)"/>
<path d="M0 0 C3.53372712 1.96318174 6.24479785 4.04070881 9 7 C6.36 6.34 3.72 5.68 1 5 C0.67 3.35 0.34 1.7 0 0 Z " fill="#0D58BB" transform="translate(280,416)"/>
<path d="M0 0 C0.99 0 1.98 0 3 0 C3.33 0.99 3.66 1.98 4 3 C2.35 4.32 0.7 5.64 -1 7 C-1.625 5.1875 -1.625 5.1875 -2 3 C-1.34 2.01 -0.68 1.02 0 0 Z " fill="#055ABD" transform="translate(241,264)"/>
<path d="M0 0 C0.33 0.66 0.66 1.32 1 2 C-1.97 2.66 -4.94 3.32 -8 4 C-8 3.01 -8 2.02 -8 1 C-5.29120665 -0.35439668 -2.99066732 -0.06501451 0 0 Z " fill="#062148" transform="translate(728,230)"/>
<path d="M0 0 C2.475 0.99 2.475 0.99 5 2 C4.67 3.32 4.34 4.64 4 6 C3.01 5.67 2.02 5.34 1 5 C0.67 3.35 0.34 1.7 0 0 Z " fill="#062F5A" transform="translate(681,406)"/>
<path d="M0 0 C3.36720387 1.39332574 4.9859524 2.9789286 7 6 C4 6 4 6 1.8125 4.125 C0 2 0 2 0 0 Z " fill="#1C3055" transform="translate(935,316)"/>
<path d="M0 0 C0.66 0.33 1.32 0.66 2 1 C2 3.31 2 5.62 2 8 C1.01 8 0.02 8 -1 8 C-0.67 5.36 -0.34 2.72 0 0 Z " fill="#0C264F" transform="translate(688,267)"/>
<path d="M0 0 C1.10773342 3.32320026 0.93312508 4.69164744 0 8 C-0.66 8.66 -1.32 9.32 -2 10 C-1.85950482 8.52031676 -1.71245174 7.04125484 -1.5625 5.5625 C-1.48128906 4.73878906 -1.40007813 3.91507812 -1.31640625 3.06640625 C-1 1 -1 1 0 0 Z " fill="#091C44" transform="translate(686,390)"/>
<path d="M0 0 C0 3 0 3 -2.5 5.6875 C-3.325 6.450625 -4.15 7.21375 -5 8 C-5.66 7.67 -6.32 7.34 -7 7 C-4.69 4.69 -2.38 2.38 0 0 Z " fill="#044DB7" transform="translate(241,334)"/>
<path d="M0 0 C1.98 0.99 1.98 0.99 4 2 C4 3.32 4 4.64 4 6 C3.01 6.495 3.01 6.495 2 7 C1.34 4.69 0.68 2.38 0 0 Z " fill="#2163BF" transform="translate(191,297)"/>
</svg>
