<?xml version="1.0" encoding="UTF-8"?>
<svg version="1.1" xmlns="http://www.w3.org/2000/svg" width="1016" height="375">
<path d="M0 0 C335.28 0 670.56 0 1016 0 C1016 123.75 1016 247.5 1016 375 C680.72 375 345.44 375 0 375 C0 251.25 0 127.5 0 0 Z " fill="#FDFCFB" transform="translate(0,0)"/>
<path d="M0 0 C0.83918472 -0.0065712 1.67836945 -0.0131424 2.54298401 -0.01991272 C5.3368437 -0.03971378 8.13064919 -0.05132988 10.92456055 -0.0612793 C12.35701646 -0.06739259 12.35701646 -0.06739259 13.81841087 -0.07362938 C18.88317018 -0.09452958 23.94790215 -0.10880816 29.01269531 -0.11816406 C34.2232219 -0.12917314 39.43331485 -0.16349743 44.64368916 -0.20333576 C48.66485838 -0.22961889 52.68592676 -0.23786675 56.7071743 -0.24144554 C58.62592652 -0.24628968 60.5446749 -0.25784096 62.46334267 -0.27648354 C79.35731256 -0.43028716 93.6104047 1.87187036 106.25415039 14.11767578 C110.37095795 18.24079961 114.286713 22.53818934 118.07299805 26.96606445 C120.57555318 29.83918049 123.15937374 32.63222411 125.7487793 35.42700195 C126.52294189 36.2629187 126.52294189 36.2629187 127.31274414 37.11572266 C128.36214397 38.24869003 129.41162328 39.38158379 130.46118164 40.5144043 C132.83586004 43.08213372 135.19926074 45.66013015 137.5612793 48.23950195 C138.01083984 48.7303125 138.46040039 49.22112305 138.92358398 49.72680664 C139.82908723 50.71551477 140.73452364 51.70428412 141.63989258 52.69311523 C143.92520425 55.18864602 146.2120751 57.68274723 148.4987793 60.17700195 C149.41545333 61.1769952 150.33212 62.1769952 151.2487793 63.17700195 C151.7025293 63.67200195 152.1562793 64.16700195 152.6237793 64.67700195 C161.33211263 74.17700195 170.04044596 83.67700195 178.7487793 93.17700195 C179.429646 93.91974365 179.429646 93.91974365 180.12426758 94.67749023 C181.03936563 95.67580857 181.95440485 96.67418082 182.86938477 97.67260742 C185.18456782 100.19878616 187.5008194 102.72397028 189.8190918 105.24731445 C194.80493743 110.67634637 199.76299821 116.12856017 204.6862793 121.61450195 C207.27492933 124.48300604 209.88463075 127.33176846 212.4987793 130.17700195 C216.59044037 134.63035682 220.64700876 139.1136005 224.6862793 143.61450195 C227.27492965 146.4830064 229.88467038 149.33173177 232.4987793 152.17700195 C237.36823049 157.47824376 242.19103608 162.81980237 246.9987793 168.17700195 C247.7619043 169.02262695 248.5250293 169.86825195 249.3112793 170.73950195 C253.30660418 175.16675385 257.26961802 179.61759456 261.1862793 184.11450195 C263.27089094 186.48664624 265.38306574 188.8325626 267.4987793 191.17700195 C270.76268778 194.79376541 273.98668879 198.44089804 277.1862793 202.11450195 C279.27089094 204.48664624 281.38306574 206.8325626 283.4987793 209.17700195 C288.33105206 214.53717006 293.09696786 219.94709769 297.78393555 225.43481445 C298.81385408 226.64056871 299.84380282 227.84629718 300.8737793 229.05200195 C301.39343262 229.66052002 301.91308594 230.26903809 302.44848633 230.89599609 C305.47770463 234.43324053 308.55026513 237.92092772 311.6862793 241.36450195 C315.46869298 245.52651271 318.99887044 249.85131785 322.5144043 254.23950195 C324.36991292 256.43343668 326.23528978 258.49572034 328.2331543 260.55200195 C328.78447021 261.12394287 329.33578613 261.69588379 329.90380859 262.28515625 C330.98621816 263.39817748 332.08104557 264.4992922 333.18945312 265.58642578 C335.77633376 268.25410699 336.9483681 269.76049777 337.40112305 273.5012207 C336.9987793 276.17700195 336.9987793 276.17700195 335.9987793 277.17700195 C334.44207418 277.27574931 332.8808793 277.30439563 331.32104588 277.30563641 C330.30313672 277.30886085 329.28522756 277.3120853 328.23647267 277.31540745 C327.10459284 277.31385885 325.97271302 277.31231025 324.80653381 277.31071472 C323.61469323 277.31298028 322.42285265 277.31524583 321.19489568 277.31758004 C317.87173889 277.32283846 314.54863594 277.32356099 311.22547877 277.32238567 C307.64737024 277.32218241 304.06926991 277.32769326 300.49116516 277.33244324 C293.47546045 277.34076653 286.45976414 277.34349883 279.44405491 277.34405562 C273.74424642 277.34452998 268.04444071 277.34658071 262.3446331 277.34975624 C246.20211287 277.35856734 230.05959931 277.3631749 213.91707665 277.36242577 C213.0459648 277.36238581 212.17485294 277.36234585 211.27734375 277.36230469 C210.40517436 277.36226381 209.53300497 277.36222293 208.6344062 277.36218081 C194.49351611 277.36177419 180.35265263 277.37134644 166.21177024 277.38544305 C151.70914788 277.39978677 137.20653851 277.40671435 122.70390886 277.40584928 C114.55488903 277.40551662 106.40589709 277.40829386 98.25688362 277.41902733 C91.31947329 277.42810601 84.3821035 277.43032937 77.44468982 277.42351791 C73.90221559 277.42023932 70.35981925 277.42024383 66.81735229 277.42887115 C62.98420101 277.43811076 59.15116515 277.43199512 55.31800842 277.42424011 C54.18835932 277.42938368 53.05871022 277.43452724 51.89482933 277.43982667 C50.87431243 277.43522787 49.85379552 277.43062908 48.80235386 277.42589092 C47.47376609 277.42621697 47.47376609 277.42621697 46.11833817 277.42654961 C43.9987793 277.17700195 43.9987793 277.17700195 41.9987793 275.17700195 C41.3737793 272.48950195 41.3737793 272.48950195 41.9987793 269.17700195 C43.84887291 267.34482693 45.85104839 265.79612154 47.8894043 264.17700195 C53.40989763 258.94275642 56.13240972 250.95140272 56.47143555 243.4934082 C56.3696343 232.2766319 52.61513882 221.77668087 49.4362793 211.11450195 C48.74851847 208.7561888 48.06276689 206.39728887 47.37890625 204.0378418 C45.96107818 199.15176152 44.53473269 194.26829083 43.10229492 189.38647461 C40.19452714 179.45226568 37.39519705 169.48785169 34.59310913 159.5234375 C29.3868614 141.02868702 24.11336492 122.5530141 18.82979679 104.08023643 C17.50930673 99.46334079 16.18986436 94.84614684 14.87109375 90.22875977 C14.6848302 89.57663828 14.49856665 88.92451679 14.30665874 88.25263405 C13.55143226 85.60852669 12.79621157 82.96441767 12.04109764 80.32027817 C9.67408318 72.03220488 7.30216233 63.74556073 4.92458534 55.46051121 C3.31226872 49.84078522 1.70483124 44.21967688 0.10080528 38.597579 C-0.85126749 35.26130187 -1.80564734 31.92572569 -2.76580811 28.59176636 C-3.82273695 24.92167307 -4.86944077 21.24870827 -5.9152832 17.57543945 C-6.22995544 16.48895615 -6.54462769 15.40247284 -6.86883545 14.2830658 C-7.15180481 13.28304031 -7.43477417 12.28301483 -7.72631836 11.25268555 C-8.09788559 9.95553116 -8.09788559 9.95553116 -8.47695923 8.63217163 C-9.02642362 6.05897412 -9.16734241 3.80032725 -9.0012207 1.17700195 C-6.97364322 -0.85057553 -2.78405727 0.0093527 0 0 Z " fill="#0D457A" transform="translate(58.001220703125,34.822998046875)"/>
<path d="M0 0 C2.06298828 -0.34057617 2.06298828 -0.34057617 4.5703125 -0.29296875 C5.46621094 -0.28330078 6.36210937 -0.27363281 7.28515625 -0.26367188 C8.69087891 -0.2259668 8.69087891 -0.2259668 10.125 -0.1875 C11.06988281 -0.17396484 12.01476562 -0.16042969 12.98828125 -0.14648438 C15.32608779 -0.11106306 17.66276237 -0.06167271 20 0 C22.01512227 4.21865028 22.41354068 8.20885432 22.625 12.8125 C22.66367188 13.50537109 22.70234375 14.19824219 22.7421875 14.91210938 C22.83573568 16.60767015 22.91892364 18.30379712 23 20 C25.46539183 20.50184853 27.93115257 20.99606083 30.40234375 21.46875 C33 22 33 22 36.1875 22.9375 C39.95624622 23.02124992 41.46035712 21.49377871 44.19140625 19.03125 C46 18 46 18 48.37524414 18.23974609 C52.90055443 19.55049079 55.60336663 22.8658063 58.875 26.125 C59.57625 26.77726562 60.2775 27.42953125 61 28.1015625 C62.91196634 29.99103512 64.55244716 31.7340187 66 34 C66.00729833 37.49589939 65.43929677 39.795402 64.2578125 43.03515625 C63.83123913 46.28616237 65.43418615 48.56583184 66.875 51.4375 C68.808314 55.31761624 70.37229388 58.69457983 71 63 C72.19238281 63.04898438 73.38476562 63.09796875 74.61328125 63.1484375 C76.17971068 63.22347604 77.74611579 63.2990234 79.3125 63.375 C80.09818359 63.4059375 80.88386719 63.436875 81.69335938 63.46875 C82.8293457 63.52675781 82.8293457 63.52675781 83.98828125 63.5859375 C84.68477783 63.6173584 85.38127441 63.6487793 86.09887695 63.68115234 C88 64 88 64 91 66 C91.37231445 68.30664063 91.37231445 68.30664063 91.36328125 71.15625 C91.36231445 72.68958984 91.36231445 72.68958984 91.36132812 74.25390625 C91.34521484 75.32511719 91.32910156 76.39632812 91.3125 77.5 C91.31572266 78.57121094 91.31894531 79.64242187 91.32226562 80.74609375 C91.26687004 88.73312996 91.26687004 88.73312996 89 91 C86.1092504 91.4673667 83.28339431 91.83699342 80.375 92.125 C79.17230469 92.25455078 79.17230469 92.25455078 77.9453125 92.38671875 C75.96436365 92.59896327 73.98227282 92.80049931 72 93 C71.18372554 95.39460588 70.37188355 97.79056526 69.5625 100.1875 C69.33240234 100.86103516 69.10230469 101.53457031 68.86523438 102.22851562 C68.22027903 104.14468729 67.60930587 106.07219617 67 108 C66.68933594 108.87269531 66.37867188 109.74539062 66.05859375 110.64453125 C65.96638735 114.35122866 68.03841236 115.86046627 70.5 118.5 C74.9377099 123.2585082 74.9377099 123.2585082 75.203125 126.41796875 C73.35875762 130.37617277 70.4519402 132.90547534 67.25 135.8125 C66.62867188 136.40998047 66.00734375 137.00746094 65.3671875 137.62304688 C60.85112499 141.79135351 60.85112499 141.79135351 57.38671875 142.640625 C53.10453529 141.49123369 50.16731479 138.44079538 46.81640625 135.65234375 C44.11379624 133.72500976 44.11379624 133.72500976 41.01171875 134.125 C38.03122533 134.99092805 35.1461376 135.94644697 32.25 137.0625 C27.20284698 139 27.20284698 139 25 139 C24.95101562 140.12019531 24.90203125 141.24039063 24.8515625 142.39453125 C24.77652144 143.86721203 24.70097418 145.33986707 24.625 146.8125 C24.5940625 147.55048828 24.563125 148.28847656 24.53125 149.04882812 C24.32653852 152.81893115 24.13566173 154.79650741 22 158 C19.84521484 158.34057617 19.84521484 158.34057617 17.2109375 158.29296875 C16.26992187 158.28330078 15.32890625 158.27363281 14.359375 158.26367188 C13.37453125 158.23853516 12.3896875 158.21339844 11.375 158.1875 C10.38242188 158.17396484 9.38984375 158.16042969 8.3671875 158.14648438 C5.91091928 158.11105743 3.45572715 158.06166196 1 158 C-1.1763977 153.37296682 -2.39705601 149.732403 -2.6875 144.5625 C-2.75324219 143.51191406 -2.81898438 142.46132813 -2.88671875 141.37890625 C-2.94279297 140.20134766 -2.94279297 140.20134766 -3 139 C-4.65 138.67 -6.3 138.34 -8 138 C-8 133.10682658 -7.10650684 132.24317934 -3.8125 128.75 C0.69906426 124.398103 4.47280316 123.46863699 10.67822266 123.51025391 C12.52452084 123.58703325 14.37056829 123.67008764 16.21630859 123.75927734 C26.1637885 124.2380521 34.34882111 122.221987 42.1328125 115.74609375 C49.7713027 108.60298681 58.25250925 98.84204234 59.17700195 87.90625 C59.80791732 72.44375112 59.80791732 72.44375112 55 58 C54.49082031 57.05898437 53.98164063 56.11796875 53.45703125 55.1484375 C46.65327506 43.59606429 38.01631357 37.66561138 25.234375 33.88671875 C12.47612205 30.85512916 -1.68042126 32.03898471 -12.9609375 38.765625 C-23.0994338 45.66958763 -29.73177007 54.75676664 -32.59863281 66.734375 C-33.32147702 70.81466348 -33.28756999 74.86730109 -33.25 79 C-33.25773437 79.85078125 -33.26546875 80.7015625 -33.2734375 81.578125 C-33.26053715 85.78363944 -33.00991486 89.25545461 -31.65625 93.25 C-31 97 -31 97 -33.140625 100.1875 C-34.1523314 101.15165884 -35.1901683 102.08900665 -36.25 103 C-37.02537109 103.73283203 -37.02537109 103.73283203 -37.81640625 104.48046875 C-41.63169643 108 -41.63169643 108 -44 108 C-44.83719383 105.70967689 -45.6698929 103.41789043 -46.5 101.125 C-46.73847656 100.47402344 -46.97695312 99.82304687 -47.22265625 99.15234375 C-49 94.2265625 -49 94.2265625 -49 92 C-50.55460937 91.92652344 -50.55460937 91.92652344 -52.140625 91.8515625 C-53.51044208 91.77650403 -54.88023248 91.70095753 -56.25 91.625 C-56.93191406 91.5940625 -57.61382812 91.563125 -58.31640625 91.53125 C-62.24910625 91.30216068 -64.38894206 90.80552897 -68 89 C-68 81.08 -68 73.16 -68 65 C-56.75 62.75 -56.75 62.75 -52.375 62.875 C-51.53710938 62.89304688 -50.69921875 62.91109375 -49.8359375 62.9296875 C-49.23007813 62.95289063 -48.62421875 62.97609375 -48 63 C-47.9175 62.195625 -47.835 61.39125 -47.75 60.5625 C-46.94460369 56.73686751 -45.54945757 53.78379511 -43.7421875 50.34375 C-42.73418983 47.16059945 -43.10926293 45.20417918 -44 42 C-45.71009456 39.33048618 -47.62322911 36.93971536 -49.6015625 34.46484375 C-51 32 -51 32 -51.10546875 29.58203125 C-49.46432451 25.74882864 -46.77210715 23.48294184 -43.6875 20.75 C-43.10548828 20.20859375 -42.52347656 19.6671875 -41.92382812 19.109375 C-36.74520056 14.4175267 -36.74520056 14.4175267 -33 14 C-30.30078125 15.94140625 -30.30078125 15.94140625 -27.3125 18.5625 C-23.36468851 21.87257703 -23.36468851 21.87257703 -18.49609375 23.19140625 C-16.27335642 22.68470784 -16.27335642 22.68470784 -14.328125 21.8515625 C-10.93558503 20.61066701 -7.58893632 20.38291998 -4 20 C-3.81824219 18.21142578 -3.81824219 18.21142578 -3.6328125 16.38671875 C-3.46397327 14.82026592 -3.29467868 13.25386212 -3.125 11.6875 C-3.04636719 10.90181641 -2.96773438 10.11613281 -2.88671875 9.30664062 C-2.76103516 8.1706543 -2.76103516 8.1706543 -2.6328125 7.01171875 C-2.55949707 6.31522217 -2.48618164 5.61872559 -2.41064453 4.90112305 C-2 3 -2 3 0 0 Z " fill="#FBFBFB" transform="translate(179,118)"/>
<path d="M0 0 C2.86255626 1.86662523 5.36295055 3.90384137 7.875 6.22265625 C8.205 3.58265625 8.535 0.94265625 8.875 -1.77734375 C15.145 -1.77734375 21.415 -1.77734375 27.875 -1.77734375 C27.96577532 7.53341062 28.03898755 16.84386567 28.08224869 26.15496445 C28.10302365 30.47961772 28.13115384 34.8039496 28.17675781 39.12841797 C28.22057953 43.31059121 28.24421276 47.49245752 28.25450897 51.67484283 C28.2618358 53.26147536 28.27614126 54.84809324 28.29792023 56.4345932 C28.46351674 69.01061907 27.30587929 80.33972089 18.859375 90.3203125 C15.58872074 93.45576255 12.01958233 95.45102511 7.875 97.22265625 C6.68261719 97.75246094 5.49023438 98.28226562 4.26171875 98.828125 C-0.74785795 100.66973526 -5.58448879 100.71670512 -10.875 100.66015625 C-11.84638916 100.6540332 -12.81777832 100.64791016 -13.81860352 100.64160156 C-24.14438489 100.41710928 -32.43384458 97.75339152 -41.125 92.22265625 C-40.93164062 91.58199219 -40.73828125 90.94132812 -40.5390625 90.28125 C-39.0309252 85.2715464 -37.54782214 80.25725768 -36.125 75.22265625 C-33.88362339 76.30651442 -31.74051054 77.45239763 -29.6015625 78.73046875 C-21.72659936 83.19654374 -15.12464477 84.50362759 -6.125 83.22265625 C-0.767755 81.65528891 2.95151564 79.05764962 5.875 74.22265625 C7.4983137 69.75854359 8.10613244 65.96087136 7.875 61.22265625 C7.276875 61.80015625 6.67875 62.37765625 6.0625 62.97265625 C-2.16072789 68.7772877 -11.19718092 70.55110994 -21.125 69.22265625 C-31.16275106 66.65457234 -38.15431842 61.29984966 -43.7890625 52.67578125 C-48.81167066 42.74280198 -48.85699623 30.18733601 -46.203125 19.515625 C-42.609119 10.23888874 -37.08960303 3.62256252 -28.125 -0.77734375 C-19.3039872 -4.29341179 -8.49818061 -4.49051589 0 0 Z " fill="#0C4278" transform="translate(804.125,191.77734375)"/>
<path d="M0 0 C6.27 0 12.54 0 19 0 C19.33 11.22 19.66 22.44 20 34 C22.64 32.02 25.28 30.04 28 28 C34.80395577 24.35012605 44.61994842 25.00401928 52.0234375 26.6875 C60.40209341 29.78115757 65.93984318 34.71073526 69.93359375 42.671875 C70.28550781 43.44015625 70.63742187 44.2084375 71 45 C71.32097656 45.66515625 71.64195312 46.3303125 71.97265625 47.015625 C76.20633494 57.33398609 74.89121411 69.82875523 71.2578125 80.09375 C67.41258993 88.97836364 62.06417807 94.96791097 53.375 99.3125 C43.24233514 102.24563983 34.512858 101.5949453 25 97 C22.7442325 95.46868091 20.96295527 93.90990243 19 92 C19 94.31 19 96.62 19 99 C12.73 99 6.46 99 0 99 C0 66.33 0 33.66 0 0 Z " fill="#0C4278" transform="translate(521,163)"/>
<path d="M0 0 C56.86175115 0 56.86175115 0 67 10 C74.17763802 18.82556512 74.99261159 28.96960368 74 40 C71.83390349 49.07052913 66.98563501 55.31722623 59.1875 60.25 C50.43659515 65.46829502 42.49126436 66.42198408 32.4375 66.1875 C28.663125 66.125625 24.88875 66.06375 21 66 C21 76.89 21 87.78 21 99 C14.07 99 7.14 99 0 99 C0 66.33 0 33.66 0 0 Z " fill="#0C4278" transform="translate(363,163)"/>
<path d="M0 0 C6.84453989 5.28007363 12.3526703 13.59702088 13.70654297 22.23120117 C13.85846585 24.74490214 13.880545 27.21295137 13.82421875 29.73046875 C13.8099585 30.6107373 13.79569824 31.49100586 13.78100586 32.39794922 C13.42737651 43.26474755 10.23758216 49.74028006 2.67578125 57.59765625 C-6.19181526 65.87604369 -16.54256552 68.41494766 -28.5390625 68.07421875 C-38.94070077 67.14156874 -47.21350941 62.66063129 -54.42578125 55.16796875 C-62.3343056 45.36066117 -63.88414761 35.01899377 -62.91943359 22.8046875 C-61.78822508 13.46484969 -56.15214901 5.40298328 -48.98828125 -0.45703125 C-33.984974 -10.79829387 -15.03755628 -9.56076969 0 0 Z " fill="#0D4278" transform="translate(735.67578125,196.20703125)"/>
<path d="M0 0 C-4.5358109 5.51652677 -9.47798201 10.49307826 -14.609375 15.44921875 C-17.5270237 18.56233084 -18.78678348 20.62932235 -19.4375 24.8125 C-18.75383797 29.79346622 -16.09957297 33.33482144 -12.1875 36.4375 C-8.04285809 37.50326506 -3.96238478 38.10942154 -0.14868164 35.95336914 C1.68033562 34.48437653 3.37537758 32.9423023 5.0625 31.3125 C6.21745905 30.24328594 7.37500635 29.17686074 8.53515625 28.11328125 C9.09734863 27.59330566 9.65954102 27.07333008 10.23876953 26.53759766 C13.00487186 24.12272207 15.97451879 22.07736863 19 20 C18.45614914 31.9647189 17.17730135 42.7027639 9 52 C4.08446353 56.25102877 -1.40896275 59.48370208 -8 60 C-9.0415625 59.88527344 -10.083125 59.77054688 -11.15625 59.65234375 C-17.73188851 58.90616697 -17.73188851 58.90616697 -23.77490234 61.15429688 C-27.33121071 64.19770499 -30.33589815 67.68837987 -33.37744141 71.23242188 C-35.71778167 73.7819349 -38.31395279 75.98015925 -40.94287109 78.2253418 C-44.35370117 81.16782029 -47.60300276 84.28007366 -50.875 87.375 C-60.27404527 96.21370707 -60.27404527 96.21370707 -64.6875 100.25 C-65.41324219 100.91515625 -66.13898438 101.5803125 -66.88671875 102.265625 C-70.32428241 105.08684176 -73.00149323 106.85476265 -77.4375 107.5 C-82.22112622 106.82861386 -83.64370524 105.43434812 -87 102 C-89.5531881 98.51837986 -89.33312995 95.21964605 -89 91 C-87.27734375 88.15625 -87.27734375 88.15625 -84.9375 85.5 C-83.70193359 84.08267578 -83.70193359 84.08267578 -82.44140625 82.63671875 C-79.9171512 79.91052329 -77.35231177 77.25603371 -74.6796875 74.67578125 C-72.85622107 72.85655544 -71.17981721 70.95232089 -69.5 69 C-66.7144878 65.76681619 -63.78476126 62.75912301 -60.73828125 59.7734375 C-58.33733844 57.32393629 -56.1656115 54.70135358 -53.9765625 52.0625 C-52 50 -52 50 -49.3359375 48.125 C-44.15482555 44.54368973 -44.15482555 44.54368973 -41.63769531 39.00341797 C-41.49901338 35.87346277 -41.64560259 32.79469639 -41.82446289 29.66894531 C-42.30244618 20.68547849 -39.32835377 15.31458723 -33.375 8.6875 C-23.20770688 -0.59486205 -13.04855877 -0.64596826 0 0 Z " fill="#FBFBFB" transform="translate(213,163)"/>
<path d="M0 0 C6.27 0 12.54 0 19 0 C19.01458252 1.4226416 19.02916504 2.8452832 19.04418945 4.31103516 C19.10225816 9.6003505 19.17949126 14.88924397 19.26245117 20.17822266 C19.29566006 22.46526226 19.32370451 24.75238303 19.34643555 27.03955078 C19.3800551 30.33140578 19.43237624 33.62251972 19.48828125 36.9140625 C19.49467117 37.93303619 19.5010611 38.95200989 19.50764465 40.00186157 C19.61880409 45.39604943 19.93542915 49.35897688 23 54 C26.66864066 57.23703588 30.13838081 57.47699684 34.8515625 57.2734375 C38.03044075 56.868853 39.65104338 56.2107827 42 54 C44.96403216 47.61718255 45.46549875 42.13565165 45.51171875 35.15625 C45.52966995 34.14655151 45.54762115 33.13685303 45.56611633 32.09655762 C45.61994099 28.89774651 45.65402571 25.69908223 45.6875 22.5 C45.72069763 20.32029219 45.75518953 18.14060369 45.79101562 15.9609375 C45.87565151 10.64073141 45.94259522 5.32056676 46 0 C52.27 0 58.54 0 65 0 C65 23.76 65 47.52 65 72 C58.73 72 52.46 72 46 72 C45.67 70.02 45.34 68.04 45 66 C44.195625 66.763125 43.39125 67.52625 42.5625 68.3125 C36.46397147 73.32811225 29.4718482 74.58373083 21.7109375 74.35546875 C15.42544703 73.5312906 9.4174974 70.54371161 5 66 C1.80500498 60.66056764 -0.12787558 55.8816277 -0.11352539 49.6105957 C-0.11344986 48.50968094 -0.11337433 47.40876617 -0.11329651 46.27449036 C-0.10813522 45.08691635 -0.10297394 43.89934235 -0.09765625 42.67578125 C-0.0962413 41.45924362 -0.09482635 40.24270599 -0.09336853 38.98930359 C-0.08776312 35.0970109 -0.07520967 31.20477536 -0.0625 27.3125 C-0.0574857 24.67643312 -0.05292267 22.04036534 -0.04882812 19.40429688 C-0.03779193 12.93617584 -0.02052362 6.46809761 0 0 Z " fill="#0C4178" transform="translate(444,190)"/>
<path d="M0 0 C6.6 0 13.2 0 20 0 C20 26.73 20 53.46 20 81 C34.19 81 48.38 81 63 81 C63 87.27 63 93.54 63 100 C42.21 100 21.42 100 0 100 C0 67 0 34 0 0 Z " fill="#0F4479" transform="translate(606,162)"/>
<path d="M0 0 C19.45030739 -1.79398475 19.45030739 -1.79398475 25.03125 2.1328125 C27.043362 4.99927364 28.53376474 7.82315693 30 11 C31.13856544 12.74779782 32.30306415 14.4791461 33.5 16.1875 C34.3357781 17.45672684 35.17012926 18.72690285 36 20 C37.21075842 18.35594986 38.41845142 16.70964217 39.625 15.0625 C40.37652344 14.06734375 41.12804687 13.0721875 41.90234375 12.046875 C44.04431421 9.16376116 44.04431421 9.16376116 45.12890625 6.265625 C46.3677156 3.39487861 47.59630537 1.99363979 50 0 C52.39526367 -0.51513672 52.39526367 -0.51513672 55.04296875 -0.5546875 C55.99083252 -0.57249268 56.93869629 -0.59029785 57.9152832 -0.60864258 C62.28825925 -0.540467 66.6398716 -0.33981816 71 0 C67.9625968 5.47895219 64.62539843 10.68171366 61.125 15.875 C60.62097656 16.62652344 60.11695313 17.37804687 59.59765625 18.15234375 C59.09363281 18.90386719 58.58960938 19.65539062 58.0703125 20.4296875 C57.57176758 21.17959961 57.07322266 21.92951172 56.55957031 22.70214844 C55.48341598 24.28774088 54.37638236 25.85265918 53.24511719 27.39941406 C52.68727539 28.17768555 52.12943359 28.95595703 51.5546875 29.7578125 C50.78487549 30.80026123 50.78487549 30.80026123 49.99951172 31.86376953 C48.65622882 34.73473323 48.98606494 36.02097982 50 39 C51.47882359 41.60780306 51.47882359 41.60780306 53.38671875 44.203125 C54.07830078 45.18410156 54.76988281 46.16507813 55.48242188 47.17578125 C56.21009766 48.19027344 56.93777344 49.20476562 57.6875 50.25 C59.10886124 52.25464962 60.52944514 54.25985065 61.94921875 56.265625 C62.63290527 57.22919922 63.3165918 58.19277344 64.02099609 59.18554688 C72 70.53293856 72 70.53293856 72 72 C64.75996673 73.34238596 57.07591053 74.49370757 50 72 C43.55722174 66.5038466 39.65152028 58.52018888 36 51 C33.3711738 54.23414803 30.87865273 57.51548369 28.5 60.9375 C27.64921875 62.15759766 27.64921875 62.15759766 26.78125 63.40234375 C24.87780775 66.02141005 24.87780775 66.02141005 23.484375 69.29296875 C21 72 21 72 18.62109375 72.4753418 C15.64227009 72.59199179 12.72731033 72.52235419 9.75 72.375 C8.203125 72.33439453 8.203125 72.33439453 6.625 72.29296875 C4.0812125 72.22230799 1.54166901 72.12372078 -1 72 C2.04635824 66.4038918 5.54386888 61.31912571 9.3125 56.1875 C9.88556885 55.39577393 10.4586377 54.60404785 11.04907227 53.78833008 C13.48627126 50.4215241 15.93079032 47.06694754 18.4765625 43.78125 C19.12367188 42.9253125 19.77078125 42.069375 20.4375 41.1875 C20.99308594 40.47980469 21.54867187 39.77210938 22.12109375 39.04296875 C23.27892864 36.97187058 23.27892864 36.97187058 22.22729492 34.63842773 C21.06676974 32.14354099 19.80338738 30.00303814 18.2421875 27.7421875 C17.43237427 26.56354126 17.43237427 26.56354126 16.60620117 25.36108398 C16.03490479 24.54067627 15.4636084 23.72026855 14.875 22.875 C14.29403564 22.03203369 13.71307129 21.18906738 13.11450195 20.32055664 C9.27991092 14.77649907 5.3605685 9.30953487 1.29296875 3.93359375 C0 2 0 2 0 0 Z " fill="#0C4278" transform="translate(877,190)"/>
<path d="M0 0 C6.27 0 12.54 0 19 0 C19 23.76 19 47.52 19 72 C12.73 72 6.46 72 0 72 C0 48.24 0 24.48 0 0 Z " fill="#0B4178" transform="translate(848,190)"/>
<path d="M0 0 C4.64151849 3.27016076 8.65924202 7.59016968 10.75 12.9375 C11.46904842 19.99724809 11.74412809 27.78514129 7.75 33.9375 C3.17798057 38.98365478 -1.24562945 41.64198814 -8.0625 42.3125 C-13.4221347 42.15069971 -17.82303376 40.12484172 -21.79296875 36.546875 C-27.10970146 30.62207022 -27.71990767 24.57340554 -27.55859375 16.90625 C-26.81568744 9.75930322 -23.36906389 5.50920701 -17.93359375 1.06640625 C-12.77210548 -2.39454528 -5.66570498 -1.85224971 0 0 Z " fill="#FBFBFB" transform="translate(719.25,206.0625)"/>
<path d="M0 0 C4.88103033 2.76284736 8.2643467 6.57867407 10.3125 11.875 C11.07400373 20.05673772 11.83433226 29.18801048 6.3125 35.875 C2.36002007 39.96163721 -1.28085331 41.99982507 -7 42.1875 C-11.64956886 42.11967809 -14.11090328 40.96387899 -17.6875 37.875 C-23.88483893 31.39596385 -25.24407424 25.76351562 -25.05859375 16.98046875 C-24.35468294 11.08984668 -22.19481739 6.24331898 -17.85546875 2.14453125 C-11.88181296 -2.06177075 -6.96159592 -2.12387672 0 0 Z " fill="#FBFBFB" transform="translate(564.6875,206.125)"/>
<path d="M0 0 C4.96221664 3.34410252 9.45715561 7.98255356 10.875 13.9375 C11.51420723 19.96929187 11.11242959 25.68732635 7.875 30.9375 C3.63979883 35.4991646 0.03882463 38.62732111 -6.3125 39.25 C-12.80656789 38.71769935 -17.25268679 36.24158334 -21.5625 31.375 C-26.05859085 25.87433299 -25.73100881 19.75942778 -25.125 12.9375 C-23.59228311 7.28676061 -20.63654415 4.01969493 -15.80859375 0.84765625 C-10.69506387 -1.91673461 -5.35905079 -1.82207727 0 0 Z " fill="#FBFBFB" transform="translate(802.125,206.0625)"/>
<path d="M0 0 C3.135 -0.0825 6.27 -0.165 9.5 -0.25 C10.47130859 -0.28641602 11.44261719 -0.32283203 12.44335938 -0.36035156 C18.47358733 -0.43640407 22.99397873 0.52877608 28 4 C32.23232815 8.55789185 33.37133954 11.52768041 33.2734375 17.6171875 C32.83634007 21.42617937 31.5405788 24.1399917 29 27 C22.56841326 32.01419914 15.95701956 32.14650686 8.1875 32.0625 C5.485625 32.041875 2.78375 32.02125 0 32 C0 21.44 0 10.88 0 0 Z " fill="#FCFCFC" transform="translate(384,180)"/>
<path d="M0 0 C3.60158415 2.6054013 4.77775532 4.22214363 6 8.5 C6 13.31804413 4.50968717 15.37848415 1.3125 18.8125 C-2.12429814 20.57734229 -5.27928476 20.74271475 -9 20 C-12.2561101 18.10553594 -14.3487671 16.69599157 -15.73046875 13.09765625 C-16.49776352 9.13963075 -16.15298259 7.30596518 -14.3125 3.625 C-10.01784301 -1.25001604 -6.30649322 -1.91447116 0 0 Z " fill="#0D4077" transform="translate(862,162)"/>
<path d="M0 0 C0.66 0.99 1.32 1.98 2 3 C2.66 3.66 3.32 4.32 4 5 C3.9765625 7.3828125 3.9765625 7.3828125 3.625 10.125 C3.45871094 11.49011719 3.45871094 11.49011719 3.2890625 12.8828125 C3.14597656 13.93082031 3.14597656 13.93082031 3 15 C1.66666667 15.33333333 0.33333333 15.66666667 -1 16 C-1.7425 16.185625 -2.485 16.37125 -3.25 16.5625 C-3.8275 16.706875 -4.405 16.85125 -5 17 C-4.505 15.515 -4.505 15.515 -4 14 C-3.62249686 11.94164346 -3.27072371 9.87848699 -2.9375 7.8125 C-2.67259766 6.18248047 -2.67259766 6.18248047 -2.40234375 4.51953125 C-2.26957031 3.68808594 -2.13679687 2.85664063 -2 2 C-1.34 2 -0.68 2 0 2 C0 1.34 0 0.68 0 0 Z " fill="#104B7E" transform="translate(235,182)"/>
<path d="M0 0 C19.0294696 -1.75516909 19.0294696 -1.75516909 23.82714844 1.07958984 C26.73406922 3.89322435 28.49342466 7.28779837 30 11 C29.67 11.66 29.34 12.32 29 13 C28.71511719 12.28972656 28.43023438 11.57945312 28.13671875 10.84765625 C26.37595893 7.46377013 24.98225787 5.42463348 22 3 C15.84868757 1.39858007 9.30139625 1.78596656 3 2 C2.67 2.66 2.34 3.32 2 4 C1.34 2.68 0.68 1.36 0 0 Z " fill="#072F6A" transform="translate(877,190)"/>
<path d="M0 0 C4.50436669 4.06554587 6.82910195 9.56470274 7.25 15.5625 C7.1675 16.366875 7.085 17.17125 7 18 C6.5978125 17.0409375 6.5978125 17.0409375 6.1875 16.0625 C5.11332248 13.66868314 5.11332248 13.66868314 2 13 C2.02320313 13.60328125 2.04640625 14.2065625 2.0703125 14.828125 C2.08835938 15.62734375 2.10640625 16.4265625 2.125 17.25 C2.14820313 18.03890625 2.17140625 18.8278125 2.1953125 19.640625 C1.9828378 22.20731941 1.28654105 23.7916067 0 26 C0.12568359 24.51886719 0.12568359 24.51886719 0.25390625 23.0078125 C0.35574219 21.72648437 0.45757812 20.44515625 0.5625 19.125 C0.66691406 17.84882813 0.77132812 16.57265625 0.87890625 15.2578125 C1.25683367 12.11356058 1.25683367 12.11356058 0 10 C0.99 9.34 1.98 8.68 3 8 C2.505 7.05125 2.01 6.1025 1.5 5.125 C0 2 0 2 0 0 Z " fill="#092D67" transform="translate(231,171)"/>
<path d="M0 0 C0.66 0.33 1.32 0.66 2 1 C0.68 2.65 -0.64 4.3 -2 6 C-1.01 6.99 -0.02 7.98 1 9 C-0.04874998 11.62187494 -0.64931313 12.79371361 -3.125 14.25 C-3.74375 14.4975 -4.3625 14.745 -5 15 C-5 13.33333333 -5 11.66666667 -5 10 C-5.99 9.34 -6.98 8.68 -8 8 C-5.36 5.36 -2.72 2.72 0 0 Z " fill="#09356D" transform="translate(174,238)"/>
<path d="M0 0 C0.625 1.75 0.625 1.75 1 4 C0.5361792 4.91217285 0.5361792 4.91217285 0.06298828 5.84277344 C-1.12473655 8.25314013 -1.39340766 10.0979711 -1.6328125 12.765625 C-1.71660156 13.65507812 -1.80039063 14.54453125 -1.88671875 15.4609375 C-1.96535156 16.38132813 -2.04398438 17.30171875 -2.125 18.25 C-2.21136719 19.18585938 -2.29773438 20.12171875 -2.38671875 21.0859375 C-2.59832308 23.39007353 -2.80248677 25.69462044 -3 28 C-3.33 28 -3.66 28 -4 28 C-4.59374824 9.04403752 -4.59374824 9.04403752 -1 1 C-0.67 0.67 -0.34 0.34 0 0 Z " fill="#072360" transform="translate(149,176)"/>
<path d="M0 0 C-1.32 0.33 -2.64 0.66 -4 1 C-4 1.66 -4 2.32 -4 3 C-7.41928577 5.93081637 -10.44243968 8 -15 8 C-13.75482035 6.86966702 -12.50363348 5.74594964 -11.25 4.625 C-10.55390625 3.99851563 -9.8578125 3.37203125 -9.140625 2.7265625 C-4.07577375 -1.35859125 -4.07577375 -1.35859125 0 0 Z " fill="#082966" transform="translate(696,193)"/>
<path d="M0 0 C0.66 0.66 1.32 1.32 2 2 C3.32 2 4.64 2 6 2 C5.67 3.98 5.34 5.96 5 8 C4.01 8.33 3.02 8.66 2 9 C0.50178941 5.62902617 0 3.79557881 0 0 Z " fill="#08356F" transform="translate(91,185)"/>
<path d="M0 0 C0.66 0.33 1.32 0.66 2 1 C-0.125 3.0625 -0.125 3.0625 -3 5 C-6.25 4.875 -6.25 4.875 -9 4 C-9.33 3.34 -9.66 2.68 -10 2 C-9.278125 2.04125 -8.55625 2.0825 -7.8125 2.125 C-4.79136988 1.99072755 -2.77570937 1.12528758 0 0 Z " fill="#0B2E6A" transform="translate(221,137)"/>
<path d="M0 0 C1.2065625 0.0309375 1.2065625 0.0309375 2.4375 0.0625 C2.4375 1.0525 2.4375 2.0425 2.4375 3.0625 C1.81875 3.35125 1.2 3.64 0.5625 3.9375 C-1.69575765 4.99970042 -1.69575765 4.99970042 -3.5625 7.0625 C-3.60504356 5.06295254 -3.60330783 3.06208364 -3.5625 1.0625 C-2.5625 0.0625 -2.5625 0.0625 0 0 Z " fill="#0A336D" transform="translate(103.5625,302.9375)"/>
<path d="M0 0 C3.875 3.75 3.875 3.75 5 6 C5.99 6.33 6.98 6.66 8 7 C8 8.65 8 10.3 8 12 C4.72257902 8.89973691 2.06895163 6.02901106 0 2 C0 1.34 0 0.68 0 0 Z " fill="#0D2E68" transform="translate(892,211)"/>
<path d="M0 0 C1.98 0 3.96 0 6 0 C5.67 1.32 5.34 2.64 5 4 C4.34 4 3.68 4 3 4 C2.34 4.66 1.68 5.32 1 6 C0.67 4.02 0.34 2.04 0 0 Z " fill="#0A3A71" transform="translate(106,238)"/>
<path d="M0 0 C0.6875 1.6875 0.6875 1.6875 1 4 C-0.4375 6.75 -0.4375 6.75 -2 9 C-2.5534764 6.92446352 -3 5.15634036 -3 3 C-2.34 3 -1.68 3 -1 3 C-0.67 2.01 -0.34 1.02 0 0 Z " fill="#0C3973" transform="translate(589,243)"/>
<path d="M0 0 C0.33 0.66 0.66 1.32 1 2 C0.34 2.66 -0.32 3.32 -1 4 C-1.33 4.66 -1.66 5.32 -2 6 C-3.65 6 -5.3 6 -7 6 C-2.25 1.125 -2.25 1.125 0 0 Z " fill="#072E68" transform="translate(168,155)"/>
<path d="M0 0 C0.99 0.33 1.98 0.66 3 1 C1.49336217 4.01327566 -1.03166411 4.61056618 -4 6 C-2.25 1.125 -2.25 1.125 0 0 Z " fill="#09346E" transform="translate(549,191)"/>
</svg>
